%TF.GenerationSoftware,KiCad,Pcbnew,9.0.3*%
%TF.CreationDate,2025-09-23T23:00:58+02:00*%
%TF.ProjectId,ModuCard-GPIO-AUX,4d6f6475-4361-4726-942d-4750494f2d41,rev?*%
%TF.SameCoordinates,Original*%
%TF.FileFunction,Soldermask,Top*%
%TF.FilePolarity,Negative*%
%FSLAX46Y46*%
G04 Gerber Fmt 4.6, Leading zero omitted, Abs format (unit mm)*
G04 Created by KiCad (PCBNEW 9.0.3) date 2025-09-23 23:00:58*
%MOMM*%
%LPD*%
G01*
G04 APERTURE LIST*
G04 Aperture macros list*
%AMRoundRect*
0 Rectangle with rounded corners*
0 $1 Rounding radius*
0 $2 $3 $4 $5 $6 $7 $8 $9 X,Y pos of 4 corners*
0 Add a 4 corners polygon primitive as box body*
4,1,4,$2,$3,$4,$5,$6,$7,$8,$9,$2,$3,0*
0 Add four circle primitives for the rounded corners*
1,1,$1+$1,$2,$3*
1,1,$1+$1,$4,$5*
1,1,$1+$1,$6,$7*
1,1,$1+$1,$8,$9*
0 Add four rect primitives between the rounded corners*
20,1,$1+$1,$2,$3,$4,$5,0*
20,1,$1+$1,$4,$5,$6,$7,0*
20,1,$1+$1,$6,$7,$8,$9,0*
20,1,$1+$1,$8,$9,$2,$3,0*%
%AMFreePoly0*
4,1,17,2.675000,1.605000,1.875000,1.605000,1.875000,0.935000,2.675000,0.935000,2.675000,0.335000,1.875000,0.335000,1.875000,-0.335000,2.675000,-0.335000,2.675000,-0.935000,1.875000,-0.935000,1.875000,-1.605000,2.675000,-1.605000,2.675000,-2.205000,-1.875000,-2.205000,-1.875000,2.205000,2.675000,2.205000,2.675000,1.605000,2.675000,1.605000,$1*%
G04 Aperture macros list end*
%ADD10RoundRect,0.269000X0.269000X0.494000X-0.269000X0.494000X-0.269000X-0.494000X0.269000X-0.494000X0*%
%ADD11RoundRect,0.159000X-0.189000X0.159000X-0.189000X-0.159000X0.189000X-0.159000X0.189000X0.159000X0*%
%ADD12FreePoly0,0.000000*%
%ADD13RoundRect,0.125000X-0.300000X-0.125000X0.300000X-0.125000X0.300000X0.125000X-0.300000X0.125000X0*%
%ADD14RoundRect,0.250000X-1.000000X-0.650000X1.000000X-0.650000X1.000000X0.650000X-1.000000X0.650000X0*%
%ADD15RoundRect,0.250000X1.000000X0.650000X-1.000000X0.650000X-1.000000X-0.650000X1.000000X-0.650000X0*%
%ADD16FreePoly0,180.000000*%
%ADD17RoundRect,0.125000X0.300000X0.125000X-0.300000X0.125000X-0.300000X-0.125000X0.300000X-0.125000X0*%
%ADD18RoundRect,0.250001X-0.499999X-0.499999X0.499999X-0.499999X0.499999X0.499999X-0.499999X0.499999X0*%
%ADD19C,1.500000*%
%ADD20R,0.900000X2.000000*%
%ADD21RoundRect,1.025000X-1.025000X-1.025000X1.025000X-1.025000X1.025000X1.025000X-1.025000X1.025000X0*%
%ADD22C,4.100000*%
%ADD23RoundRect,0.249999X0.525001X0.525001X-0.525001X0.525001X-0.525001X-0.525001X0.525001X-0.525001X0*%
%ADD24C,1.550000*%
G04 APERTURE END LIST*
D10*
%TO.C,C13*%
X95350000Y-112910000D03*
X97250000Y-112910000D03*
%TD*%
%TO.C,C15*%
X95350000Y-108910000D03*
X97250000Y-108910000D03*
%TD*%
%TO.C,C17*%
X95400000Y-100760000D03*
X97300000Y-100760000D03*
%TD*%
%TO.C,C2*%
X98800000Y-108810000D03*
X100700000Y-108810000D03*
%TD*%
%TO.C,C19*%
X95250000Y-120910000D03*
X97150000Y-120910000D03*
%TD*%
%TO.C,C22*%
X95350000Y-114910000D03*
X97250000Y-114910000D03*
%TD*%
%TO.C,C20*%
X95250000Y-118960000D03*
X97150000Y-118960000D03*
%TD*%
%TO.C,C6*%
X98800000Y-100760000D03*
X100700000Y-100760000D03*
%TD*%
%TO.C,C16*%
X95350000Y-102810000D03*
X97250000Y-102810000D03*
%TD*%
%TO.C,C1*%
X98800000Y-110810000D03*
X100700000Y-110810000D03*
%TD*%
%TO.C,C12*%
X98750000Y-112810000D03*
X100650000Y-112810000D03*
%TD*%
%TO.C,C3*%
X98800000Y-106810000D03*
X100700000Y-106810000D03*
%TD*%
%TO.C,C5*%
X98800000Y-102810000D03*
X100700000Y-102810000D03*
%TD*%
%TO.C,C4*%
X98800000Y-104810000D03*
X100700000Y-104810000D03*
%TD*%
%TO.C,C7*%
X95350000Y-106910000D03*
X97250000Y-106910000D03*
%TD*%
%TO.C,C18*%
X98700000Y-120960000D03*
X100600000Y-120960000D03*
%TD*%
%TO.C,C10*%
X98750000Y-116910000D03*
X100650000Y-116910000D03*
%TD*%
%TO.C,C14*%
X95350000Y-110910000D03*
X97250000Y-110910000D03*
%TD*%
%TO.C,C11*%
X98750000Y-114810000D03*
X100650000Y-114810000D03*
%TD*%
%TO.C,C9*%
X98750000Y-118910000D03*
X100650000Y-118910000D03*
%TD*%
%TO.C,C8*%
X95350000Y-104860000D03*
X97250000Y-104860000D03*
%TD*%
%TO.C,C21*%
X95250000Y-116910000D03*
X97150000Y-116910000D03*
%TD*%
%TO.C,C32*%
X155750000Y-136370000D03*
X153850000Y-136370000D03*
%TD*%
D11*
%TO.C,R11*%
X140050000Y-151370000D03*
X140050000Y-152370000D03*
%TD*%
D10*
%TO.C,C39*%
X152350000Y-130370000D03*
X150450000Y-130370000D03*
%TD*%
D12*
%TO.C,Q1*%
X138950000Y-136010000D03*
D13*
X135400000Y-134105000D03*
X135400000Y-135375000D03*
X135400000Y-136645000D03*
X135400000Y-137915000D03*
%TD*%
D10*
%TO.C,C21*%
X130150000Y-146410000D03*
X128250000Y-146410000D03*
%TD*%
D11*
%TO.C,R8*%
X145600000Y-151370000D03*
X145600000Y-152370000D03*
%TD*%
D10*
%TO.C,C29*%
X155800000Y-146420000D03*
X153900000Y-146420000D03*
%TD*%
%TO.C,C8*%
X130250000Y-134360000D03*
X128350000Y-134360000D03*
%TD*%
D11*
%TO.C,R10*%
X141900000Y-151370000D03*
X141900000Y-152370000D03*
%TD*%
D10*
%TO.C,C37*%
X152350000Y-134370000D03*
X150450000Y-134370000D03*
%TD*%
%TO.C,C18*%
X133600000Y-150460000D03*
X131700000Y-150460000D03*
%TD*%
D14*
%TO.C,D6*%
X143800000Y-131070000D03*
X147800000Y-131070000D03*
%TD*%
D10*
%TO.C,C40*%
X155750000Y-130370000D03*
X153850000Y-130370000D03*
%TD*%
%TO.C,C4*%
X133700000Y-134310000D03*
X131800000Y-134310000D03*
%TD*%
D11*
%TO.C,R12*%
X138200000Y-151370000D03*
X138200000Y-152370000D03*
%TD*%
D10*
%TO.C,C26*%
X155800000Y-144470000D03*
X153900000Y-144470000D03*
%TD*%
%TO.C,C9*%
X133650000Y-148410000D03*
X131750000Y-148410000D03*
%TD*%
%TO.C,C27*%
X152400000Y-144470000D03*
X150500000Y-144470000D03*
%TD*%
%TO.C,C34*%
X155750000Y-132370000D03*
X153850000Y-132370000D03*
%TD*%
%TO.C,C42*%
X152400000Y-146470000D03*
X150500000Y-146470000D03*
%TD*%
%TO.C,C43*%
X152350000Y-140370000D03*
X150450000Y-140370000D03*
%TD*%
%TO.C,C44*%
X152350000Y-138370000D03*
X150450000Y-138370000D03*
%TD*%
%TO.C,C11*%
X133650000Y-144310000D03*
X131750000Y-144310000D03*
%TD*%
%TO.C,C10*%
X133650000Y-146410000D03*
X131750000Y-146410000D03*
%TD*%
%TO.C,C31*%
X155750000Y-138370000D03*
X153850000Y-138370000D03*
%TD*%
%TO.C,C14*%
X130250000Y-140410000D03*
X128350000Y-140410000D03*
%TD*%
%TO.C,C7*%
X130250000Y-136410000D03*
X128350000Y-136410000D03*
%TD*%
%TO.C,C38*%
X152350000Y-132370000D03*
X150450000Y-132370000D03*
%TD*%
%TO.C,C6*%
X133700000Y-130260000D03*
X131800000Y-130260000D03*
%TD*%
%TO.C,C5*%
X133700000Y-132310000D03*
X131800000Y-132310000D03*
%TD*%
%TO.C,C23*%
X155800000Y-148520000D03*
X153900000Y-148520000D03*
%TD*%
%TO.C,C3*%
X133700000Y-136310000D03*
X131800000Y-136310000D03*
%TD*%
%TO.C,C12*%
X133650000Y-142310000D03*
X131750000Y-142310000D03*
%TD*%
%TO.C,C1*%
X133700000Y-140310000D03*
X131800000Y-140310000D03*
%TD*%
%TO.C,C20*%
X130150000Y-148460000D03*
X128250000Y-148460000D03*
%TD*%
D12*
%TO.C,Q2*%
X138950000Y-142720000D03*
D13*
X135400000Y-140815000D03*
X135400000Y-142085000D03*
X135400000Y-143355000D03*
X135400000Y-144625000D03*
%TD*%
D15*
%TO.C,D3*%
X140200000Y-147410000D03*
X136200000Y-147410000D03*
%TD*%
D10*
%TO.C,C16*%
X130250000Y-132310000D03*
X128350000Y-132310000D03*
%TD*%
D14*
%TO.C,D5*%
X143700000Y-147170000D03*
X147700000Y-147170000D03*
%TD*%
D16*
%TO.C,Q3*%
X145050000Y-142435000D03*
D17*
X148600000Y-144340000D03*
X148600000Y-143070000D03*
X148600000Y-141800000D03*
X148600000Y-140530000D03*
%TD*%
D16*
%TO.C,Q4*%
X145050000Y-136065000D03*
D17*
X148600000Y-137970000D03*
X148600000Y-136700000D03*
X148600000Y-135430000D03*
X148600000Y-134160000D03*
%TD*%
D11*
%TO.C,R9*%
X143750000Y-151370000D03*
X143750000Y-152370000D03*
%TD*%
D15*
%TO.C,D2*%
X140200000Y-131310000D03*
X136200000Y-131310000D03*
%TD*%
D10*
%TO.C,C41*%
X152400000Y-148520000D03*
X150500000Y-148520000D03*
%TD*%
%TO.C,C30*%
X155750000Y-140370000D03*
X153850000Y-140370000D03*
%TD*%
%TO.C,C24*%
X155800000Y-150570000D03*
X153900000Y-150570000D03*
%TD*%
%TO.C,C36*%
X152350000Y-136370000D03*
X150450000Y-136370000D03*
%TD*%
%TO.C,C28*%
X155800000Y-142470000D03*
X153900000Y-142470000D03*
%TD*%
%TO.C,C33*%
X155750000Y-134370000D03*
X153850000Y-134370000D03*
%TD*%
%TO.C,C2*%
X133700000Y-138310000D03*
X131800000Y-138310000D03*
%TD*%
%TO.C,C19*%
X130150000Y-150410000D03*
X128250000Y-150410000D03*
%TD*%
%TO.C,C17*%
X130300000Y-130260000D03*
X128400000Y-130260000D03*
%TD*%
%TO.C,C25*%
X152400000Y-142470000D03*
X150500000Y-142470000D03*
%TD*%
%TO.C,C15*%
X130250000Y-138410000D03*
X128350000Y-138410000D03*
%TD*%
%TO.C,C35*%
X152400000Y-150570000D03*
X150500000Y-150570000D03*
%TD*%
%TO.C,C22*%
X130250000Y-144410000D03*
X128350000Y-144410000D03*
%TD*%
%TO.C,C13*%
X130250000Y-142410000D03*
X128350000Y-142410000D03*
%TD*%
D15*
%TO.C,D4*%
X148100000Y-126770000D03*
X144100000Y-126770000D03*
%TD*%
D10*
%TO.C,C32*%
X154950000Y-106770000D03*
X153050000Y-106770000D03*
%TD*%
D11*
%TO.C,R11*%
X139250000Y-121770000D03*
X139250000Y-122770000D03*
%TD*%
D10*
%TO.C,C39*%
X151550000Y-100770000D03*
X149650000Y-100770000D03*
%TD*%
D12*
%TO.C,Q1*%
X138150000Y-106410000D03*
D13*
X134600000Y-104505000D03*
X134600000Y-105775000D03*
X134600000Y-107045000D03*
X134600000Y-108315000D03*
%TD*%
D10*
%TO.C,C21*%
X129350000Y-116810000D03*
X127450000Y-116810000D03*
%TD*%
D11*
%TO.C,R8*%
X144800000Y-121770000D03*
X144800000Y-122770000D03*
%TD*%
D10*
%TO.C,C29*%
X155000000Y-116820000D03*
X153100000Y-116820000D03*
%TD*%
%TO.C,C8*%
X129450000Y-104760000D03*
X127550000Y-104760000D03*
%TD*%
D11*
%TO.C,R10*%
X141100000Y-121770000D03*
X141100000Y-122770000D03*
%TD*%
D10*
%TO.C,C37*%
X151550000Y-104770000D03*
X149650000Y-104770000D03*
%TD*%
%TO.C,C18*%
X132800000Y-120860000D03*
X130900000Y-120860000D03*
%TD*%
D14*
%TO.C,D6*%
X143000000Y-101470000D03*
X147000000Y-101470000D03*
%TD*%
D10*
%TO.C,C40*%
X154950000Y-100770000D03*
X153050000Y-100770000D03*
%TD*%
%TO.C,C4*%
X132900000Y-104710000D03*
X131000000Y-104710000D03*
%TD*%
D11*
%TO.C,R12*%
X137400000Y-121770000D03*
X137400000Y-122770000D03*
%TD*%
D10*
%TO.C,C26*%
X155000000Y-114870000D03*
X153100000Y-114870000D03*
%TD*%
%TO.C,C9*%
X132850000Y-118810000D03*
X130950000Y-118810000D03*
%TD*%
%TO.C,C27*%
X151600000Y-114870000D03*
X149700000Y-114870000D03*
%TD*%
%TO.C,C34*%
X154950000Y-102770000D03*
X153050000Y-102770000D03*
%TD*%
%TO.C,C42*%
X151600000Y-116870000D03*
X149700000Y-116870000D03*
%TD*%
%TO.C,C43*%
X151550000Y-110770000D03*
X149650000Y-110770000D03*
%TD*%
%TO.C,C44*%
X151550000Y-108770000D03*
X149650000Y-108770000D03*
%TD*%
%TO.C,C11*%
X132850000Y-114710000D03*
X130950000Y-114710000D03*
%TD*%
%TO.C,C10*%
X132850000Y-116810000D03*
X130950000Y-116810000D03*
%TD*%
%TO.C,C31*%
X154950000Y-108770000D03*
X153050000Y-108770000D03*
%TD*%
%TO.C,C14*%
X129450000Y-110810000D03*
X127550000Y-110810000D03*
%TD*%
%TO.C,C7*%
X129450000Y-106810000D03*
X127550000Y-106810000D03*
%TD*%
%TO.C,C38*%
X151550000Y-102770000D03*
X149650000Y-102770000D03*
%TD*%
%TO.C,C6*%
X132900000Y-100660000D03*
X131000000Y-100660000D03*
%TD*%
%TO.C,C5*%
X132900000Y-102710000D03*
X131000000Y-102710000D03*
%TD*%
%TO.C,C23*%
X155000000Y-118920000D03*
X153100000Y-118920000D03*
%TD*%
%TO.C,C3*%
X132900000Y-106710000D03*
X131000000Y-106710000D03*
%TD*%
%TO.C,C12*%
X132850000Y-112710000D03*
X130950000Y-112710000D03*
%TD*%
%TO.C,C1*%
X132900000Y-110710000D03*
X131000000Y-110710000D03*
%TD*%
%TO.C,C20*%
X129350000Y-118860000D03*
X127450000Y-118860000D03*
%TD*%
D12*
%TO.C,Q2*%
X138150000Y-113120000D03*
D13*
X134600000Y-111215000D03*
X134600000Y-112485000D03*
X134600000Y-113755000D03*
X134600000Y-115025000D03*
%TD*%
D15*
%TO.C,D3*%
X139400000Y-117810000D03*
X135400000Y-117810000D03*
%TD*%
D10*
%TO.C,C16*%
X129450000Y-102710000D03*
X127550000Y-102710000D03*
%TD*%
D14*
%TO.C,D5*%
X142900000Y-117570000D03*
X146900000Y-117570000D03*
%TD*%
D16*
%TO.C,Q3*%
X144250000Y-112835000D03*
D17*
X147800000Y-114740000D03*
X147800000Y-113470000D03*
X147800000Y-112200000D03*
X147800000Y-110930000D03*
%TD*%
D16*
%TO.C,Q4*%
X144250000Y-106465000D03*
D17*
X147800000Y-108370000D03*
X147800000Y-107100000D03*
X147800000Y-105830000D03*
X147800000Y-104560000D03*
%TD*%
D11*
%TO.C,R9*%
X142950000Y-121770000D03*
X142950000Y-122770000D03*
%TD*%
D15*
%TO.C,D2*%
X139400000Y-101710000D03*
X135400000Y-101710000D03*
%TD*%
D10*
%TO.C,C41*%
X151600000Y-118920000D03*
X149700000Y-118920000D03*
%TD*%
%TO.C,C30*%
X154950000Y-110770000D03*
X153050000Y-110770000D03*
%TD*%
%TO.C,C24*%
X155000000Y-120970000D03*
X153100000Y-120970000D03*
%TD*%
%TO.C,C36*%
X151550000Y-106770000D03*
X149650000Y-106770000D03*
%TD*%
%TO.C,C28*%
X155000000Y-112870000D03*
X153100000Y-112870000D03*
%TD*%
%TO.C,C33*%
X154950000Y-104770000D03*
X153050000Y-104770000D03*
%TD*%
%TO.C,C2*%
X132900000Y-108710000D03*
X131000000Y-108710000D03*
%TD*%
%TO.C,C19*%
X129350000Y-120810000D03*
X127450000Y-120810000D03*
%TD*%
%TO.C,C17*%
X129500000Y-100660000D03*
X127600000Y-100660000D03*
%TD*%
%TO.C,C25*%
X151600000Y-112870000D03*
X149700000Y-112870000D03*
%TD*%
%TO.C,C15*%
X129450000Y-108810000D03*
X127550000Y-108810000D03*
%TD*%
%TO.C,C35*%
X151600000Y-120970000D03*
X149700000Y-120970000D03*
%TD*%
%TO.C,C22*%
X129450000Y-114810000D03*
X127550000Y-114810000D03*
%TD*%
%TO.C,C13*%
X129450000Y-112810000D03*
X127550000Y-112810000D03*
%TD*%
D15*
%TO.C,D4*%
X147300000Y-97170000D03*
X143300000Y-97170000D03*
%TD*%
D10*
%TO.C,C32*%
X122650000Y-136370000D03*
X120750000Y-136370000D03*
%TD*%
D11*
%TO.C,R11*%
X106950000Y-151370000D03*
X106950000Y-152370000D03*
%TD*%
D10*
%TO.C,C39*%
X119250000Y-130370000D03*
X117350000Y-130370000D03*
%TD*%
D12*
%TO.C,Q1*%
X105850000Y-136010000D03*
D13*
X102300000Y-134105000D03*
X102300000Y-135375000D03*
X102300000Y-136645000D03*
X102300000Y-137915000D03*
%TD*%
D10*
%TO.C,C21*%
X97050000Y-146410000D03*
X95150000Y-146410000D03*
%TD*%
D11*
%TO.C,R8*%
X112500000Y-151370000D03*
X112500000Y-152370000D03*
%TD*%
D10*
%TO.C,C29*%
X122700000Y-146420000D03*
X120800000Y-146420000D03*
%TD*%
%TO.C,C8*%
X97150000Y-134360000D03*
X95250000Y-134360000D03*
%TD*%
D11*
%TO.C,R10*%
X108800000Y-151370000D03*
X108800000Y-152370000D03*
%TD*%
D10*
%TO.C,C37*%
X119250000Y-134370000D03*
X117350000Y-134370000D03*
%TD*%
%TO.C,C18*%
X100500000Y-150460000D03*
X98600000Y-150460000D03*
%TD*%
D14*
%TO.C,D6*%
X110700000Y-131070000D03*
X114700000Y-131070000D03*
%TD*%
D10*
%TO.C,C40*%
X122650000Y-130370000D03*
X120750000Y-130370000D03*
%TD*%
%TO.C,C4*%
X100600000Y-134310000D03*
X98700000Y-134310000D03*
%TD*%
D11*
%TO.C,R12*%
X105100000Y-151370000D03*
X105100000Y-152370000D03*
%TD*%
D10*
%TO.C,C26*%
X122700000Y-144470000D03*
X120800000Y-144470000D03*
%TD*%
%TO.C,C9*%
X100550000Y-148410000D03*
X98650000Y-148410000D03*
%TD*%
%TO.C,C27*%
X119300000Y-144470000D03*
X117400000Y-144470000D03*
%TD*%
%TO.C,C34*%
X122650000Y-132370000D03*
X120750000Y-132370000D03*
%TD*%
%TO.C,C42*%
X119300000Y-146470000D03*
X117400000Y-146470000D03*
%TD*%
%TO.C,C43*%
X119250000Y-140370000D03*
X117350000Y-140370000D03*
%TD*%
%TO.C,C44*%
X119250000Y-138370000D03*
X117350000Y-138370000D03*
%TD*%
%TO.C,C11*%
X100550000Y-144310000D03*
X98650000Y-144310000D03*
%TD*%
%TO.C,C10*%
X100550000Y-146410000D03*
X98650000Y-146410000D03*
%TD*%
%TO.C,C31*%
X122650000Y-138370000D03*
X120750000Y-138370000D03*
%TD*%
%TO.C,C14*%
X97150000Y-140410000D03*
X95250000Y-140410000D03*
%TD*%
%TO.C,C7*%
X97150000Y-136410000D03*
X95250000Y-136410000D03*
%TD*%
%TO.C,C38*%
X119250000Y-132370000D03*
X117350000Y-132370000D03*
%TD*%
%TO.C,C6*%
X100600000Y-130260000D03*
X98700000Y-130260000D03*
%TD*%
%TO.C,C5*%
X100600000Y-132310000D03*
X98700000Y-132310000D03*
%TD*%
%TO.C,C23*%
X122700000Y-148520000D03*
X120800000Y-148520000D03*
%TD*%
%TO.C,C3*%
X100600000Y-136310000D03*
X98700000Y-136310000D03*
%TD*%
%TO.C,C12*%
X100550000Y-142310000D03*
X98650000Y-142310000D03*
%TD*%
%TO.C,C1*%
X100600000Y-140310000D03*
X98700000Y-140310000D03*
%TD*%
%TO.C,C20*%
X97050000Y-148460000D03*
X95150000Y-148460000D03*
%TD*%
D12*
%TO.C,Q2*%
X105850000Y-142720000D03*
D13*
X102300000Y-140815000D03*
X102300000Y-142085000D03*
X102300000Y-143355000D03*
X102300000Y-144625000D03*
%TD*%
D15*
%TO.C,D3*%
X107100000Y-147410000D03*
X103100000Y-147410000D03*
%TD*%
D10*
%TO.C,C16*%
X97150000Y-132310000D03*
X95250000Y-132310000D03*
%TD*%
D14*
%TO.C,D5*%
X110600000Y-147170000D03*
X114600000Y-147170000D03*
%TD*%
D16*
%TO.C,Q3*%
X111950000Y-142435000D03*
D17*
X115500000Y-144340000D03*
X115500000Y-143070000D03*
X115500000Y-141800000D03*
X115500000Y-140530000D03*
%TD*%
D16*
%TO.C,Q4*%
X111950000Y-136065000D03*
D17*
X115500000Y-137970000D03*
X115500000Y-136700000D03*
X115500000Y-135430000D03*
X115500000Y-134160000D03*
%TD*%
D11*
%TO.C,R9*%
X110650000Y-151370000D03*
X110650000Y-152370000D03*
%TD*%
D15*
%TO.C,D2*%
X107100000Y-131310000D03*
X103100000Y-131310000D03*
%TD*%
D10*
%TO.C,C41*%
X119300000Y-148520000D03*
X117400000Y-148520000D03*
%TD*%
%TO.C,C30*%
X122650000Y-140370000D03*
X120750000Y-140370000D03*
%TD*%
%TO.C,C24*%
X122700000Y-150570000D03*
X120800000Y-150570000D03*
%TD*%
%TO.C,C36*%
X119250000Y-136370000D03*
X117350000Y-136370000D03*
%TD*%
%TO.C,C28*%
X122700000Y-142470000D03*
X120800000Y-142470000D03*
%TD*%
%TO.C,C33*%
X122650000Y-134370000D03*
X120750000Y-134370000D03*
%TD*%
%TO.C,C2*%
X100600000Y-138310000D03*
X98700000Y-138310000D03*
%TD*%
%TO.C,C19*%
X97050000Y-150410000D03*
X95150000Y-150410000D03*
%TD*%
%TO.C,C17*%
X97200000Y-130260000D03*
X95300000Y-130260000D03*
%TD*%
%TO.C,C25*%
X119300000Y-142470000D03*
X117400000Y-142470000D03*
%TD*%
%TO.C,C15*%
X97150000Y-138410000D03*
X95250000Y-138410000D03*
%TD*%
%TO.C,C35*%
X119300000Y-150570000D03*
X117400000Y-150570000D03*
%TD*%
%TO.C,C22*%
X97150000Y-144410000D03*
X95250000Y-144410000D03*
%TD*%
%TO.C,C13*%
X97150000Y-142410000D03*
X95250000Y-142410000D03*
%TD*%
D15*
%TO.C,D4*%
X115000000Y-126770000D03*
X111000000Y-126770000D03*
%TD*%
D10*
%TO.C,C32*%
X122750000Y-106870000D03*
X120850000Y-106870000D03*
%TD*%
D11*
%TO.C,R11*%
X107050000Y-121870000D03*
X107050000Y-122870000D03*
%TD*%
D10*
%TO.C,C39*%
X119350000Y-100870000D03*
X117450000Y-100870000D03*
%TD*%
D12*
%TO.C,Q1*%
X105950000Y-106510000D03*
D13*
X102400000Y-104605000D03*
X102400000Y-105875000D03*
X102400000Y-107145000D03*
X102400000Y-108415000D03*
%TD*%
D11*
%TO.C,R8*%
X112600000Y-121870000D03*
X112600000Y-122870000D03*
%TD*%
D10*
%TO.C,C29*%
X122800000Y-116920000D03*
X120900000Y-116920000D03*
%TD*%
D11*
%TO.C,R10*%
X108900000Y-121870000D03*
X108900000Y-122870000D03*
%TD*%
D10*
%TO.C,C37*%
X119350000Y-104870000D03*
X117450000Y-104870000D03*
%TD*%
D14*
%TO.C,D6*%
X110800000Y-101570000D03*
X114800000Y-101570000D03*
%TD*%
D10*
%TO.C,C40*%
X122750000Y-100870000D03*
X120850000Y-100870000D03*
%TD*%
D11*
%TO.C,R12*%
X105200000Y-121870000D03*
X105200000Y-122870000D03*
%TD*%
D10*
%TO.C,C26*%
X122800000Y-114970000D03*
X120900000Y-114970000D03*
%TD*%
%TO.C,C27*%
X119400000Y-114970000D03*
X117500000Y-114970000D03*
%TD*%
%TO.C,C34*%
X122750000Y-102870000D03*
X120850000Y-102870000D03*
%TD*%
%TO.C,C42*%
X119400000Y-116970000D03*
X117500000Y-116970000D03*
%TD*%
%TO.C,C43*%
X119350000Y-110870000D03*
X117450000Y-110870000D03*
%TD*%
%TO.C,C44*%
X119350000Y-108870000D03*
X117450000Y-108870000D03*
%TD*%
%TO.C,C31*%
X122750000Y-108870000D03*
X120850000Y-108870000D03*
%TD*%
%TO.C,C38*%
X119350000Y-102870000D03*
X117450000Y-102870000D03*
%TD*%
%TO.C,C23*%
X122800000Y-119020000D03*
X120900000Y-119020000D03*
%TD*%
D12*
%TO.C,Q2*%
X105950000Y-113220000D03*
D13*
X102400000Y-111315000D03*
X102400000Y-112585000D03*
X102400000Y-113855000D03*
X102400000Y-115125000D03*
%TD*%
D15*
%TO.C,D3*%
X107200000Y-117910000D03*
X103200000Y-117910000D03*
%TD*%
D14*
%TO.C,D5*%
X110700000Y-117670000D03*
X114700000Y-117670000D03*
%TD*%
D16*
%TO.C,Q3*%
X112050000Y-112935000D03*
D17*
X115600000Y-114840000D03*
X115600000Y-113570000D03*
X115600000Y-112300000D03*
X115600000Y-111030000D03*
%TD*%
D16*
%TO.C,Q4*%
X112050000Y-106565000D03*
D17*
X115600000Y-108470000D03*
X115600000Y-107200000D03*
X115600000Y-105930000D03*
X115600000Y-104660000D03*
%TD*%
D11*
%TO.C,R9*%
X110750000Y-121870000D03*
X110750000Y-122870000D03*
%TD*%
D15*
%TO.C,D2*%
X107200000Y-101810000D03*
X103200000Y-101810000D03*
%TD*%
D10*
%TO.C,C41*%
X119400000Y-119020000D03*
X117500000Y-119020000D03*
%TD*%
%TO.C,C30*%
X122750000Y-110870000D03*
X120850000Y-110870000D03*
%TD*%
%TO.C,C24*%
X122800000Y-121070000D03*
X120900000Y-121070000D03*
%TD*%
%TO.C,C36*%
X119350000Y-106870000D03*
X117450000Y-106870000D03*
%TD*%
%TO.C,C28*%
X122800000Y-112970000D03*
X120900000Y-112970000D03*
%TD*%
%TO.C,C33*%
X122750000Y-104870000D03*
X120850000Y-104870000D03*
%TD*%
%TO.C,C25*%
X119400000Y-112970000D03*
X117500000Y-112970000D03*
%TD*%
%TO.C,C35*%
X119400000Y-121070000D03*
X117500000Y-121070000D03*
%TD*%
D15*
%TO.C,D4*%
X115100000Y-97270000D03*
X111100000Y-97270000D03*
%TD*%
D10*
%TO.C,C32*%
X91450000Y-107070000D03*
X89550000Y-107070000D03*
%TD*%
D11*
%TO.C,R11*%
X75750000Y-122070000D03*
X75750000Y-123070000D03*
%TD*%
D10*
%TO.C,C39*%
X88050000Y-101070000D03*
X86150000Y-101070000D03*
%TD*%
D12*
%TO.C,Q1*%
X74650000Y-106710000D03*
D13*
X71100000Y-104805000D03*
X71100000Y-106075000D03*
X71100000Y-107345000D03*
X71100000Y-108615000D03*
%TD*%
D10*
%TO.C,C21*%
X65850000Y-117110000D03*
X63950000Y-117110000D03*
%TD*%
D11*
%TO.C,R8*%
X81300000Y-122070000D03*
X81300000Y-123070000D03*
%TD*%
D10*
%TO.C,C29*%
X91500000Y-117120000D03*
X89600000Y-117120000D03*
%TD*%
%TO.C,C8*%
X65950000Y-105060000D03*
X64050000Y-105060000D03*
%TD*%
D11*
%TO.C,R10*%
X77600000Y-122070000D03*
X77600000Y-123070000D03*
%TD*%
D10*
%TO.C,C37*%
X88050000Y-105070000D03*
X86150000Y-105070000D03*
%TD*%
%TO.C,C18*%
X69300000Y-121160000D03*
X67400000Y-121160000D03*
%TD*%
D14*
%TO.C,D6*%
X79500000Y-101770000D03*
X83500000Y-101770000D03*
%TD*%
D10*
%TO.C,C40*%
X91450000Y-101070000D03*
X89550000Y-101070000D03*
%TD*%
%TO.C,C4*%
X69400000Y-105010000D03*
X67500000Y-105010000D03*
%TD*%
D11*
%TO.C,R12*%
X73900000Y-122070000D03*
X73900000Y-123070000D03*
%TD*%
D10*
%TO.C,C26*%
X91500000Y-115170000D03*
X89600000Y-115170000D03*
%TD*%
%TO.C,C9*%
X69350000Y-119110000D03*
X67450000Y-119110000D03*
%TD*%
%TO.C,C27*%
X88100000Y-115170000D03*
X86200000Y-115170000D03*
%TD*%
%TO.C,C34*%
X91450000Y-103070000D03*
X89550000Y-103070000D03*
%TD*%
%TO.C,C42*%
X88100000Y-117170000D03*
X86200000Y-117170000D03*
%TD*%
%TO.C,C43*%
X88050000Y-111070000D03*
X86150000Y-111070000D03*
%TD*%
%TO.C,C44*%
X88050000Y-109070000D03*
X86150000Y-109070000D03*
%TD*%
%TO.C,C11*%
X69350000Y-115010000D03*
X67450000Y-115010000D03*
%TD*%
%TO.C,C10*%
X69350000Y-117110000D03*
X67450000Y-117110000D03*
%TD*%
%TO.C,C31*%
X91450000Y-109070000D03*
X89550000Y-109070000D03*
%TD*%
%TO.C,C14*%
X65950000Y-111110000D03*
X64050000Y-111110000D03*
%TD*%
%TO.C,C7*%
X65950000Y-107110000D03*
X64050000Y-107110000D03*
%TD*%
%TO.C,C38*%
X88050000Y-103070000D03*
X86150000Y-103070000D03*
%TD*%
%TO.C,C6*%
X69400000Y-100960000D03*
X67500000Y-100960000D03*
%TD*%
%TO.C,C5*%
X69400000Y-103010000D03*
X67500000Y-103010000D03*
%TD*%
%TO.C,C23*%
X91500000Y-119220000D03*
X89600000Y-119220000D03*
%TD*%
%TO.C,C3*%
X69400000Y-107010000D03*
X67500000Y-107010000D03*
%TD*%
%TO.C,C12*%
X69350000Y-113010000D03*
X67450000Y-113010000D03*
%TD*%
%TO.C,C1*%
X69400000Y-111010000D03*
X67500000Y-111010000D03*
%TD*%
%TO.C,C20*%
X65850000Y-119160000D03*
X63950000Y-119160000D03*
%TD*%
D12*
%TO.C,Q2*%
X74650000Y-113420000D03*
D13*
X71100000Y-111515000D03*
X71100000Y-112785000D03*
X71100000Y-114055000D03*
X71100000Y-115325000D03*
%TD*%
D15*
%TO.C,D3*%
X75900000Y-118110000D03*
X71900000Y-118110000D03*
%TD*%
D10*
%TO.C,C16*%
X65950000Y-103010000D03*
X64050000Y-103010000D03*
%TD*%
D14*
%TO.C,D5*%
X79400000Y-117870000D03*
X83400000Y-117870000D03*
%TD*%
D16*
%TO.C,Q3*%
X80750000Y-113135000D03*
D17*
X84300000Y-115040000D03*
X84300000Y-113770000D03*
X84300000Y-112500000D03*
X84300000Y-111230000D03*
%TD*%
D16*
%TO.C,Q4*%
X80750000Y-106765000D03*
D17*
X84300000Y-108670000D03*
X84300000Y-107400000D03*
X84300000Y-106130000D03*
X84300000Y-104860000D03*
%TD*%
D11*
%TO.C,R9*%
X79450000Y-122070000D03*
X79450000Y-123070000D03*
%TD*%
D15*
%TO.C,D2*%
X75900000Y-102010000D03*
X71900000Y-102010000D03*
%TD*%
D10*
%TO.C,C41*%
X88100000Y-119220000D03*
X86200000Y-119220000D03*
%TD*%
%TO.C,C30*%
X91450000Y-111070000D03*
X89550000Y-111070000D03*
%TD*%
%TO.C,C24*%
X91500000Y-121270000D03*
X89600000Y-121270000D03*
%TD*%
%TO.C,C36*%
X88050000Y-107070000D03*
X86150000Y-107070000D03*
%TD*%
%TO.C,C28*%
X91500000Y-113170000D03*
X89600000Y-113170000D03*
%TD*%
%TO.C,C33*%
X91450000Y-105070000D03*
X89550000Y-105070000D03*
%TD*%
%TO.C,C2*%
X69400000Y-109010000D03*
X67500000Y-109010000D03*
%TD*%
%TO.C,C19*%
X65850000Y-121110000D03*
X63950000Y-121110000D03*
%TD*%
%TO.C,C17*%
X66000000Y-100960000D03*
X64100000Y-100960000D03*
%TD*%
%TO.C,C25*%
X88100000Y-113170000D03*
X86200000Y-113170000D03*
%TD*%
%TO.C,C15*%
X65950000Y-109110000D03*
X64050000Y-109110000D03*
%TD*%
%TO.C,C35*%
X88100000Y-121270000D03*
X86200000Y-121270000D03*
%TD*%
%TO.C,C22*%
X65950000Y-115110000D03*
X64050000Y-115110000D03*
%TD*%
%TO.C,C13*%
X65950000Y-113110000D03*
X64050000Y-113110000D03*
%TD*%
D15*
%TO.C,D4*%
X83800000Y-97470000D03*
X79800000Y-97470000D03*
%TD*%
D11*
%TO.C,R11*%
X76445000Y-151555000D03*
X76445000Y-152555000D03*
%TD*%
D10*
%TO.C,C32*%
X92145000Y-136555000D03*
X90245000Y-136555000D03*
%TD*%
D14*
%TO.C,D5*%
X80095000Y-147355000D03*
X84095000Y-147355000D03*
%TD*%
D10*
%TO.C,C20*%
X66545000Y-148645000D03*
X64645000Y-148645000D03*
%TD*%
D12*
%TO.C,Q2*%
X75345000Y-142905000D03*
D13*
X71795000Y-141000000D03*
X71795000Y-142270000D03*
X71795000Y-143540000D03*
X71795000Y-144810000D03*
%TD*%
D10*
%TO.C,C1*%
X70095000Y-140495000D03*
X68195000Y-140495000D03*
%TD*%
%TO.C,C16*%
X66645000Y-132495000D03*
X64745000Y-132495000D03*
%TD*%
D15*
%TO.C,D3*%
X76595000Y-147595000D03*
X72595000Y-147595000D03*
%TD*%
D10*
%TO.C,C15*%
X66645000Y-138595000D03*
X64745000Y-138595000D03*
%TD*%
D15*
%TO.C,D4*%
X84495000Y-126955000D03*
X80495000Y-126955000D03*
%TD*%
D10*
%TO.C,C35*%
X88795000Y-150755000D03*
X86895000Y-150755000D03*
%TD*%
%TO.C,C22*%
X66645000Y-144595000D03*
X64745000Y-144595000D03*
%TD*%
%TO.C,C13*%
X66645000Y-142595000D03*
X64745000Y-142595000D03*
%TD*%
%TO.C,C25*%
X88795000Y-142655000D03*
X86895000Y-142655000D03*
%TD*%
%TO.C,C17*%
X66695000Y-130445000D03*
X64795000Y-130445000D03*
%TD*%
%TO.C,C19*%
X66545000Y-150595000D03*
X64645000Y-150595000D03*
%TD*%
%TO.C,C2*%
X70095000Y-138495000D03*
X68195000Y-138495000D03*
%TD*%
%TO.C,C33*%
X92145000Y-134555000D03*
X90245000Y-134555000D03*
%TD*%
%TO.C,C28*%
X92195000Y-142655000D03*
X90295000Y-142655000D03*
%TD*%
D18*
%TO.C,J1*%
X92550000Y-79450000D03*
D19*
X95550000Y-79450000D03*
X92550000Y-82450000D03*
X95550000Y-82450000D03*
%TD*%
D10*
%TO.C,C24*%
X92195000Y-150755000D03*
X90295000Y-150755000D03*
%TD*%
%TO.C,C36*%
X88745000Y-136555000D03*
X86845000Y-136555000D03*
%TD*%
%TO.C,C30*%
X92145000Y-140555000D03*
X90245000Y-140555000D03*
%TD*%
%TO.C,C41*%
X88795000Y-148705000D03*
X86895000Y-148705000D03*
%TD*%
D16*
%TO.C,Q4*%
X81445000Y-136250000D03*
D17*
X84995000Y-138155000D03*
X84995000Y-136885000D03*
X84995000Y-135615000D03*
X84995000Y-134345000D03*
%TD*%
D16*
%TO.C,Q3*%
X81445000Y-142620000D03*
D17*
X84995000Y-144525000D03*
X84995000Y-143255000D03*
X84995000Y-141985000D03*
X84995000Y-140715000D03*
%TD*%
D15*
%TO.C,D2*%
X76595000Y-131495000D03*
X72595000Y-131495000D03*
%TD*%
D11*
%TO.C,R9*%
X80145000Y-151555000D03*
X80145000Y-152555000D03*
%TD*%
D10*
%TO.C,C12*%
X70045000Y-142495000D03*
X68145000Y-142495000D03*
%TD*%
%TO.C,C3*%
X70095000Y-136495000D03*
X68195000Y-136495000D03*
%TD*%
%TO.C,C23*%
X92195000Y-148705000D03*
X90295000Y-148705000D03*
%TD*%
D20*
%TO.C,J7*%
X73050000Y-80850000D03*
X86550000Y-80850000D03*
D21*
X76200000Y-86850000D03*
D22*
X83400000Y-86850000D03*
%TD*%
D10*
%TO.C,C5*%
X70095000Y-132495000D03*
X68195000Y-132495000D03*
%TD*%
%TO.C,C6*%
X70095000Y-130445000D03*
X68195000Y-130445000D03*
%TD*%
%TO.C,C7*%
X66645000Y-136595000D03*
X64745000Y-136595000D03*
%TD*%
%TO.C,C38*%
X88745000Y-132555000D03*
X86845000Y-132555000D03*
%TD*%
%TO.C,C14*%
X66645000Y-140595000D03*
X64745000Y-140595000D03*
%TD*%
%TO.C,C31*%
X92145000Y-138555000D03*
X90245000Y-138555000D03*
%TD*%
D18*
%TO.C,J5*%
X115850000Y-79335000D03*
D19*
X118850000Y-79335000D03*
X115850000Y-82335000D03*
X118850000Y-82335000D03*
%TD*%
D10*
%TO.C,C11*%
X70045000Y-144495000D03*
X68145000Y-144495000D03*
%TD*%
%TO.C,C10*%
X70045000Y-146595000D03*
X68145000Y-146595000D03*
%TD*%
%TO.C,C44*%
X88745000Y-138555000D03*
X86845000Y-138555000D03*
%TD*%
%TO.C,C42*%
X88795000Y-146655000D03*
X86895000Y-146655000D03*
%TD*%
%TO.C,C43*%
X88745000Y-140555000D03*
X86845000Y-140555000D03*
%TD*%
%TO.C,C34*%
X92145000Y-132555000D03*
X90245000Y-132555000D03*
%TD*%
D23*
%TO.C,J6*%
X152550000Y-161210000D03*
D24*
X150010000Y-161210000D03*
X147470000Y-161210000D03*
X144930000Y-161210000D03*
X142390000Y-161210000D03*
X139850000Y-161210000D03*
X137310000Y-161210000D03*
X134770000Y-161210000D03*
X132230000Y-161210000D03*
X129690000Y-161210000D03*
X127150000Y-161210000D03*
X124610000Y-161210000D03*
X122070000Y-161210000D03*
X119530000Y-161210000D03*
X116990000Y-161210000D03*
X114450000Y-161210000D03*
X111910000Y-161210000D03*
X109370000Y-161210000D03*
X106830000Y-161210000D03*
X104290000Y-161210000D03*
X101750000Y-161210000D03*
X99210000Y-161210000D03*
X96670000Y-161210000D03*
X94130000Y-161210000D03*
X91590000Y-161210000D03*
X89050000Y-161210000D03*
X86510000Y-161210000D03*
X83970000Y-161210000D03*
X81430000Y-161210000D03*
X78890000Y-161210000D03*
X76350000Y-161210000D03*
X73810000Y-161210000D03*
X152550000Y-158670000D03*
X150010000Y-158670000D03*
X147470000Y-158670000D03*
X144930000Y-158670000D03*
X142390000Y-158670000D03*
X139850000Y-158670000D03*
X137310000Y-158670000D03*
X134770000Y-158670000D03*
X132230000Y-158670000D03*
X129690000Y-158670000D03*
X127150000Y-158670000D03*
X124610000Y-158670000D03*
X122070000Y-158670000D03*
X119530000Y-158670000D03*
X116990000Y-158670000D03*
X114450000Y-158670000D03*
X111910000Y-158670000D03*
X109370000Y-158670000D03*
X106830000Y-158670000D03*
X104290000Y-158670000D03*
X101750000Y-158670000D03*
X99210000Y-158670000D03*
X96670000Y-158670000D03*
X94130000Y-158670000D03*
X91590000Y-158670000D03*
X89050000Y-158670000D03*
X86510000Y-158670000D03*
X83970000Y-158670000D03*
X81430000Y-158670000D03*
X78890000Y-158670000D03*
X76350000Y-158670000D03*
X73810000Y-158670000D03*
X152550000Y-156130000D03*
X150010000Y-156130000D03*
X147470000Y-156130000D03*
X144930000Y-156130000D03*
X142390000Y-156130000D03*
X139850000Y-156130000D03*
X137310000Y-156130000D03*
X134770000Y-156130000D03*
X132230000Y-156130000D03*
X129690000Y-156130000D03*
X127150000Y-156130000D03*
X124610000Y-156130000D03*
X122070000Y-156130000D03*
X119530000Y-156130000D03*
X116990000Y-156130000D03*
X114450000Y-156130000D03*
X111910000Y-156130000D03*
X109370000Y-156130000D03*
X106830000Y-156130000D03*
X104290000Y-156130000D03*
X101750000Y-156130000D03*
X99210000Y-156130000D03*
X96670000Y-156130000D03*
X94130000Y-156130000D03*
X91590000Y-156130000D03*
X89050000Y-156130000D03*
X86510000Y-156130000D03*
X83970000Y-156130000D03*
X81430000Y-156130000D03*
X78890000Y-156130000D03*
X76350000Y-156130000D03*
X73810000Y-156130000D03*
%TD*%
D10*
%TO.C,C27*%
X88795000Y-144655000D03*
X86895000Y-144655000D03*
%TD*%
%TO.C,C26*%
X92195000Y-144655000D03*
X90295000Y-144655000D03*
%TD*%
D11*
%TO.C,R12*%
X74595000Y-151555000D03*
X74595000Y-152555000D03*
%TD*%
D10*
%TO.C,C9*%
X70045000Y-148595000D03*
X68145000Y-148595000D03*
%TD*%
D18*
%TO.C,J2*%
X138750000Y-79635000D03*
D19*
X141750000Y-79635000D03*
X138750000Y-82635000D03*
X141750000Y-82635000D03*
%TD*%
D10*
%TO.C,C4*%
X70095000Y-134495000D03*
X68195000Y-134495000D03*
%TD*%
%TO.C,C18*%
X69995000Y-150645000D03*
X68095000Y-150645000D03*
%TD*%
%TO.C,C40*%
X92145000Y-130555000D03*
X90245000Y-130555000D03*
%TD*%
D14*
%TO.C,D6*%
X80195000Y-131255000D03*
X84195000Y-131255000D03*
%TD*%
D10*
%TO.C,C37*%
X88745000Y-134555000D03*
X86845000Y-134555000D03*
%TD*%
D11*
%TO.C,R10*%
X78295000Y-151555000D03*
X78295000Y-152555000D03*
%TD*%
D10*
%TO.C,C8*%
X66645000Y-134545000D03*
X64745000Y-134545000D03*
%TD*%
%TO.C,C29*%
X92195000Y-146605000D03*
X90295000Y-146605000D03*
%TD*%
D11*
%TO.C,R8*%
X81995000Y-151555000D03*
X81995000Y-152555000D03*
%TD*%
D18*
%TO.C,J4*%
X127350000Y-79535000D03*
D19*
X130350000Y-79535000D03*
X127350000Y-82535000D03*
X130350000Y-82535000D03*
%TD*%
D12*
%TO.C,Q1*%
X75345000Y-136195000D03*
D13*
X71795000Y-134290000D03*
X71795000Y-135560000D03*
X71795000Y-136830000D03*
X71795000Y-138100000D03*
%TD*%
D10*
%TO.C,C21*%
X66545000Y-146595000D03*
X64645000Y-146595000D03*
%TD*%
D18*
%TO.C,J3*%
X104050000Y-79435000D03*
D19*
X107050000Y-79435000D03*
X104050000Y-82435000D03*
X107050000Y-82435000D03*
%TD*%
D10*
%TO.C,C39*%
X88745000Y-130555000D03*
X86845000Y-130555000D03*
%TD*%
M02*
