M48
; DRILL file {KiCad 9.0.3} date 2025-09-23T23:00:59+0200
; FORMAT={-:-/ absolute / inch / decimal}
; #@! TF.CreationDate,2025-09-23T23:00:59+02:00
; #@! TF.GenerationSoftware,Kicad,Pcbnew,9.0.3
; #@! TF.FileFunction,Plated,1,2,PTH
FMAT,2
INCH
; #@! TA.AperFunction,Plated,PTH,ComponentDrill
T1C0.0236
; #@! TA.AperFunction,Plated,PTH,ComponentDrill
T2C0.0394
; #@! TA.AperFunction,Plated,PTH,ComponentDrill
T3C0.0402
; #@! TA.AperFunction,Plated,PTH,ComponentDrill
T4C0.1063
%
G90
G05
T2
X2.9059Y-6.1469
X2.9059Y-6.2469
X2.9059Y-6.3469
X3.0059Y-6.1469
X3.0059Y-6.2469
X3.0059Y-6.3469
X3.1059Y-6.1469
X3.1059Y-6.2469
X3.1059Y-6.3469
X3.2059Y-6.1469
X3.2059Y-6.2469
X3.2059Y-6.3469
X3.3059Y-6.1469
X3.3059Y-6.2469
X3.3059Y-6.3469
X3.4059Y-6.1469
X3.4059Y-6.2469
X3.4059Y-6.3469
X3.5059Y-6.1469
X3.5059Y-6.2469
X3.5059Y-6.3469
X3.6059Y-6.1469
X3.6059Y-6.2469
X3.6059Y-6.3469
X3.7059Y-6.1469
X3.7059Y-6.2469
X3.7059Y-6.3469
X3.8059Y-6.1469
X3.8059Y-6.2469
X3.8059Y-6.3469
X3.9059Y-6.1469
X3.9059Y-6.2469
X3.9059Y-6.3469
X4.0059Y-6.1469
X4.0059Y-6.2469
X4.0059Y-6.3469
X4.1059Y-6.1469
X4.1059Y-6.2469
X4.1059Y-6.3469
X4.2059Y-6.1469
X4.2059Y-6.2469
X4.2059Y-6.3469
X4.3059Y-6.1469
X4.3059Y-6.2469
X4.3059Y-6.3469
X4.4059Y-6.1469
X4.4059Y-6.2469
X4.4059Y-6.3469
X4.5059Y-6.1469
X4.5059Y-6.2469
X4.5059Y-6.3469
X4.6059Y-6.1469
X4.6059Y-6.2469
X4.6059Y-6.3469
X4.7059Y-6.1469
X4.7059Y-6.2469
X4.7059Y-6.3469
X4.8059Y-6.1469
X4.8059Y-6.2469
X4.8059Y-6.3469
X4.9059Y-6.1469
X4.9059Y-6.2469
X4.9059Y-6.3469
X5.0059Y-6.1469
X5.0059Y-6.2469
X5.0059Y-6.3469
X5.1059Y-6.1469
X5.1059Y-6.2469
X5.1059Y-6.3469
X5.2059Y-6.1469
X5.2059Y-6.2469
X5.2059Y-6.3469
X5.3059Y-6.1469
X5.3059Y-6.2469
X5.3059Y-6.3469
X5.4059Y-6.1469
X5.4059Y-6.2469
X5.4059Y-6.3469
X5.5059Y-6.1469
X5.5059Y-6.2469
X5.5059Y-6.3469
X5.6059Y-6.1469
X5.6059Y-6.2469
X5.6059Y-6.3469
X5.7059Y-6.1469
X5.7059Y-6.2469
X5.7059Y-6.3469
X5.8059Y-6.1469
X5.8059Y-6.2469
X5.8059Y-6.3469
X5.9059Y-6.1469
X5.9059Y-6.2469
X5.9059Y-6.3469
X6.0059Y-6.1469
X6.0059Y-6.2469
X6.0059Y-6.3469
T3
X3.6437Y-3.128
X3.6437Y-3.2461
X3.7618Y-3.128
X3.7618Y-3.2461
X4.0965Y-3.1274
X4.0965Y-3.2455
X4.2146Y-3.1274
X4.2146Y-3.2455
X4.561Y-3.1234
X4.561Y-3.2415
X4.6791Y-3.1234
X4.6791Y-3.2415
X5.0138Y-3.1313
X5.0138Y-3.2494
X5.1319Y-3.1313
X5.1319Y-3.2494
X5.4626Y-3.1352
X5.4626Y-3.2533
X5.5807Y-3.1352
X5.5807Y-3.2533
T4
X3.0Y-3.4193
X3.2835Y-3.4193
T1
G00X2.876Y-3.1614
M15
G01X2.876Y-3.2047
M16
G05
G00X3.4075Y-3.1614
M15
G01X3.4075Y-3.2047
M16
G05
M30
