%TF.GenerationSoftware,KiCad,Pcbnew,9.0.3*%
%TF.CreationDate,2025-09-23T23:00:58+02:00*%
%TF.ProjectId,ModuCard-GPIO-AUX,4d6f6475-4361-4726-942d-4750494f2d41,rev?*%
%TF.SameCoordinates,Original*%
%TF.FileFunction,Copper,L1,Top*%
%TF.FilePolarity,Positive*%
%FSLAX46Y46*%
G04 Gerber Fmt 4.6, Leading zero omitted, Abs format (unit mm)*
G04 Created by KiCad (PCBNEW 9.0.3) date 2025-09-23 23:00:58*
%MOMM*%
%LPD*%
G01*
G04 APERTURE LIST*
G04 Aperture macros list*
%AMRoundRect*
0 Rectangle with rounded corners*
0 $1 Rounding radius*
0 $2 $3 $4 $5 $6 $7 $8 $9 X,Y pos of 4 corners*
0 Add a 4 corners polygon primitive as box body*
4,1,4,$2,$3,$4,$5,$6,$7,$8,$9,$2,$3,0*
0 Add four circle primitives for the rounded corners*
1,1,$1+$1,$2,$3*
1,1,$1+$1,$4,$5*
1,1,$1+$1,$6,$7*
1,1,$1+$1,$8,$9*
0 Add four rect primitives between the rounded corners*
20,1,$1+$1,$2,$3,$4,$5,0*
20,1,$1+$1,$4,$5,$6,$7,0*
20,1,$1+$1,$6,$7,$8,$9,0*
20,1,$1+$1,$8,$9,$2,$3,0*%
G04 Aperture macros list end*
%TA.AperFunction,SMDPad,CuDef*%
%ADD10RoundRect,0.250000X0.250000X0.475000X-0.250000X0.475000X-0.250000X-0.475000X0.250000X-0.475000X0*%
%TD*%
%TA.AperFunction,SMDPad,CuDef*%
%ADD11RoundRect,0.140000X-0.170000X0.140000X-0.170000X-0.140000X0.170000X-0.140000X0.170000X0.140000X0*%
%TD*%
%TA.AperFunction,SMDPad,CuDef*%
%ADD12RoundRect,0.125000X-0.300000X-0.125000X0.300000X-0.125000X0.300000X0.125000X-0.300000X0.125000X0*%
%TD*%
%TA.AperFunction,SMDPad,CuDef*%
%ADD13R,4.550000X4.410000*%
%TD*%
%TA.AperFunction,SMDPad,CuDef*%
%ADD14RoundRect,0.250000X-1.000000X-0.650000X1.000000X-0.650000X1.000000X0.650000X-1.000000X0.650000X0*%
%TD*%
%TA.AperFunction,SMDPad,CuDef*%
%ADD15RoundRect,0.250000X1.000000X0.650000X-1.000000X0.650000X-1.000000X-0.650000X1.000000X-0.650000X0*%
%TD*%
%TA.AperFunction,SMDPad,CuDef*%
%ADD16RoundRect,0.125000X0.300000X0.125000X-0.300000X0.125000X-0.300000X-0.125000X0.300000X-0.125000X0*%
%TD*%
%TA.AperFunction,ComponentPad*%
%ADD17RoundRect,0.250001X-0.499999X-0.499999X0.499999X-0.499999X0.499999X0.499999X-0.499999X0.499999X0*%
%TD*%
%TA.AperFunction,ComponentPad*%
%ADD18C,1.500000*%
%TD*%
%TA.AperFunction,ComponentPad*%
%ADD19R,0.900000X2.000000*%
%TD*%
%TA.AperFunction,ComponentPad*%
%ADD20RoundRect,1.025000X-1.025000X-1.025000X1.025000X-1.025000X1.025000X1.025000X-1.025000X1.025000X0*%
%TD*%
%TA.AperFunction,ComponentPad*%
%ADD21C,4.100000*%
%TD*%
%TA.AperFunction,ComponentPad*%
%ADD22RoundRect,0.249999X0.525001X0.525001X-0.525001X0.525001X-0.525001X-0.525001X0.525001X-0.525001X0*%
%TD*%
%TA.AperFunction,ComponentPad*%
%ADD23C,1.550000*%
%TD*%
G04 APERTURE END LIST*
D10*
%TO.P,C13,2*%
%TO.N,GND*%
X95350000Y-112910000D03*
%TO.P,C13,1*%
%TO.N,Net-(C12-Pad2)*%
X97250000Y-112910000D03*
%TD*%
%TO.P,C15,2*%
%TO.N,GND*%
X95350000Y-108910000D03*
%TO.P,C15,1*%
%TO.N,Net-(C14-Pad2)*%
X97250000Y-108910000D03*
%TD*%
%TO.P,C17,2*%
%TO.N,GND*%
X95400000Y-100760000D03*
%TO.P,C17,1*%
%TO.N,Net-(C16-Pad2)*%
X97300000Y-100760000D03*
%TD*%
%TO.P,C2,2*%
%TO.N,Net-(C2-Pad2)*%
X98800000Y-108810000D03*
%TO.P,C2,1*%
%TO.N,VIN_BRIDGE*%
X100700000Y-108810000D03*
%TD*%
%TO.P,C19,2*%
%TO.N,GND*%
X95250000Y-120910000D03*
%TO.P,C19,1*%
%TO.N,Net-(C18-Pad2)*%
X97150000Y-120910000D03*
%TD*%
%TO.P,C22,2*%
%TO.N,/Conn1/HalfBridge/OUT*%
X95350000Y-114910000D03*
%TO.P,C22,1*%
%TO.N,Net-(U1-VB)*%
X97250000Y-114910000D03*
%TD*%
%TO.P,C20,2*%
%TO.N,Net-(C20-Pad2)*%
X95250000Y-118960000D03*
%TO.P,C20,1*%
%TO.N,VIN_BRIDGE*%
X97150000Y-118960000D03*
%TD*%
%TO.P,C6,2*%
%TO.N,Net-(C6-Pad2)*%
X98800000Y-100760000D03*
%TO.P,C6,1*%
%TO.N,VIN_BRIDGE*%
X100700000Y-100760000D03*
%TD*%
%TO.P,C16,2*%
%TO.N,Net-(C16-Pad2)*%
X95350000Y-102810000D03*
%TO.P,C16,1*%
%TO.N,VIN_BRIDGE*%
X97250000Y-102810000D03*
%TD*%
%TO.P,C1,2*%
%TO.N,GND*%
X98800000Y-110810000D03*
%TO.P,C1,1*%
%TO.N,VIN_BL*%
X100700000Y-110810000D03*
%TD*%
%TO.P,C12,2*%
%TO.N,Net-(C12-Pad2)*%
X98750000Y-112810000D03*
%TO.P,C12,1*%
%TO.N,VIN_BRIDGE*%
X100650000Y-112810000D03*
%TD*%
%TO.P,C3,2*%
%TO.N,GND*%
X98800000Y-106810000D03*
%TO.P,C3,1*%
%TO.N,Net-(C2-Pad2)*%
X100700000Y-106810000D03*
%TD*%
%TO.P,C5,2*%
%TO.N,GND*%
X98800000Y-102810000D03*
%TO.P,C5,1*%
%TO.N,Net-(C4-Pad2)*%
X100700000Y-102810000D03*
%TD*%
%TO.P,C4,2*%
%TO.N,Net-(C4-Pad2)*%
X98800000Y-104810000D03*
%TO.P,C4,1*%
%TO.N,VIN_BRIDGE*%
X100700000Y-104810000D03*
%TD*%
%TO.P,C7,2*%
%TO.N,GND*%
X95350000Y-106910000D03*
%TO.P,C7,1*%
%TO.N,Net-(C6-Pad2)*%
X97250000Y-106910000D03*
%TD*%
%TO.P,C18,2*%
%TO.N,Net-(C18-Pad2)*%
X98700000Y-120960000D03*
%TO.P,C18,1*%
%TO.N,VIN_BRIDGE*%
X100600000Y-120960000D03*
%TD*%
%TO.P,C10,2*%
%TO.N,Net-(C10-Pad2)*%
X98750000Y-116910000D03*
%TO.P,C10,1*%
%TO.N,VIN_BRIDGE*%
X100650000Y-116910000D03*
%TD*%
%TO.P,C14,2*%
%TO.N,Net-(C14-Pad2)*%
X95350000Y-110910000D03*
%TO.P,C14,1*%
%TO.N,VIN_BRIDGE*%
X97250000Y-110910000D03*
%TD*%
%TO.P,C11,2*%
%TO.N,GND*%
X98750000Y-114810000D03*
%TO.P,C11,1*%
%TO.N,Net-(C10-Pad2)*%
X100650000Y-114810000D03*
%TD*%
%TO.P,C9,2*%
%TO.N,GND*%
X98750000Y-118910000D03*
%TO.P,C9,1*%
%TO.N,Net-(C8-Pad2)*%
X100650000Y-118910000D03*
%TD*%
%TO.P,C8,2*%
%TO.N,Net-(C8-Pad2)*%
X95350000Y-104860000D03*
%TO.P,C8,1*%
%TO.N,VIN_BRIDGE*%
X97250000Y-104860000D03*
%TD*%
%TO.P,C21,2*%
%TO.N,GND*%
X95250000Y-116910000D03*
%TO.P,C21,1*%
%TO.N,Net-(C20-Pad2)*%
X97150000Y-116910000D03*
%TD*%
%TO.P,C32,1*%
%TO.N,VIN_BRIDGE*%
X155750000Y-136370000D03*
%TO.P,C32,2*%
%TO.N,Net-(C32-Pad2)*%
X153850000Y-136370000D03*
%TD*%
D11*
%TO.P,R11,1*%
%TO.N,Net-(U2-HO)*%
X140050000Y-151370000D03*
%TO.P,R11,2*%
%TO.N,Net-(Q3-G)*%
X140050000Y-152370000D03*
%TD*%
D10*
%TO.P,C39,1*%
%TO.N,Net-(C38-Pad2)*%
X152350000Y-130370000D03*
%TO.P,C39,2*%
%TO.N,GND*%
X150450000Y-130370000D03*
%TD*%
D12*
%TO.P,Q1,1,S*%
%TO.N,/Conn1/HalfBridge/OUT*%
X135400000Y-134105000D03*
%TO.P,Q1,2,S*%
X135400000Y-135375000D03*
%TO.P,Q1,3,S*%
X135400000Y-136645000D03*
%TO.P,Q1,4,G*%
%TO.N,Net-(Q1-G)*%
X135400000Y-137915000D03*
D13*
%TO.P,Q1,5,D*%
%TO.N,VIN_BRIDGE*%
X139350000Y-136010000D03*
%TD*%
D10*
%TO.P,C21,1*%
%TO.N,Net-(C20-Pad2)*%
X130150000Y-146410000D03*
%TO.P,C21,2*%
%TO.N,GND*%
X128250000Y-146410000D03*
%TD*%
D11*
%TO.P,R8,1*%
%TO.N,VIN_BL*%
X145600000Y-151370000D03*
%TO.P,R8,2*%
%TO.N,Net-(U2-EN)*%
X145600000Y-152370000D03*
%TD*%
D10*
%TO.P,C29,1*%
%TO.N,Net-(C28-Pad2)*%
X155800000Y-146420000D03*
%TO.P,C29,2*%
%TO.N,GND*%
X153900000Y-146420000D03*
%TD*%
%TO.P,C8,1*%
%TO.N,VIN_BRIDGE*%
X130250000Y-134360000D03*
%TO.P,C8,2*%
%TO.N,Net-(C8-Pad2)*%
X128350000Y-134360000D03*
%TD*%
D11*
%TO.P,R10,1*%
%TO.N,GND*%
X141900000Y-151370000D03*
%TO.P,R10,2*%
%TO.N,Net-(U2-DT)*%
X141900000Y-152370000D03*
%TD*%
D10*
%TO.P,C37,1*%
%TO.N,Net-(C36-Pad2)*%
X152350000Y-134370000D03*
%TO.P,C37,2*%
%TO.N,GND*%
X150450000Y-134370000D03*
%TD*%
%TO.P,C18,1*%
%TO.N,VIN_BRIDGE*%
X133600000Y-150460000D03*
%TO.P,C18,2*%
%TO.N,Net-(C18-Pad2)*%
X131700000Y-150460000D03*
%TD*%
D14*
%TO.P,D6,1,K*%
%TO.N,/Conn1/HalfBridge1/OUT*%
X143800000Y-131070000D03*
%TO.P,D6,2,A*%
%TO.N,GND*%
X147800000Y-131070000D03*
%TD*%
D10*
%TO.P,C40,1*%
%TO.N,VIN_BRIDGE*%
X155750000Y-130370000D03*
%TO.P,C40,2*%
%TO.N,Net-(C40-Pad2)*%
X153850000Y-130370000D03*
%TD*%
%TO.P,C4,1*%
%TO.N,VIN_BRIDGE*%
X133700000Y-134310000D03*
%TO.P,C4,2*%
%TO.N,Net-(C4-Pad2)*%
X131800000Y-134310000D03*
%TD*%
D11*
%TO.P,R12,1*%
%TO.N,unconnected-(R12-Pad1)*%
X138200000Y-151370000D03*
%TO.P,R12,2*%
%TO.N,Net-(Q4-G)*%
X138200000Y-152370000D03*
%TD*%
D10*
%TO.P,C26,1*%
%TO.N,VIN_BRIDGE*%
X155800000Y-144470000D03*
%TO.P,C26,2*%
%TO.N,Net-(C26-Pad2)*%
X153900000Y-144470000D03*
%TD*%
%TO.P,C9,1*%
%TO.N,Net-(C8-Pad2)*%
X133650000Y-148410000D03*
%TO.P,C9,2*%
%TO.N,GND*%
X131750000Y-148410000D03*
%TD*%
%TO.P,C27,1*%
%TO.N,Net-(C26-Pad2)*%
X152400000Y-144470000D03*
%TO.P,C27,2*%
%TO.N,GND*%
X150500000Y-144470000D03*
%TD*%
%TO.P,C34,1*%
%TO.N,VIN_BRIDGE*%
X155750000Y-132370000D03*
%TO.P,C34,2*%
%TO.N,Net-(C34-Pad2)*%
X153850000Y-132370000D03*
%TD*%
%TO.P,C42,1*%
%TO.N,VIN_BRIDGE*%
X152400000Y-146470000D03*
%TO.P,C42,2*%
%TO.N,Net-(C42-Pad2)*%
X150500000Y-146470000D03*
%TD*%
%TO.P,C43,1*%
%TO.N,Net-(C42-Pad2)*%
X152350000Y-140370000D03*
%TO.P,C43,2*%
%TO.N,GND*%
X150450000Y-140370000D03*
%TD*%
%TO.P,C44,1*%
%TO.N,Net-(U2-VB)*%
X152350000Y-138370000D03*
%TO.P,C44,2*%
%TO.N,/Conn1/HalfBridge1/OUT*%
X150450000Y-138370000D03*
%TD*%
%TO.P,C11,1*%
%TO.N,Net-(C10-Pad2)*%
X133650000Y-144310000D03*
%TO.P,C11,2*%
%TO.N,GND*%
X131750000Y-144310000D03*
%TD*%
%TO.P,C10,1*%
%TO.N,VIN_BRIDGE*%
X133650000Y-146410000D03*
%TO.P,C10,2*%
%TO.N,Net-(C10-Pad2)*%
X131750000Y-146410000D03*
%TD*%
%TO.P,C31,1*%
%TO.N,Net-(C30-Pad2)*%
X155750000Y-138370000D03*
%TO.P,C31,2*%
%TO.N,GND*%
X153850000Y-138370000D03*
%TD*%
%TO.P,C14,1*%
%TO.N,VIN_BRIDGE*%
X130250000Y-140410000D03*
%TO.P,C14,2*%
%TO.N,Net-(C14-Pad2)*%
X128350000Y-140410000D03*
%TD*%
%TO.P,C7,1*%
%TO.N,Net-(C6-Pad2)*%
X130250000Y-136410000D03*
%TO.P,C7,2*%
%TO.N,GND*%
X128350000Y-136410000D03*
%TD*%
%TO.P,C38,1*%
%TO.N,VIN_BRIDGE*%
X152350000Y-132370000D03*
%TO.P,C38,2*%
%TO.N,Net-(C38-Pad2)*%
X150450000Y-132370000D03*
%TD*%
%TO.P,C6,1*%
%TO.N,VIN_BRIDGE*%
X133700000Y-130260000D03*
%TO.P,C6,2*%
%TO.N,Net-(C6-Pad2)*%
X131800000Y-130260000D03*
%TD*%
%TO.P,C5,1*%
%TO.N,Net-(C4-Pad2)*%
X133700000Y-132310000D03*
%TO.P,C5,2*%
%TO.N,GND*%
X131800000Y-132310000D03*
%TD*%
%TO.P,C23,1*%
%TO.N,VIN_BL*%
X155800000Y-148520000D03*
%TO.P,C23,2*%
%TO.N,GND*%
X153900000Y-148520000D03*
%TD*%
%TO.P,C3,1*%
%TO.N,Net-(C2-Pad2)*%
X133700000Y-136310000D03*
%TO.P,C3,2*%
%TO.N,GND*%
X131800000Y-136310000D03*
%TD*%
%TO.P,C12,1*%
%TO.N,VIN_BRIDGE*%
X133650000Y-142310000D03*
%TO.P,C12,2*%
%TO.N,Net-(C12-Pad2)*%
X131750000Y-142310000D03*
%TD*%
%TO.P,C1,1*%
%TO.N,VIN_BL*%
X133700000Y-140310000D03*
%TO.P,C1,2*%
%TO.N,GND*%
X131800000Y-140310000D03*
%TD*%
%TO.P,C20,1*%
%TO.N,VIN_BRIDGE*%
X130150000Y-148460000D03*
%TO.P,C20,2*%
%TO.N,Net-(C20-Pad2)*%
X128250000Y-148460000D03*
%TD*%
D12*
%TO.P,Q2,1,S*%
%TO.N,GND*%
X135400000Y-140815000D03*
%TO.P,Q2,2,S*%
X135400000Y-142085000D03*
%TO.P,Q2,3,S*%
X135400000Y-143355000D03*
%TO.P,Q2,4,G*%
%TO.N,Net-(Q2-G)*%
X135400000Y-144625000D03*
D13*
%TO.P,Q2,5,D*%
%TO.N,/Conn1/HalfBridge/OUT*%
X139350000Y-142720000D03*
%TD*%
D15*
%TO.P,D3,1,K*%
%TO.N,/Conn1/HalfBridge/OUT*%
X140200000Y-147410000D03*
%TO.P,D3,2,A*%
%TO.N,GND*%
X136200000Y-147410000D03*
%TD*%
D10*
%TO.P,C16,1*%
%TO.N,VIN_BRIDGE*%
X130250000Y-132310000D03*
%TO.P,C16,2*%
%TO.N,Net-(C16-Pad2)*%
X128350000Y-132310000D03*
%TD*%
D14*
%TO.P,D5,1,K*%
%TO.N,VIN_BRIDGE*%
X143700000Y-147170000D03*
%TO.P,D5,2,A*%
%TO.N,/Conn1/HalfBridge1/OUT*%
X147700000Y-147170000D03*
%TD*%
D16*
%TO.P,Q3,1,S*%
%TO.N,/Conn1/HalfBridge1/OUT*%
X148600000Y-144340000D03*
%TO.P,Q3,2,S*%
X148600000Y-143070000D03*
%TO.P,Q3,3,S*%
X148600000Y-141800000D03*
%TO.P,Q3,4,G*%
%TO.N,Net-(Q3-G)*%
X148600000Y-140530000D03*
D13*
%TO.P,Q3,5,D*%
%TO.N,VIN_BRIDGE*%
X144650000Y-142435000D03*
%TD*%
D16*
%TO.P,Q4,1,S*%
%TO.N,GND*%
X148600000Y-137970000D03*
%TO.P,Q4,2,S*%
X148600000Y-136700000D03*
%TO.P,Q4,3,S*%
X148600000Y-135430000D03*
%TO.P,Q4,4,G*%
%TO.N,Net-(Q4-G)*%
X148600000Y-134160000D03*
D13*
%TO.P,Q4,5,D*%
%TO.N,/Conn1/HalfBridge1/OUT*%
X144650000Y-136065000D03*
%TD*%
D11*
%TO.P,R9,1*%
%TO.N,/Conn1/Bridge_IN2*%
X143750000Y-151370000D03*
%TO.P,R9,2*%
%TO.N,Net-(U2-IN)*%
X143750000Y-152370000D03*
%TD*%
D15*
%TO.P,D2,1,K*%
%TO.N,VIN_BRIDGE*%
X140200000Y-131310000D03*
%TO.P,D2,2,A*%
%TO.N,/Conn1/HalfBridge/OUT*%
X136200000Y-131310000D03*
%TD*%
D10*
%TO.P,C41,1*%
%TO.N,Net-(C40-Pad2)*%
X152400000Y-148520000D03*
%TO.P,C41,2*%
%TO.N,GND*%
X150500000Y-148520000D03*
%TD*%
%TO.P,C30,1*%
%TO.N,VIN_BRIDGE*%
X155750000Y-140370000D03*
%TO.P,C30,2*%
%TO.N,Net-(C30-Pad2)*%
X153850000Y-140370000D03*
%TD*%
%TO.P,C24,1*%
%TO.N,VIN_BRIDGE*%
X155800000Y-150570000D03*
%TO.P,C24,2*%
%TO.N,Net-(C24-Pad2)*%
X153900000Y-150570000D03*
%TD*%
%TO.P,C36,1*%
%TO.N,VIN_BRIDGE*%
X152350000Y-136370000D03*
%TO.P,C36,2*%
%TO.N,Net-(C36-Pad2)*%
X150450000Y-136370000D03*
%TD*%
%TO.P,C28,1*%
%TO.N,VIN_BRIDGE*%
X155800000Y-142470000D03*
%TO.P,C28,2*%
%TO.N,Net-(C28-Pad2)*%
X153900000Y-142470000D03*
%TD*%
%TO.P,C33,1*%
%TO.N,Net-(C32-Pad2)*%
X155750000Y-134370000D03*
%TO.P,C33,2*%
%TO.N,GND*%
X153850000Y-134370000D03*
%TD*%
%TO.P,C2,1*%
%TO.N,VIN_BRIDGE*%
X133700000Y-138310000D03*
%TO.P,C2,2*%
%TO.N,Net-(C2-Pad2)*%
X131800000Y-138310000D03*
%TD*%
%TO.P,C19,1*%
%TO.N,Net-(C18-Pad2)*%
X130150000Y-150410000D03*
%TO.P,C19,2*%
%TO.N,GND*%
X128250000Y-150410000D03*
%TD*%
%TO.P,C17,1*%
%TO.N,Net-(C16-Pad2)*%
X130300000Y-130260000D03*
%TO.P,C17,2*%
%TO.N,GND*%
X128400000Y-130260000D03*
%TD*%
%TO.P,C25,1*%
%TO.N,Net-(C24-Pad2)*%
X152400000Y-142470000D03*
%TO.P,C25,2*%
%TO.N,GND*%
X150500000Y-142470000D03*
%TD*%
%TO.P,C15,1*%
%TO.N,Net-(C14-Pad2)*%
X130250000Y-138410000D03*
%TO.P,C15,2*%
%TO.N,GND*%
X128350000Y-138410000D03*
%TD*%
%TO.P,C35,1*%
%TO.N,Net-(C34-Pad2)*%
X152400000Y-150570000D03*
%TO.P,C35,2*%
%TO.N,GND*%
X150500000Y-150570000D03*
%TD*%
%TO.P,C22,1*%
%TO.N,Net-(U1-VB)*%
X130250000Y-144410000D03*
%TO.P,C22,2*%
%TO.N,/Conn1/HalfBridge/OUT*%
X128350000Y-144410000D03*
%TD*%
%TO.P,C13,1*%
%TO.N,Net-(C12-Pad2)*%
X130250000Y-142410000D03*
%TO.P,C13,2*%
%TO.N,GND*%
X128350000Y-142410000D03*
%TD*%
D15*
%TO.P,D4,1,K*%
%TO.N,Net-(D4-K)*%
X148100000Y-126770000D03*
%TO.P,D4,2,A*%
%TO.N,VIN_BL*%
X144100000Y-126770000D03*
%TD*%
D10*
%TO.P,C32,1*%
%TO.N,VIN_BRIDGE*%
X154950000Y-106770000D03*
%TO.P,C32,2*%
%TO.N,Net-(C32-Pad2)*%
X153050000Y-106770000D03*
%TD*%
D11*
%TO.P,R11,1*%
%TO.N,Net-(U2-HO)*%
X139250000Y-121770000D03*
%TO.P,R11,2*%
%TO.N,Net-(Q3-G)*%
X139250000Y-122770000D03*
%TD*%
D10*
%TO.P,C39,1*%
%TO.N,Net-(C38-Pad2)*%
X151550000Y-100770000D03*
%TO.P,C39,2*%
%TO.N,GND*%
X149650000Y-100770000D03*
%TD*%
D12*
%TO.P,Q1,1,S*%
%TO.N,/Conn1/HalfBridge/OUT*%
X134600000Y-104505000D03*
%TO.P,Q1,2,S*%
X134600000Y-105775000D03*
%TO.P,Q1,3,S*%
X134600000Y-107045000D03*
%TO.P,Q1,4,G*%
%TO.N,Net-(Q1-G)*%
X134600000Y-108315000D03*
D13*
%TO.P,Q1,5,D*%
%TO.N,VIN_BRIDGE*%
X138550000Y-106410000D03*
%TD*%
D10*
%TO.P,C21,1*%
%TO.N,Net-(C20-Pad2)*%
X129350000Y-116810000D03*
%TO.P,C21,2*%
%TO.N,GND*%
X127450000Y-116810000D03*
%TD*%
D11*
%TO.P,R8,1*%
%TO.N,VIN_BL*%
X144800000Y-121770000D03*
%TO.P,R8,2*%
%TO.N,Net-(U2-EN)*%
X144800000Y-122770000D03*
%TD*%
D10*
%TO.P,C29,1*%
%TO.N,Net-(C28-Pad2)*%
X155000000Y-116820000D03*
%TO.P,C29,2*%
%TO.N,GND*%
X153100000Y-116820000D03*
%TD*%
%TO.P,C8,1*%
%TO.N,VIN_BRIDGE*%
X129450000Y-104760000D03*
%TO.P,C8,2*%
%TO.N,Net-(C8-Pad2)*%
X127550000Y-104760000D03*
%TD*%
D11*
%TO.P,R10,1*%
%TO.N,GND*%
X141100000Y-121770000D03*
%TO.P,R10,2*%
%TO.N,Net-(U2-DT)*%
X141100000Y-122770000D03*
%TD*%
D10*
%TO.P,C37,1*%
%TO.N,Net-(C36-Pad2)*%
X151550000Y-104770000D03*
%TO.P,C37,2*%
%TO.N,GND*%
X149650000Y-104770000D03*
%TD*%
%TO.P,C18,1*%
%TO.N,VIN_BRIDGE*%
X132800000Y-120860000D03*
%TO.P,C18,2*%
%TO.N,Net-(C18-Pad2)*%
X130900000Y-120860000D03*
%TD*%
D14*
%TO.P,D6,1,K*%
%TO.N,/Conn1/HalfBridge1/OUT*%
X143000000Y-101470000D03*
%TO.P,D6,2,A*%
%TO.N,GND*%
X147000000Y-101470000D03*
%TD*%
D10*
%TO.P,C40,1*%
%TO.N,VIN_BRIDGE*%
X154950000Y-100770000D03*
%TO.P,C40,2*%
%TO.N,Net-(C40-Pad2)*%
X153050000Y-100770000D03*
%TD*%
%TO.P,C4,1*%
%TO.N,VIN_BRIDGE*%
X132900000Y-104710000D03*
%TO.P,C4,2*%
%TO.N,Net-(C4-Pad2)*%
X131000000Y-104710000D03*
%TD*%
D11*
%TO.P,R12,1*%
%TO.N,unconnected-(R12-Pad1)*%
X137400000Y-121770000D03*
%TO.P,R12,2*%
%TO.N,Net-(Q4-G)*%
X137400000Y-122770000D03*
%TD*%
D10*
%TO.P,C26,1*%
%TO.N,VIN_BRIDGE*%
X155000000Y-114870000D03*
%TO.P,C26,2*%
%TO.N,Net-(C26-Pad2)*%
X153100000Y-114870000D03*
%TD*%
%TO.P,C9,1*%
%TO.N,Net-(C8-Pad2)*%
X132850000Y-118810000D03*
%TO.P,C9,2*%
%TO.N,GND*%
X130950000Y-118810000D03*
%TD*%
%TO.P,C27,1*%
%TO.N,Net-(C26-Pad2)*%
X151600000Y-114870000D03*
%TO.P,C27,2*%
%TO.N,GND*%
X149700000Y-114870000D03*
%TD*%
%TO.P,C34,1*%
%TO.N,VIN_BRIDGE*%
X154950000Y-102770000D03*
%TO.P,C34,2*%
%TO.N,Net-(C34-Pad2)*%
X153050000Y-102770000D03*
%TD*%
%TO.P,C42,1*%
%TO.N,VIN_BRIDGE*%
X151600000Y-116870000D03*
%TO.P,C42,2*%
%TO.N,Net-(C42-Pad2)*%
X149700000Y-116870000D03*
%TD*%
%TO.P,C43,1*%
%TO.N,Net-(C42-Pad2)*%
X151550000Y-110770000D03*
%TO.P,C43,2*%
%TO.N,GND*%
X149650000Y-110770000D03*
%TD*%
%TO.P,C44,1*%
%TO.N,Net-(U2-VB)*%
X151550000Y-108770000D03*
%TO.P,C44,2*%
%TO.N,/Conn1/HalfBridge1/OUT*%
X149650000Y-108770000D03*
%TD*%
%TO.P,C11,1*%
%TO.N,Net-(C10-Pad2)*%
X132850000Y-114710000D03*
%TO.P,C11,2*%
%TO.N,GND*%
X130950000Y-114710000D03*
%TD*%
%TO.P,C10,1*%
%TO.N,VIN_BRIDGE*%
X132850000Y-116810000D03*
%TO.P,C10,2*%
%TO.N,Net-(C10-Pad2)*%
X130950000Y-116810000D03*
%TD*%
%TO.P,C31,1*%
%TO.N,Net-(C30-Pad2)*%
X154950000Y-108770000D03*
%TO.P,C31,2*%
%TO.N,GND*%
X153050000Y-108770000D03*
%TD*%
%TO.P,C14,1*%
%TO.N,VIN_BRIDGE*%
X129450000Y-110810000D03*
%TO.P,C14,2*%
%TO.N,Net-(C14-Pad2)*%
X127550000Y-110810000D03*
%TD*%
%TO.P,C7,1*%
%TO.N,Net-(C6-Pad2)*%
X129450000Y-106810000D03*
%TO.P,C7,2*%
%TO.N,GND*%
X127550000Y-106810000D03*
%TD*%
%TO.P,C38,1*%
%TO.N,VIN_BRIDGE*%
X151550000Y-102770000D03*
%TO.P,C38,2*%
%TO.N,Net-(C38-Pad2)*%
X149650000Y-102770000D03*
%TD*%
%TO.P,C6,1*%
%TO.N,VIN_BRIDGE*%
X132900000Y-100660000D03*
%TO.P,C6,2*%
%TO.N,Net-(C6-Pad2)*%
X131000000Y-100660000D03*
%TD*%
%TO.P,C5,1*%
%TO.N,Net-(C4-Pad2)*%
X132900000Y-102710000D03*
%TO.P,C5,2*%
%TO.N,GND*%
X131000000Y-102710000D03*
%TD*%
%TO.P,C23,1*%
%TO.N,VIN_BL*%
X155000000Y-118920000D03*
%TO.P,C23,2*%
%TO.N,GND*%
X153100000Y-118920000D03*
%TD*%
%TO.P,C3,1*%
%TO.N,Net-(C2-Pad2)*%
X132900000Y-106710000D03*
%TO.P,C3,2*%
%TO.N,GND*%
X131000000Y-106710000D03*
%TD*%
%TO.P,C12,1*%
%TO.N,VIN_BRIDGE*%
X132850000Y-112710000D03*
%TO.P,C12,2*%
%TO.N,Net-(C12-Pad2)*%
X130950000Y-112710000D03*
%TD*%
%TO.P,C1,1*%
%TO.N,VIN_BL*%
X132900000Y-110710000D03*
%TO.P,C1,2*%
%TO.N,GND*%
X131000000Y-110710000D03*
%TD*%
%TO.P,C20,1*%
%TO.N,VIN_BRIDGE*%
X129350000Y-118860000D03*
%TO.P,C20,2*%
%TO.N,Net-(C20-Pad2)*%
X127450000Y-118860000D03*
%TD*%
D12*
%TO.P,Q2,1,S*%
%TO.N,GND*%
X134600000Y-111215000D03*
%TO.P,Q2,2,S*%
X134600000Y-112485000D03*
%TO.P,Q2,3,S*%
X134600000Y-113755000D03*
%TO.P,Q2,4,G*%
%TO.N,Net-(Q2-G)*%
X134600000Y-115025000D03*
D13*
%TO.P,Q2,5,D*%
%TO.N,/Conn1/HalfBridge/OUT*%
X138550000Y-113120000D03*
%TD*%
D15*
%TO.P,D3,1,K*%
%TO.N,/Conn1/HalfBridge/OUT*%
X139400000Y-117810000D03*
%TO.P,D3,2,A*%
%TO.N,GND*%
X135400000Y-117810000D03*
%TD*%
D10*
%TO.P,C16,1*%
%TO.N,VIN_BRIDGE*%
X129450000Y-102710000D03*
%TO.P,C16,2*%
%TO.N,Net-(C16-Pad2)*%
X127550000Y-102710000D03*
%TD*%
D14*
%TO.P,D5,1,K*%
%TO.N,VIN_BRIDGE*%
X142900000Y-117570000D03*
%TO.P,D5,2,A*%
%TO.N,/Conn1/HalfBridge1/OUT*%
X146900000Y-117570000D03*
%TD*%
D16*
%TO.P,Q3,1,S*%
%TO.N,/Conn1/HalfBridge1/OUT*%
X147800000Y-114740000D03*
%TO.P,Q3,2,S*%
X147800000Y-113470000D03*
%TO.P,Q3,3,S*%
X147800000Y-112200000D03*
%TO.P,Q3,4,G*%
%TO.N,Net-(Q3-G)*%
X147800000Y-110930000D03*
D13*
%TO.P,Q3,5,D*%
%TO.N,VIN_BRIDGE*%
X143850000Y-112835000D03*
%TD*%
D16*
%TO.P,Q4,1,S*%
%TO.N,GND*%
X147800000Y-108370000D03*
%TO.P,Q4,2,S*%
X147800000Y-107100000D03*
%TO.P,Q4,3,S*%
X147800000Y-105830000D03*
%TO.P,Q4,4,G*%
%TO.N,Net-(Q4-G)*%
X147800000Y-104560000D03*
D13*
%TO.P,Q4,5,D*%
%TO.N,/Conn1/HalfBridge1/OUT*%
X143850000Y-106465000D03*
%TD*%
D11*
%TO.P,R9,1*%
%TO.N,/Conn1/Bridge_IN2*%
X142950000Y-121770000D03*
%TO.P,R9,2*%
%TO.N,Net-(U2-IN)*%
X142950000Y-122770000D03*
%TD*%
D15*
%TO.P,D2,1,K*%
%TO.N,VIN_BRIDGE*%
X139400000Y-101710000D03*
%TO.P,D2,2,A*%
%TO.N,/Conn1/HalfBridge/OUT*%
X135400000Y-101710000D03*
%TD*%
D10*
%TO.P,C41,1*%
%TO.N,Net-(C40-Pad2)*%
X151600000Y-118920000D03*
%TO.P,C41,2*%
%TO.N,GND*%
X149700000Y-118920000D03*
%TD*%
%TO.P,C30,1*%
%TO.N,VIN_BRIDGE*%
X154950000Y-110770000D03*
%TO.P,C30,2*%
%TO.N,Net-(C30-Pad2)*%
X153050000Y-110770000D03*
%TD*%
%TO.P,C24,1*%
%TO.N,VIN_BRIDGE*%
X155000000Y-120970000D03*
%TO.P,C24,2*%
%TO.N,Net-(C24-Pad2)*%
X153100000Y-120970000D03*
%TD*%
%TO.P,C36,1*%
%TO.N,VIN_BRIDGE*%
X151550000Y-106770000D03*
%TO.P,C36,2*%
%TO.N,Net-(C36-Pad2)*%
X149650000Y-106770000D03*
%TD*%
%TO.P,C28,1*%
%TO.N,VIN_BRIDGE*%
X155000000Y-112870000D03*
%TO.P,C28,2*%
%TO.N,Net-(C28-Pad2)*%
X153100000Y-112870000D03*
%TD*%
%TO.P,C33,1*%
%TO.N,Net-(C32-Pad2)*%
X154950000Y-104770000D03*
%TO.P,C33,2*%
%TO.N,GND*%
X153050000Y-104770000D03*
%TD*%
%TO.P,C2,1*%
%TO.N,VIN_BRIDGE*%
X132900000Y-108710000D03*
%TO.P,C2,2*%
%TO.N,Net-(C2-Pad2)*%
X131000000Y-108710000D03*
%TD*%
%TO.P,C19,1*%
%TO.N,Net-(C18-Pad2)*%
X129350000Y-120810000D03*
%TO.P,C19,2*%
%TO.N,GND*%
X127450000Y-120810000D03*
%TD*%
%TO.P,C17,1*%
%TO.N,Net-(C16-Pad2)*%
X129500000Y-100660000D03*
%TO.P,C17,2*%
%TO.N,GND*%
X127600000Y-100660000D03*
%TD*%
%TO.P,C25,1*%
%TO.N,Net-(C24-Pad2)*%
X151600000Y-112870000D03*
%TO.P,C25,2*%
%TO.N,GND*%
X149700000Y-112870000D03*
%TD*%
%TO.P,C15,1*%
%TO.N,Net-(C14-Pad2)*%
X129450000Y-108810000D03*
%TO.P,C15,2*%
%TO.N,GND*%
X127550000Y-108810000D03*
%TD*%
%TO.P,C35,1*%
%TO.N,Net-(C34-Pad2)*%
X151600000Y-120970000D03*
%TO.P,C35,2*%
%TO.N,GND*%
X149700000Y-120970000D03*
%TD*%
%TO.P,C22,1*%
%TO.N,Net-(U1-VB)*%
X129450000Y-114810000D03*
%TO.P,C22,2*%
%TO.N,/Conn1/HalfBridge/OUT*%
X127550000Y-114810000D03*
%TD*%
%TO.P,C13,1*%
%TO.N,Net-(C12-Pad2)*%
X129450000Y-112810000D03*
%TO.P,C13,2*%
%TO.N,GND*%
X127550000Y-112810000D03*
%TD*%
D15*
%TO.P,D4,1,K*%
%TO.N,Net-(D4-K)*%
X147300000Y-97170000D03*
%TO.P,D4,2,A*%
%TO.N,VIN_BL*%
X143300000Y-97170000D03*
%TD*%
D10*
%TO.P,C32,1*%
%TO.N,VIN_BRIDGE*%
X122650000Y-136370000D03*
%TO.P,C32,2*%
%TO.N,Net-(C32-Pad2)*%
X120750000Y-136370000D03*
%TD*%
D11*
%TO.P,R11,1*%
%TO.N,Net-(U2-HO)*%
X106950000Y-151370000D03*
%TO.P,R11,2*%
%TO.N,Net-(Q3-G)*%
X106950000Y-152370000D03*
%TD*%
D10*
%TO.P,C39,1*%
%TO.N,Net-(C38-Pad2)*%
X119250000Y-130370000D03*
%TO.P,C39,2*%
%TO.N,GND*%
X117350000Y-130370000D03*
%TD*%
D12*
%TO.P,Q1,1,S*%
%TO.N,/Conn1/HalfBridge/OUT*%
X102300000Y-134105000D03*
%TO.P,Q1,2,S*%
X102300000Y-135375000D03*
%TO.P,Q1,3,S*%
X102300000Y-136645000D03*
%TO.P,Q1,4,G*%
%TO.N,Net-(Q1-G)*%
X102300000Y-137915000D03*
D13*
%TO.P,Q1,5,D*%
%TO.N,VIN_BRIDGE*%
X106250000Y-136010000D03*
%TD*%
D10*
%TO.P,C21,1*%
%TO.N,Net-(C20-Pad2)*%
X97050000Y-146410000D03*
%TO.P,C21,2*%
%TO.N,GND*%
X95150000Y-146410000D03*
%TD*%
D11*
%TO.P,R8,1*%
%TO.N,VIN_BL*%
X112500000Y-151370000D03*
%TO.P,R8,2*%
%TO.N,Net-(U2-EN)*%
X112500000Y-152370000D03*
%TD*%
D10*
%TO.P,C29,1*%
%TO.N,Net-(C28-Pad2)*%
X122700000Y-146420000D03*
%TO.P,C29,2*%
%TO.N,GND*%
X120800000Y-146420000D03*
%TD*%
%TO.P,C8,1*%
%TO.N,VIN_BRIDGE*%
X97150000Y-134360000D03*
%TO.P,C8,2*%
%TO.N,Net-(C8-Pad2)*%
X95250000Y-134360000D03*
%TD*%
D11*
%TO.P,R10,1*%
%TO.N,GND*%
X108800000Y-151370000D03*
%TO.P,R10,2*%
%TO.N,Net-(U2-DT)*%
X108800000Y-152370000D03*
%TD*%
D10*
%TO.P,C37,1*%
%TO.N,Net-(C36-Pad2)*%
X119250000Y-134370000D03*
%TO.P,C37,2*%
%TO.N,GND*%
X117350000Y-134370000D03*
%TD*%
%TO.P,C18,1*%
%TO.N,VIN_BRIDGE*%
X100500000Y-150460000D03*
%TO.P,C18,2*%
%TO.N,Net-(C18-Pad2)*%
X98600000Y-150460000D03*
%TD*%
D14*
%TO.P,D6,1,K*%
%TO.N,/Conn1/HalfBridge1/OUT*%
X110700000Y-131070000D03*
%TO.P,D6,2,A*%
%TO.N,GND*%
X114700000Y-131070000D03*
%TD*%
D10*
%TO.P,C40,1*%
%TO.N,VIN_BRIDGE*%
X122650000Y-130370000D03*
%TO.P,C40,2*%
%TO.N,Net-(C40-Pad2)*%
X120750000Y-130370000D03*
%TD*%
%TO.P,C4,1*%
%TO.N,VIN_BRIDGE*%
X100600000Y-134310000D03*
%TO.P,C4,2*%
%TO.N,Net-(C4-Pad2)*%
X98700000Y-134310000D03*
%TD*%
D11*
%TO.P,R12,1*%
%TO.N,unconnected-(R12-Pad1)*%
X105100000Y-151370000D03*
%TO.P,R12,2*%
%TO.N,Net-(Q4-G)*%
X105100000Y-152370000D03*
%TD*%
D10*
%TO.P,C26,1*%
%TO.N,VIN_BRIDGE*%
X122700000Y-144470000D03*
%TO.P,C26,2*%
%TO.N,Net-(C26-Pad2)*%
X120800000Y-144470000D03*
%TD*%
%TO.P,C9,1*%
%TO.N,Net-(C8-Pad2)*%
X100550000Y-148410000D03*
%TO.P,C9,2*%
%TO.N,GND*%
X98650000Y-148410000D03*
%TD*%
%TO.P,C27,1*%
%TO.N,Net-(C26-Pad2)*%
X119300000Y-144470000D03*
%TO.P,C27,2*%
%TO.N,GND*%
X117400000Y-144470000D03*
%TD*%
%TO.P,C34,1*%
%TO.N,VIN_BRIDGE*%
X122650000Y-132370000D03*
%TO.P,C34,2*%
%TO.N,Net-(C34-Pad2)*%
X120750000Y-132370000D03*
%TD*%
%TO.P,C42,1*%
%TO.N,VIN_BRIDGE*%
X119300000Y-146470000D03*
%TO.P,C42,2*%
%TO.N,Net-(C42-Pad2)*%
X117400000Y-146470000D03*
%TD*%
%TO.P,C43,1*%
%TO.N,Net-(C42-Pad2)*%
X119250000Y-140370000D03*
%TO.P,C43,2*%
%TO.N,GND*%
X117350000Y-140370000D03*
%TD*%
%TO.P,C44,1*%
%TO.N,Net-(U2-VB)*%
X119250000Y-138370000D03*
%TO.P,C44,2*%
%TO.N,/Conn1/HalfBridge1/OUT*%
X117350000Y-138370000D03*
%TD*%
%TO.P,C11,1*%
%TO.N,Net-(C10-Pad2)*%
X100550000Y-144310000D03*
%TO.P,C11,2*%
%TO.N,GND*%
X98650000Y-144310000D03*
%TD*%
%TO.P,C10,1*%
%TO.N,VIN_BRIDGE*%
X100550000Y-146410000D03*
%TO.P,C10,2*%
%TO.N,Net-(C10-Pad2)*%
X98650000Y-146410000D03*
%TD*%
%TO.P,C31,1*%
%TO.N,Net-(C30-Pad2)*%
X122650000Y-138370000D03*
%TO.P,C31,2*%
%TO.N,GND*%
X120750000Y-138370000D03*
%TD*%
%TO.P,C14,1*%
%TO.N,VIN_BRIDGE*%
X97150000Y-140410000D03*
%TO.P,C14,2*%
%TO.N,Net-(C14-Pad2)*%
X95250000Y-140410000D03*
%TD*%
%TO.P,C7,1*%
%TO.N,Net-(C6-Pad2)*%
X97150000Y-136410000D03*
%TO.P,C7,2*%
%TO.N,GND*%
X95250000Y-136410000D03*
%TD*%
%TO.P,C38,1*%
%TO.N,VIN_BRIDGE*%
X119250000Y-132370000D03*
%TO.P,C38,2*%
%TO.N,Net-(C38-Pad2)*%
X117350000Y-132370000D03*
%TD*%
%TO.P,C6,1*%
%TO.N,VIN_BRIDGE*%
X100600000Y-130260000D03*
%TO.P,C6,2*%
%TO.N,Net-(C6-Pad2)*%
X98700000Y-130260000D03*
%TD*%
%TO.P,C5,1*%
%TO.N,Net-(C4-Pad2)*%
X100600000Y-132310000D03*
%TO.P,C5,2*%
%TO.N,GND*%
X98700000Y-132310000D03*
%TD*%
%TO.P,C23,1*%
%TO.N,VIN_BL*%
X122700000Y-148520000D03*
%TO.P,C23,2*%
%TO.N,GND*%
X120800000Y-148520000D03*
%TD*%
%TO.P,C3,1*%
%TO.N,Net-(C2-Pad2)*%
X100600000Y-136310000D03*
%TO.P,C3,2*%
%TO.N,GND*%
X98700000Y-136310000D03*
%TD*%
%TO.P,C12,1*%
%TO.N,VIN_BRIDGE*%
X100550000Y-142310000D03*
%TO.P,C12,2*%
%TO.N,Net-(C12-Pad2)*%
X98650000Y-142310000D03*
%TD*%
%TO.P,C1,1*%
%TO.N,VIN_BL*%
X100600000Y-140310000D03*
%TO.P,C1,2*%
%TO.N,GND*%
X98700000Y-140310000D03*
%TD*%
%TO.P,C20,1*%
%TO.N,VIN_BRIDGE*%
X97050000Y-148460000D03*
%TO.P,C20,2*%
%TO.N,Net-(C20-Pad2)*%
X95150000Y-148460000D03*
%TD*%
D12*
%TO.P,Q2,1,S*%
%TO.N,GND*%
X102300000Y-140815000D03*
%TO.P,Q2,2,S*%
X102300000Y-142085000D03*
%TO.P,Q2,3,S*%
X102300000Y-143355000D03*
%TO.P,Q2,4,G*%
%TO.N,Net-(Q2-G)*%
X102300000Y-144625000D03*
D13*
%TO.P,Q2,5,D*%
%TO.N,/Conn1/HalfBridge/OUT*%
X106250000Y-142720000D03*
%TD*%
D15*
%TO.P,D3,1,K*%
%TO.N,/Conn1/HalfBridge/OUT*%
X107100000Y-147410000D03*
%TO.P,D3,2,A*%
%TO.N,GND*%
X103100000Y-147410000D03*
%TD*%
D10*
%TO.P,C16,1*%
%TO.N,VIN_BRIDGE*%
X97150000Y-132310000D03*
%TO.P,C16,2*%
%TO.N,Net-(C16-Pad2)*%
X95250000Y-132310000D03*
%TD*%
D14*
%TO.P,D5,1,K*%
%TO.N,VIN_BRIDGE*%
X110600000Y-147170000D03*
%TO.P,D5,2,A*%
%TO.N,/Conn1/HalfBridge1/OUT*%
X114600000Y-147170000D03*
%TD*%
D16*
%TO.P,Q3,1,S*%
%TO.N,/Conn1/HalfBridge1/OUT*%
X115500000Y-144340000D03*
%TO.P,Q3,2,S*%
X115500000Y-143070000D03*
%TO.P,Q3,3,S*%
X115500000Y-141800000D03*
%TO.P,Q3,4,G*%
%TO.N,Net-(Q3-G)*%
X115500000Y-140530000D03*
D13*
%TO.P,Q3,5,D*%
%TO.N,VIN_BRIDGE*%
X111550000Y-142435000D03*
%TD*%
D16*
%TO.P,Q4,1,S*%
%TO.N,GND*%
X115500000Y-137970000D03*
%TO.P,Q4,2,S*%
X115500000Y-136700000D03*
%TO.P,Q4,3,S*%
X115500000Y-135430000D03*
%TO.P,Q4,4,G*%
%TO.N,Net-(Q4-G)*%
X115500000Y-134160000D03*
D13*
%TO.P,Q4,5,D*%
%TO.N,/Conn1/HalfBridge1/OUT*%
X111550000Y-136065000D03*
%TD*%
D11*
%TO.P,R9,1*%
%TO.N,/Conn1/Bridge_IN2*%
X110650000Y-151370000D03*
%TO.P,R9,2*%
%TO.N,Net-(U2-IN)*%
X110650000Y-152370000D03*
%TD*%
D15*
%TO.P,D2,1,K*%
%TO.N,VIN_BRIDGE*%
X107100000Y-131310000D03*
%TO.P,D2,2,A*%
%TO.N,/Conn1/HalfBridge/OUT*%
X103100000Y-131310000D03*
%TD*%
D10*
%TO.P,C41,1*%
%TO.N,Net-(C40-Pad2)*%
X119300000Y-148520000D03*
%TO.P,C41,2*%
%TO.N,GND*%
X117400000Y-148520000D03*
%TD*%
%TO.P,C30,1*%
%TO.N,VIN_BRIDGE*%
X122650000Y-140370000D03*
%TO.P,C30,2*%
%TO.N,Net-(C30-Pad2)*%
X120750000Y-140370000D03*
%TD*%
%TO.P,C24,1*%
%TO.N,VIN_BRIDGE*%
X122700000Y-150570000D03*
%TO.P,C24,2*%
%TO.N,Net-(C24-Pad2)*%
X120800000Y-150570000D03*
%TD*%
%TO.P,C36,1*%
%TO.N,VIN_BRIDGE*%
X119250000Y-136370000D03*
%TO.P,C36,2*%
%TO.N,Net-(C36-Pad2)*%
X117350000Y-136370000D03*
%TD*%
%TO.P,C28,1*%
%TO.N,VIN_BRIDGE*%
X122700000Y-142470000D03*
%TO.P,C28,2*%
%TO.N,Net-(C28-Pad2)*%
X120800000Y-142470000D03*
%TD*%
%TO.P,C33,1*%
%TO.N,Net-(C32-Pad2)*%
X122650000Y-134370000D03*
%TO.P,C33,2*%
%TO.N,GND*%
X120750000Y-134370000D03*
%TD*%
%TO.P,C2,1*%
%TO.N,VIN_BRIDGE*%
X100600000Y-138310000D03*
%TO.P,C2,2*%
%TO.N,Net-(C2-Pad2)*%
X98700000Y-138310000D03*
%TD*%
%TO.P,C19,1*%
%TO.N,Net-(C18-Pad2)*%
X97050000Y-150410000D03*
%TO.P,C19,2*%
%TO.N,GND*%
X95150000Y-150410000D03*
%TD*%
%TO.P,C17,1*%
%TO.N,Net-(C16-Pad2)*%
X97200000Y-130260000D03*
%TO.P,C17,2*%
%TO.N,GND*%
X95300000Y-130260000D03*
%TD*%
%TO.P,C25,1*%
%TO.N,Net-(C24-Pad2)*%
X119300000Y-142470000D03*
%TO.P,C25,2*%
%TO.N,GND*%
X117400000Y-142470000D03*
%TD*%
%TO.P,C15,1*%
%TO.N,Net-(C14-Pad2)*%
X97150000Y-138410000D03*
%TO.P,C15,2*%
%TO.N,GND*%
X95250000Y-138410000D03*
%TD*%
%TO.P,C35,1*%
%TO.N,Net-(C34-Pad2)*%
X119300000Y-150570000D03*
%TO.P,C35,2*%
%TO.N,GND*%
X117400000Y-150570000D03*
%TD*%
%TO.P,C22,1*%
%TO.N,Net-(U1-VB)*%
X97150000Y-144410000D03*
%TO.P,C22,2*%
%TO.N,/Conn1/HalfBridge/OUT*%
X95250000Y-144410000D03*
%TD*%
%TO.P,C13,1*%
%TO.N,Net-(C12-Pad2)*%
X97150000Y-142410000D03*
%TO.P,C13,2*%
%TO.N,GND*%
X95250000Y-142410000D03*
%TD*%
D15*
%TO.P,D4,1,K*%
%TO.N,Net-(D4-K)*%
X115000000Y-126770000D03*
%TO.P,D4,2,A*%
%TO.N,VIN_BL*%
X111000000Y-126770000D03*
%TD*%
D10*
%TO.P,C32,1*%
%TO.N,VIN_BRIDGE*%
X122750000Y-106870000D03*
%TO.P,C32,2*%
%TO.N,Net-(C32-Pad2)*%
X120850000Y-106870000D03*
%TD*%
D11*
%TO.P,R11,1*%
%TO.N,Net-(U2-HO)*%
X107050000Y-121870000D03*
%TO.P,R11,2*%
%TO.N,Net-(Q3-G)*%
X107050000Y-122870000D03*
%TD*%
D10*
%TO.P,C39,1*%
%TO.N,Net-(C38-Pad2)*%
X119350000Y-100870000D03*
%TO.P,C39,2*%
%TO.N,GND*%
X117450000Y-100870000D03*
%TD*%
D12*
%TO.P,Q1,1,S*%
%TO.N,/Conn1/HalfBridge/OUT*%
X102400000Y-104605000D03*
%TO.P,Q1,2,S*%
X102400000Y-105875000D03*
%TO.P,Q1,3,S*%
X102400000Y-107145000D03*
%TO.P,Q1,4,G*%
%TO.N,Net-(Q1-G)*%
X102400000Y-108415000D03*
D13*
%TO.P,Q1,5,D*%
%TO.N,VIN_BRIDGE*%
X106350000Y-106510000D03*
%TD*%
D11*
%TO.P,R8,1*%
%TO.N,VIN_BL*%
X112600000Y-121870000D03*
%TO.P,R8,2*%
%TO.N,Net-(U2-EN)*%
X112600000Y-122870000D03*
%TD*%
D10*
%TO.P,C29,1*%
%TO.N,Net-(C28-Pad2)*%
X122800000Y-116920000D03*
%TO.P,C29,2*%
%TO.N,GND*%
X120900000Y-116920000D03*
%TD*%
D11*
%TO.P,R10,1*%
%TO.N,GND*%
X108900000Y-121870000D03*
%TO.P,R10,2*%
%TO.N,Net-(U2-DT)*%
X108900000Y-122870000D03*
%TD*%
D10*
%TO.P,C37,1*%
%TO.N,Net-(C36-Pad2)*%
X119350000Y-104870000D03*
%TO.P,C37,2*%
%TO.N,GND*%
X117450000Y-104870000D03*
%TD*%
D14*
%TO.P,D6,1,K*%
%TO.N,/Conn1/HalfBridge1/OUT*%
X110800000Y-101570000D03*
%TO.P,D6,2,A*%
%TO.N,GND*%
X114800000Y-101570000D03*
%TD*%
D10*
%TO.P,C40,1*%
%TO.N,VIN_BRIDGE*%
X122750000Y-100870000D03*
%TO.P,C40,2*%
%TO.N,Net-(C40-Pad2)*%
X120850000Y-100870000D03*
%TD*%
D11*
%TO.P,R12,1*%
%TO.N,unconnected-(R12-Pad1)*%
X105200000Y-121870000D03*
%TO.P,R12,2*%
%TO.N,Net-(Q4-G)*%
X105200000Y-122870000D03*
%TD*%
D10*
%TO.P,C26,1*%
%TO.N,VIN_BRIDGE*%
X122800000Y-114970000D03*
%TO.P,C26,2*%
%TO.N,Net-(C26-Pad2)*%
X120900000Y-114970000D03*
%TD*%
%TO.P,C27,1*%
%TO.N,Net-(C26-Pad2)*%
X119400000Y-114970000D03*
%TO.P,C27,2*%
%TO.N,GND*%
X117500000Y-114970000D03*
%TD*%
%TO.P,C34,1*%
%TO.N,VIN_BRIDGE*%
X122750000Y-102870000D03*
%TO.P,C34,2*%
%TO.N,Net-(C34-Pad2)*%
X120850000Y-102870000D03*
%TD*%
%TO.P,C42,1*%
%TO.N,VIN_BRIDGE*%
X119400000Y-116970000D03*
%TO.P,C42,2*%
%TO.N,Net-(C42-Pad2)*%
X117500000Y-116970000D03*
%TD*%
%TO.P,C43,1*%
%TO.N,Net-(C42-Pad2)*%
X119350000Y-110870000D03*
%TO.P,C43,2*%
%TO.N,GND*%
X117450000Y-110870000D03*
%TD*%
%TO.P,C44,1*%
%TO.N,Net-(U2-VB)*%
X119350000Y-108870000D03*
%TO.P,C44,2*%
%TO.N,/Conn1/HalfBridge1/OUT*%
X117450000Y-108870000D03*
%TD*%
%TO.P,C31,1*%
%TO.N,Net-(C30-Pad2)*%
X122750000Y-108870000D03*
%TO.P,C31,2*%
%TO.N,GND*%
X120850000Y-108870000D03*
%TD*%
%TO.P,C38,1*%
%TO.N,VIN_BRIDGE*%
X119350000Y-102870000D03*
%TO.P,C38,2*%
%TO.N,Net-(C38-Pad2)*%
X117450000Y-102870000D03*
%TD*%
%TO.P,C23,1*%
%TO.N,VIN_BL*%
X122800000Y-119020000D03*
%TO.P,C23,2*%
%TO.N,GND*%
X120900000Y-119020000D03*
%TD*%
D12*
%TO.P,Q2,1,S*%
%TO.N,GND*%
X102400000Y-111315000D03*
%TO.P,Q2,2,S*%
X102400000Y-112585000D03*
%TO.P,Q2,3,S*%
X102400000Y-113855000D03*
%TO.P,Q2,4,G*%
%TO.N,Net-(Q2-G)*%
X102400000Y-115125000D03*
D13*
%TO.P,Q2,5,D*%
%TO.N,/Conn1/HalfBridge/OUT*%
X106350000Y-113220000D03*
%TD*%
D15*
%TO.P,D3,1,K*%
%TO.N,/Conn1/HalfBridge/OUT*%
X107200000Y-117910000D03*
%TO.P,D3,2,A*%
%TO.N,GND*%
X103200000Y-117910000D03*
%TD*%
D14*
%TO.P,D5,1,K*%
%TO.N,VIN_BRIDGE*%
X110700000Y-117670000D03*
%TO.P,D5,2,A*%
%TO.N,/Conn1/HalfBridge1/OUT*%
X114700000Y-117670000D03*
%TD*%
D16*
%TO.P,Q3,1,S*%
%TO.N,/Conn1/HalfBridge1/OUT*%
X115600000Y-114840000D03*
%TO.P,Q3,2,S*%
X115600000Y-113570000D03*
%TO.P,Q3,3,S*%
X115600000Y-112300000D03*
%TO.P,Q3,4,G*%
%TO.N,Net-(Q3-G)*%
X115600000Y-111030000D03*
D13*
%TO.P,Q3,5,D*%
%TO.N,VIN_BRIDGE*%
X111650000Y-112935000D03*
%TD*%
D16*
%TO.P,Q4,1,S*%
%TO.N,GND*%
X115600000Y-108470000D03*
%TO.P,Q4,2,S*%
X115600000Y-107200000D03*
%TO.P,Q4,3,S*%
X115600000Y-105930000D03*
%TO.P,Q4,4,G*%
%TO.N,Net-(Q4-G)*%
X115600000Y-104660000D03*
D13*
%TO.P,Q4,5,D*%
%TO.N,/Conn1/HalfBridge1/OUT*%
X111650000Y-106565000D03*
%TD*%
D11*
%TO.P,R9,1*%
%TO.N,/Conn1/Bridge_IN2*%
X110750000Y-121870000D03*
%TO.P,R9,2*%
%TO.N,Net-(U2-IN)*%
X110750000Y-122870000D03*
%TD*%
D15*
%TO.P,D2,1,K*%
%TO.N,VIN_BRIDGE*%
X107200000Y-101810000D03*
%TO.P,D2,2,A*%
%TO.N,/Conn1/HalfBridge/OUT*%
X103200000Y-101810000D03*
%TD*%
D10*
%TO.P,C41,1*%
%TO.N,Net-(C40-Pad2)*%
X119400000Y-119020000D03*
%TO.P,C41,2*%
%TO.N,GND*%
X117500000Y-119020000D03*
%TD*%
%TO.P,C30,1*%
%TO.N,VIN_BRIDGE*%
X122750000Y-110870000D03*
%TO.P,C30,2*%
%TO.N,Net-(C30-Pad2)*%
X120850000Y-110870000D03*
%TD*%
%TO.P,C24,1*%
%TO.N,VIN_BRIDGE*%
X122800000Y-121070000D03*
%TO.P,C24,2*%
%TO.N,Net-(C24-Pad2)*%
X120900000Y-121070000D03*
%TD*%
%TO.P,C36,1*%
%TO.N,VIN_BRIDGE*%
X119350000Y-106870000D03*
%TO.P,C36,2*%
%TO.N,Net-(C36-Pad2)*%
X117450000Y-106870000D03*
%TD*%
%TO.P,C28,1*%
%TO.N,VIN_BRIDGE*%
X122800000Y-112970000D03*
%TO.P,C28,2*%
%TO.N,Net-(C28-Pad2)*%
X120900000Y-112970000D03*
%TD*%
%TO.P,C33,1*%
%TO.N,Net-(C32-Pad2)*%
X122750000Y-104870000D03*
%TO.P,C33,2*%
%TO.N,GND*%
X120850000Y-104870000D03*
%TD*%
%TO.P,C25,1*%
%TO.N,Net-(C24-Pad2)*%
X119400000Y-112970000D03*
%TO.P,C25,2*%
%TO.N,GND*%
X117500000Y-112970000D03*
%TD*%
%TO.P,C35,1*%
%TO.N,Net-(C34-Pad2)*%
X119400000Y-121070000D03*
%TO.P,C35,2*%
%TO.N,GND*%
X117500000Y-121070000D03*
%TD*%
D15*
%TO.P,D4,1,K*%
%TO.N,Net-(D4-K)*%
X115100000Y-97270000D03*
%TO.P,D4,2,A*%
%TO.N,VIN_BL*%
X111100000Y-97270000D03*
%TD*%
D10*
%TO.P,C32,1*%
%TO.N,VIN_BRIDGE*%
X91450000Y-107070000D03*
%TO.P,C32,2*%
%TO.N,Net-(C32-Pad2)*%
X89550000Y-107070000D03*
%TD*%
D11*
%TO.P,R11,1*%
%TO.N,Net-(U2-HO)*%
X75750000Y-122070000D03*
%TO.P,R11,2*%
%TO.N,Net-(Q3-G)*%
X75750000Y-123070000D03*
%TD*%
D10*
%TO.P,C39,1*%
%TO.N,Net-(C38-Pad2)*%
X88050000Y-101070000D03*
%TO.P,C39,2*%
%TO.N,GND*%
X86150000Y-101070000D03*
%TD*%
D12*
%TO.P,Q1,1,S*%
%TO.N,/Conn1/HalfBridge/OUT*%
X71100000Y-104805000D03*
%TO.P,Q1,2,S*%
X71100000Y-106075000D03*
%TO.P,Q1,3,S*%
X71100000Y-107345000D03*
%TO.P,Q1,4,G*%
%TO.N,Net-(Q1-G)*%
X71100000Y-108615000D03*
D13*
%TO.P,Q1,5,D*%
%TO.N,VIN_BRIDGE*%
X75050000Y-106710000D03*
%TD*%
D10*
%TO.P,C21,1*%
%TO.N,Net-(C20-Pad2)*%
X65850000Y-117110000D03*
%TO.P,C21,2*%
%TO.N,GND*%
X63950000Y-117110000D03*
%TD*%
D11*
%TO.P,R8,1*%
%TO.N,VIN_BL*%
X81300000Y-122070000D03*
%TO.P,R8,2*%
%TO.N,Net-(U2-EN)*%
X81300000Y-123070000D03*
%TD*%
D10*
%TO.P,C29,1*%
%TO.N,Net-(C28-Pad2)*%
X91500000Y-117120000D03*
%TO.P,C29,2*%
%TO.N,GND*%
X89600000Y-117120000D03*
%TD*%
%TO.P,C8,1*%
%TO.N,VIN_BRIDGE*%
X65950000Y-105060000D03*
%TO.P,C8,2*%
%TO.N,Net-(C8-Pad2)*%
X64050000Y-105060000D03*
%TD*%
D11*
%TO.P,R10,1*%
%TO.N,GND*%
X77600000Y-122070000D03*
%TO.P,R10,2*%
%TO.N,Net-(U2-DT)*%
X77600000Y-123070000D03*
%TD*%
D10*
%TO.P,C37,1*%
%TO.N,Net-(C36-Pad2)*%
X88050000Y-105070000D03*
%TO.P,C37,2*%
%TO.N,GND*%
X86150000Y-105070000D03*
%TD*%
%TO.P,C18,1*%
%TO.N,VIN_BRIDGE*%
X69300000Y-121160000D03*
%TO.P,C18,2*%
%TO.N,Net-(C18-Pad2)*%
X67400000Y-121160000D03*
%TD*%
D14*
%TO.P,D6,1,K*%
%TO.N,/Conn1/HalfBridge1/OUT*%
X79500000Y-101770000D03*
%TO.P,D6,2,A*%
%TO.N,GND*%
X83500000Y-101770000D03*
%TD*%
D10*
%TO.P,C40,1*%
%TO.N,VIN_BRIDGE*%
X91450000Y-101070000D03*
%TO.P,C40,2*%
%TO.N,Net-(C40-Pad2)*%
X89550000Y-101070000D03*
%TD*%
%TO.P,C4,1*%
%TO.N,VIN_BRIDGE*%
X69400000Y-105010000D03*
%TO.P,C4,2*%
%TO.N,Net-(C4-Pad2)*%
X67500000Y-105010000D03*
%TD*%
D11*
%TO.P,R12,1*%
%TO.N,unconnected-(R12-Pad1)*%
X73900000Y-122070000D03*
%TO.P,R12,2*%
%TO.N,Net-(Q4-G)*%
X73900000Y-123070000D03*
%TD*%
D10*
%TO.P,C26,1*%
%TO.N,VIN_BRIDGE*%
X91500000Y-115170000D03*
%TO.P,C26,2*%
%TO.N,Net-(C26-Pad2)*%
X89600000Y-115170000D03*
%TD*%
%TO.P,C9,1*%
%TO.N,Net-(C8-Pad2)*%
X69350000Y-119110000D03*
%TO.P,C9,2*%
%TO.N,GND*%
X67450000Y-119110000D03*
%TD*%
%TO.P,C27,1*%
%TO.N,Net-(C26-Pad2)*%
X88100000Y-115170000D03*
%TO.P,C27,2*%
%TO.N,GND*%
X86200000Y-115170000D03*
%TD*%
%TO.P,C34,1*%
%TO.N,VIN_BRIDGE*%
X91450000Y-103070000D03*
%TO.P,C34,2*%
%TO.N,Net-(C34-Pad2)*%
X89550000Y-103070000D03*
%TD*%
%TO.P,C42,1*%
%TO.N,VIN_BRIDGE*%
X88100000Y-117170000D03*
%TO.P,C42,2*%
%TO.N,Net-(C42-Pad2)*%
X86200000Y-117170000D03*
%TD*%
%TO.P,C43,1*%
%TO.N,Net-(C42-Pad2)*%
X88050000Y-111070000D03*
%TO.P,C43,2*%
%TO.N,GND*%
X86150000Y-111070000D03*
%TD*%
%TO.P,C44,1*%
%TO.N,Net-(U2-VB)*%
X88050000Y-109070000D03*
%TO.P,C44,2*%
%TO.N,/Conn1/HalfBridge1/OUT*%
X86150000Y-109070000D03*
%TD*%
%TO.P,C11,1*%
%TO.N,Net-(C10-Pad2)*%
X69350000Y-115010000D03*
%TO.P,C11,2*%
%TO.N,GND*%
X67450000Y-115010000D03*
%TD*%
%TO.P,C10,1*%
%TO.N,VIN_BRIDGE*%
X69350000Y-117110000D03*
%TO.P,C10,2*%
%TO.N,Net-(C10-Pad2)*%
X67450000Y-117110000D03*
%TD*%
%TO.P,C31,1*%
%TO.N,Net-(C30-Pad2)*%
X91450000Y-109070000D03*
%TO.P,C31,2*%
%TO.N,GND*%
X89550000Y-109070000D03*
%TD*%
%TO.P,C14,1*%
%TO.N,VIN_BRIDGE*%
X65950000Y-111110000D03*
%TO.P,C14,2*%
%TO.N,Net-(C14-Pad2)*%
X64050000Y-111110000D03*
%TD*%
%TO.P,C7,1*%
%TO.N,Net-(C6-Pad2)*%
X65950000Y-107110000D03*
%TO.P,C7,2*%
%TO.N,GND*%
X64050000Y-107110000D03*
%TD*%
%TO.P,C38,1*%
%TO.N,VIN_BRIDGE*%
X88050000Y-103070000D03*
%TO.P,C38,2*%
%TO.N,Net-(C38-Pad2)*%
X86150000Y-103070000D03*
%TD*%
%TO.P,C6,1*%
%TO.N,VIN_BRIDGE*%
X69400000Y-100960000D03*
%TO.P,C6,2*%
%TO.N,Net-(C6-Pad2)*%
X67500000Y-100960000D03*
%TD*%
%TO.P,C5,1*%
%TO.N,Net-(C4-Pad2)*%
X69400000Y-103010000D03*
%TO.P,C5,2*%
%TO.N,GND*%
X67500000Y-103010000D03*
%TD*%
%TO.P,C23,1*%
%TO.N,VIN_BL*%
X91500000Y-119220000D03*
%TO.P,C23,2*%
%TO.N,GND*%
X89600000Y-119220000D03*
%TD*%
%TO.P,C3,1*%
%TO.N,Net-(C2-Pad2)*%
X69400000Y-107010000D03*
%TO.P,C3,2*%
%TO.N,GND*%
X67500000Y-107010000D03*
%TD*%
%TO.P,C12,1*%
%TO.N,VIN_BRIDGE*%
X69350000Y-113010000D03*
%TO.P,C12,2*%
%TO.N,Net-(C12-Pad2)*%
X67450000Y-113010000D03*
%TD*%
%TO.P,C1,1*%
%TO.N,VIN_BL*%
X69400000Y-111010000D03*
%TO.P,C1,2*%
%TO.N,GND*%
X67500000Y-111010000D03*
%TD*%
%TO.P,C20,1*%
%TO.N,VIN_BRIDGE*%
X65850000Y-119160000D03*
%TO.P,C20,2*%
%TO.N,Net-(C20-Pad2)*%
X63950000Y-119160000D03*
%TD*%
D12*
%TO.P,Q2,1,S*%
%TO.N,GND*%
X71100000Y-111515000D03*
%TO.P,Q2,2,S*%
X71100000Y-112785000D03*
%TO.P,Q2,3,S*%
X71100000Y-114055000D03*
%TO.P,Q2,4,G*%
%TO.N,Net-(Q2-G)*%
X71100000Y-115325000D03*
D13*
%TO.P,Q2,5,D*%
%TO.N,/Conn1/HalfBridge/OUT*%
X75050000Y-113420000D03*
%TD*%
D15*
%TO.P,D3,1,K*%
%TO.N,/Conn1/HalfBridge/OUT*%
X75900000Y-118110000D03*
%TO.P,D3,2,A*%
%TO.N,GND*%
X71900000Y-118110000D03*
%TD*%
D10*
%TO.P,C16,1*%
%TO.N,VIN_BRIDGE*%
X65950000Y-103010000D03*
%TO.P,C16,2*%
%TO.N,Net-(C16-Pad2)*%
X64050000Y-103010000D03*
%TD*%
D14*
%TO.P,D5,1,K*%
%TO.N,VIN_BRIDGE*%
X79400000Y-117870000D03*
%TO.P,D5,2,A*%
%TO.N,/Conn1/HalfBridge1/OUT*%
X83400000Y-117870000D03*
%TD*%
D16*
%TO.P,Q3,1,S*%
%TO.N,/Conn1/HalfBridge1/OUT*%
X84300000Y-115040000D03*
%TO.P,Q3,2,S*%
X84300000Y-113770000D03*
%TO.P,Q3,3,S*%
X84300000Y-112500000D03*
%TO.P,Q3,4,G*%
%TO.N,Net-(Q3-G)*%
X84300000Y-111230000D03*
D13*
%TO.P,Q3,5,D*%
%TO.N,VIN_BRIDGE*%
X80350000Y-113135000D03*
%TD*%
D16*
%TO.P,Q4,1,S*%
%TO.N,GND*%
X84300000Y-108670000D03*
%TO.P,Q4,2,S*%
X84300000Y-107400000D03*
%TO.P,Q4,3,S*%
X84300000Y-106130000D03*
%TO.P,Q4,4,G*%
%TO.N,Net-(Q4-G)*%
X84300000Y-104860000D03*
D13*
%TO.P,Q4,5,D*%
%TO.N,/Conn1/HalfBridge1/OUT*%
X80350000Y-106765000D03*
%TD*%
D11*
%TO.P,R9,1*%
%TO.N,/Conn1/Bridge_IN2*%
X79450000Y-122070000D03*
%TO.P,R9,2*%
%TO.N,Net-(U2-IN)*%
X79450000Y-123070000D03*
%TD*%
D15*
%TO.P,D2,1,K*%
%TO.N,VIN_BRIDGE*%
X75900000Y-102010000D03*
%TO.P,D2,2,A*%
%TO.N,/Conn1/HalfBridge/OUT*%
X71900000Y-102010000D03*
%TD*%
D10*
%TO.P,C41,1*%
%TO.N,Net-(C40-Pad2)*%
X88100000Y-119220000D03*
%TO.P,C41,2*%
%TO.N,GND*%
X86200000Y-119220000D03*
%TD*%
%TO.P,C30,1*%
%TO.N,VIN_BRIDGE*%
X91450000Y-111070000D03*
%TO.P,C30,2*%
%TO.N,Net-(C30-Pad2)*%
X89550000Y-111070000D03*
%TD*%
%TO.P,C24,1*%
%TO.N,VIN_BRIDGE*%
X91500000Y-121270000D03*
%TO.P,C24,2*%
%TO.N,Net-(C24-Pad2)*%
X89600000Y-121270000D03*
%TD*%
%TO.P,C36,1*%
%TO.N,VIN_BRIDGE*%
X88050000Y-107070000D03*
%TO.P,C36,2*%
%TO.N,Net-(C36-Pad2)*%
X86150000Y-107070000D03*
%TD*%
%TO.P,C28,1*%
%TO.N,VIN_BRIDGE*%
X91500000Y-113170000D03*
%TO.P,C28,2*%
%TO.N,Net-(C28-Pad2)*%
X89600000Y-113170000D03*
%TD*%
%TO.P,C33,1*%
%TO.N,Net-(C32-Pad2)*%
X91450000Y-105070000D03*
%TO.P,C33,2*%
%TO.N,GND*%
X89550000Y-105070000D03*
%TD*%
%TO.P,C2,1*%
%TO.N,VIN_BRIDGE*%
X69400000Y-109010000D03*
%TO.P,C2,2*%
%TO.N,Net-(C2-Pad2)*%
X67500000Y-109010000D03*
%TD*%
%TO.P,C19,1*%
%TO.N,Net-(C18-Pad2)*%
X65850000Y-121110000D03*
%TO.P,C19,2*%
%TO.N,GND*%
X63950000Y-121110000D03*
%TD*%
%TO.P,C17,1*%
%TO.N,Net-(C16-Pad2)*%
X66000000Y-100960000D03*
%TO.P,C17,2*%
%TO.N,GND*%
X64100000Y-100960000D03*
%TD*%
%TO.P,C25,1*%
%TO.N,Net-(C24-Pad2)*%
X88100000Y-113170000D03*
%TO.P,C25,2*%
%TO.N,GND*%
X86200000Y-113170000D03*
%TD*%
%TO.P,C15,1*%
%TO.N,Net-(C14-Pad2)*%
X65950000Y-109110000D03*
%TO.P,C15,2*%
%TO.N,GND*%
X64050000Y-109110000D03*
%TD*%
%TO.P,C35,1*%
%TO.N,Net-(C34-Pad2)*%
X88100000Y-121270000D03*
%TO.P,C35,2*%
%TO.N,GND*%
X86200000Y-121270000D03*
%TD*%
%TO.P,C22,1*%
%TO.N,Net-(U1-VB)*%
X65950000Y-115110000D03*
%TO.P,C22,2*%
%TO.N,/Conn1/HalfBridge/OUT*%
X64050000Y-115110000D03*
%TD*%
%TO.P,C13,1*%
%TO.N,Net-(C12-Pad2)*%
X65950000Y-113110000D03*
%TO.P,C13,2*%
%TO.N,GND*%
X64050000Y-113110000D03*
%TD*%
D15*
%TO.P,D4,1,K*%
%TO.N,Net-(D4-K)*%
X83800000Y-97470000D03*
%TO.P,D4,2,A*%
%TO.N,VIN_BL*%
X79800000Y-97470000D03*
%TD*%
D11*
%TO.P,R11,1*%
%TO.N,Net-(U2-HO)*%
X76445000Y-151555000D03*
%TO.P,R11,2*%
%TO.N,Net-(Q3-G)*%
X76445000Y-152555000D03*
%TD*%
D10*
%TO.P,C32,1*%
%TO.N,VIN_BRIDGE*%
X92145000Y-136555000D03*
%TO.P,C32,2*%
%TO.N,Net-(C32-Pad2)*%
X90245000Y-136555000D03*
%TD*%
D14*
%TO.P,D5,1,K*%
%TO.N,VIN_BRIDGE*%
X80095000Y-147355000D03*
%TO.P,D5,2,A*%
%TO.N,/Conn1/HalfBridge1/OUT*%
X84095000Y-147355000D03*
%TD*%
D10*
%TO.P,C20,1*%
%TO.N,VIN_BRIDGE*%
X66545000Y-148645000D03*
%TO.P,C20,2*%
%TO.N,Net-(C20-Pad2)*%
X64645000Y-148645000D03*
%TD*%
D12*
%TO.P,Q2,1,S*%
%TO.N,GND*%
X71795000Y-141000000D03*
%TO.P,Q2,2,S*%
X71795000Y-142270000D03*
%TO.P,Q2,3,S*%
X71795000Y-143540000D03*
%TO.P,Q2,4,G*%
%TO.N,Net-(Q2-G)*%
X71795000Y-144810000D03*
D13*
%TO.P,Q2,5,D*%
%TO.N,/Conn1/HalfBridge/OUT*%
X75745000Y-142905000D03*
%TD*%
D10*
%TO.P,C1,1*%
%TO.N,VIN_BL*%
X70095000Y-140495000D03*
%TO.P,C1,2*%
%TO.N,GND*%
X68195000Y-140495000D03*
%TD*%
%TO.P,C16,1*%
%TO.N,VIN_BRIDGE*%
X66645000Y-132495000D03*
%TO.P,C16,2*%
%TO.N,Net-(C16-Pad2)*%
X64745000Y-132495000D03*
%TD*%
D15*
%TO.P,D3,1,K*%
%TO.N,/Conn1/HalfBridge/OUT*%
X76595000Y-147595000D03*
%TO.P,D3,2,A*%
%TO.N,GND*%
X72595000Y-147595000D03*
%TD*%
D10*
%TO.P,C15,1*%
%TO.N,Net-(C14-Pad2)*%
X66645000Y-138595000D03*
%TO.P,C15,2*%
%TO.N,GND*%
X64745000Y-138595000D03*
%TD*%
D15*
%TO.P,D4,1,K*%
%TO.N,Net-(D4-K)*%
X84495000Y-126955000D03*
%TO.P,D4,2,A*%
%TO.N,VIN_BL*%
X80495000Y-126955000D03*
%TD*%
D10*
%TO.P,C35,1*%
%TO.N,Net-(C34-Pad2)*%
X88795000Y-150755000D03*
%TO.P,C35,2*%
%TO.N,GND*%
X86895000Y-150755000D03*
%TD*%
%TO.P,C22,1*%
%TO.N,Net-(U1-VB)*%
X66645000Y-144595000D03*
%TO.P,C22,2*%
%TO.N,/Conn1/HalfBridge/OUT*%
X64745000Y-144595000D03*
%TD*%
%TO.P,C13,1*%
%TO.N,Net-(C12-Pad2)*%
X66645000Y-142595000D03*
%TO.P,C13,2*%
%TO.N,GND*%
X64745000Y-142595000D03*
%TD*%
%TO.P,C25,1*%
%TO.N,Net-(C24-Pad2)*%
X88795000Y-142655000D03*
%TO.P,C25,2*%
%TO.N,GND*%
X86895000Y-142655000D03*
%TD*%
%TO.P,C17,1*%
%TO.N,Net-(C16-Pad2)*%
X66695000Y-130445000D03*
%TO.P,C17,2*%
%TO.N,GND*%
X64795000Y-130445000D03*
%TD*%
%TO.P,C19,1*%
%TO.N,Net-(C18-Pad2)*%
X66545000Y-150595000D03*
%TO.P,C19,2*%
%TO.N,GND*%
X64645000Y-150595000D03*
%TD*%
%TO.P,C2,1*%
%TO.N,VIN_BRIDGE*%
X70095000Y-138495000D03*
%TO.P,C2,2*%
%TO.N,Net-(C2-Pad2)*%
X68195000Y-138495000D03*
%TD*%
%TO.P,C33,1*%
%TO.N,Net-(C32-Pad2)*%
X92145000Y-134555000D03*
%TO.P,C33,2*%
%TO.N,GND*%
X90245000Y-134555000D03*
%TD*%
%TO.P,C28,1*%
%TO.N,VIN_BRIDGE*%
X92195000Y-142655000D03*
%TO.P,C28,2*%
%TO.N,Net-(C28-Pad2)*%
X90295000Y-142655000D03*
%TD*%
D17*
%TO.P,J1,1,Pin_1*%
%TO.N,/Conn1/HalfBridge/OUT*%
X92550000Y-79450000D03*
D18*
%TO.P,J1,2,Pin_2*%
%TO.N,/Conn1/HalfBridge1/OUT*%
X95550000Y-79450000D03*
%TO.P,J1,3,Pin_3*%
%TO.N,Net-(J1-Pin_3)*%
X92550000Y-82450000D03*
%TO.P,J1,4,Pin_4*%
%TO.N,+5V*%
X95550000Y-82450000D03*
%TD*%
D10*
%TO.P,C24,1*%
%TO.N,VIN_BRIDGE*%
X92195000Y-150755000D03*
%TO.P,C24,2*%
%TO.N,Net-(C24-Pad2)*%
X90295000Y-150755000D03*
%TD*%
%TO.P,C36,1*%
%TO.N,VIN_BRIDGE*%
X88745000Y-136555000D03*
%TO.P,C36,2*%
%TO.N,Net-(C36-Pad2)*%
X86845000Y-136555000D03*
%TD*%
%TO.P,C30,1*%
%TO.N,VIN_BRIDGE*%
X92145000Y-140555000D03*
%TO.P,C30,2*%
%TO.N,Net-(C30-Pad2)*%
X90245000Y-140555000D03*
%TD*%
%TO.P,C41,1*%
%TO.N,Net-(C40-Pad2)*%
X88795000Y-148705000D03*
%TO.P,C41,2*%
%TO.N,GND*%
X86895000Y-148705000D03*
%TD*%
D16*
%TO.P,Q4,1,S*%
%TO.N,GND*%
X84995000Y-138155000D03*
%TO.P,Q4,2,S*%
X84995000Y-136885000D03*
%TO.P,Q4,3,S*%
X84995000Y-135615000D03*
%TO.P,Q4,4,G*%
%TO.N,Net-(Q4-G)*%
X84995000Y-134345000D03*
D13*
%TO.P,Q4,5,D*%
%TO.N,/Conn1/HalfBridge1/OUT*%
X81045000Y-136250000D03*
%TD*%
D16*
%TO.P,Q3,1,S*%
%TO.N,/Conn1/HalfBridge1/OUT*%
X84995000Y-144525000D03*
%TO.P,Q3,2,S*%
X84995000Y-143255000D03*
%TO.P,Q3,3,S*%
X84995000Y-141985000D03*
%TO.P,Q3,4,G*%
%TO.N,Net-(Q3-G)*%
X84995000Y-140715000D03*
D13*
%TO.P,Q3,5,D*%
%TO.N,VIN_BRIDGE*%
X81045000Y-142620000D03*
%TD*%
D15*
%TO.P,D2,1,K*%
%TO.N,VIN_BRIDGE*%
X76595000Y-131495000D03*
%TO.P,D2,2,A*%
%TO.N,/Conn1/HalfBridge/OUT*%
X72595000Y-131495000D03*
%TD*%
D11*
%TO.P,R9,1*%
%TO.N,/Conn1/Bridge_IN2*%
X80145000Y-151555000D03*
%TO.P,R9,2*%
%TO.N,Net-(U2-IN)*%
X80145000Y-152555000D03*
%TD*%
D10*
%TO.P,C12,1*%
%TO.N,VIN_BRIDGE*%
X70045000Y-142495000D03*
%TO.P,C12,2*%
%TO.N,Net-(C12-Pad2)*%
X68145000Y-142495000D03*
%TD*%
%TO.P,C3,1*%
%TO.N,Net-(C2-Pad2)*%
X70095000Y-136495000D03*
%TO.P,C3,2*%
%TO.N,GND*%
X68195000Y-136495000D03*
%TD*%
%TO.P,C23,1*%
%TO.N,VIN_BL*%
X92195000Y-148705000D03*
%TO.P,C23,2*%
%TO.N,GND*%
X90295000Y-148705000D03*
%TD*%
D19*
%TO.P,J7,*%
%TO.N,*%
X73050000Y-80850000D03*
X86550000Y-80850000D03*
D20*
%TO.P,J7,1,Pin_1*%
%TO.N,GND*%
X76200000Y-86850000D03*
D21*
%TO.P,J7,2,Pin_2*%
%TO.N,Net-(J7-Pin_2)*%
X83400000Y-86850000D03*
%TD*%
D10*
%TO.P,C5,1*%
%TO.N,Net-(C4-Pad2)*%
X70095000Y-132495000D03*
%TO.P,C5,2*%
%TO.N,GND*%
X68195000Y-132495000D03*
%TD*%
%TO.P,C6,1*%
%TO.N,VIN_BRIDGE*%
X70095000Y-130445000D03*
%TO.P,C6,2*%
%TO.N,Net-(C6-Pad2)*%
X68195000Y-130445000D03*
%TD*%
%TO.P,C7,1*%
%TO.N,Net-(C6-Pad2)*%
X66645000Y-136595000D03*
%TO.P,C7,2*%
%TO.N,GND*%
X64745000Y-136595000D03*
%TD*%
%TO.P,C38,1*%
%TO.N,VIN_BRIDGE*%
X88745000Y-132555000D03*
%TO.P,C38,2*%
%TO.N,Net-(C38-Pad2)*%
X86845000Y-132555000D03*
%TD*%
%TO.P,C14,1*%
%TO.N,VIN_BRIDGE*%
X66645000Y-140595000D03*
%TO.P,C14,2*%
%TO.N,Net-(C14-Pad2)*%
X64745000Y-140595000D03*
%TD*%
%TO.P,C31,1*%
%TO.N,Net-(C30-Pad2)*%
X92145000Y-138555000D03*
%TO.P,C31,2*%
%TO.N,GND*%
X90245000Y-138555000D03*
%TD*%
D17*
%TO.P,J5,1,Pin_1*%
%TO.N,/Conn5/HalfBridge/OUT*%
X115850000Y-79335000D03*
D18*
%TO.P,J5,2,Pin_2*%
%TO.N,/Conn5/HalfBridge1/OUT*%
X118850000Y-79335000D03*
%TO.P,J5,3,Pin_3*%
%TO.N,Net-(J5-Pin_3)*%
X115850000Y-82335000D03*
%TO.P,J5,4,Pin_4*%
%TO.N,+5V*%
X118850000Y-82335000D03*
%TD*%
D10*
%TO.P,C11,1*%
%TO.N,Net-(C10-Pad2)*%
X70045000Y-144495000D03*
%TO.P,C11,2*%
%TO.N,GND*%
X68145000Y-144495000D03*
%TD*%
%TO.P,C10,1*%
%TO.N,VIN_BRIDGE*%
X70045000Y-146595000D03*
%TO.P,C10,2*%
%TO.N,Net-(C10-Pad2)*%
X68145000Y-146595000D03*
%TD*%
%TO.P,C44,1*%
%TO.N,Net-(U2-VB)*%
X88745000Y-138555000D03*
%TO.P,C44,2*%
%TO.N,/Conn1/HalfBridge1/OUT*%
X86845000Y-138555000D03*
%TD*%
%TO.P,C42,1*%
%TO.N,VIN_BRIDGE*%
X88795000Y-146655000D03*
%TO.P,C42,2*%
%TO.N,Net-(C42-Pad2)*%
X86895000Y-146655000D03*
%TD*%
%TO.P,C43,1*%
%TO.N,Net-(C42-Pad2)*%
X88745000Y-140555000D03*
%TO.P,C43,2*%
%TO.N,GND*%
X86845000Y-140555000D03*
%TD*%
%TO.P,C34,1*%
%TO.N,VIN_BRIDGE*%
X92145000Y-132555000D03*
%TO.P,C34,2*%
%TO.N,Net-(C34-Pad2)*%
X90245000Y-132555000D03*
%TD*%
D22*
%TO.P,J6,a1,a1*%
%TO.N,GND*%
X152550000Y-161210000D03*
D23*
%TO.P,J6,a2,a2*%
%TO.N,/backplane/BACKPLANE.D+*%
X150010000Y-161210000D03*
%TO.P,J6,a3,a3*%
%TO.N,+5V_STDBY*%
X147470000Y-161210000D03*
%TO.P,J6,a4,a4*%
%TO.N,GND*%
X144930000Y-161210000D03*
%TO.P,J6,a5,a5*%
%TO.N,/backplane/CAN1.+*%
X142390000Y-161210000D03*
%TO.P,J6,a6,a6*%
%TO.N,/backplane/CAN1.-*%
X139850000Y-161210000D03*
%TO.P,J6,a7,a7*%
%TO.N,GND*%
X137310000Y-161210000D03*
%TO.P,J6,a8,a8*%
%TO.N,/backplane/CAN2.+*%
X134770000Y-161210000D03*
%TO.P,J6,a9,a9*%
%TO.N,/backplane/CAN2.-*%
X132230000Y-161210000D03*
%TO.P,J6,a10,a10*%
%TO.N,GND*%
X129690000Y-161210000D03*
%TO.P,J6,a11,a11*%
%TO.N,+12V*%
X127150000Y-161210000D03*
%TO.P,J6,a12,a12*%
X124610000Y-161210000D03*
%TO.P,J6,a13,a13*%
%TO.N,GND*%
X122070000Y-161210000D03*
%TO.P,J6,a14,a14*%
%TO.N,+24V*%
X119530000Y-161210000D03*
%TO.P,J6,a15,a15*%
%TO.N,GND*%
X116990000Y-161210000D03*
%TO.P,J6,a16,a16*%
%TO.N,/backplane/GPIOL0*%
X114450000Y-161210000D03*
%TO.P,J6,a17,a17*%
%TO.N,/backplane/GPIOL1*%
X111910000Y-161210000D03*
%TO.P,J6,a18,a18*%
%TO.N,/backplane/GPIOL2*%
X109370000Y-161210000D03*
%TO.P,J6,a19,a19*%
%TO.N,/backplane/GPIOL3*%
X106830000Y-161210000D03*
%TO.P,J6,a20,a20*%
%TO.N,/backplane/GPIOL4*%
X104290000Y-161210000D03*
%TO.P,J6,a21,a21*%
%TO.N,/backplane/GPIOL5*%
X101750000Y-161210000D03*
%TO.P,J6,a22,a22*%
%TO.N,/backplane/GPIOL6*%
X99210000Y-161210000D03*
%TO.P,J6,a23,a23*%
%TO.N,/backplane/GPIOL7*%
X96670000Y-161210000D03*
%TO.P,J6,a24,a24*%
%TO.N,/backplane/GPIOL8*%
X94130000Y-161210000D03*
%TO.P,J6,a25,a25*%
%TO.N,/backplane/GPIOL9*%
X91590000Y-161210000D03*
%TO.P,J6,a26,a26*%
%TO.N,/backplane/GPIOL10*%
X89050000Y-161210000D03*
%TO.P,J6,a27,a27*%
%TO.N,/backplane/GPIOL11*%
X86510000Y-161210000D03*
%TO.P,J6,a28,a28*%
%TO.N,/backplane/GPIOL12*%
X83970000Y-161210000D03*
%TO.P,J6,a29,a29*%
%TO.N,/backplane/GPIOL13*%
X81430000Y-161210000D03*
%TO.P,J6,a30,a30*%
%TO.N,/backplane/GPIOL14*%
X78890000Y-161210000D03*
%TO.P,J6,a31,a31*%
%TO.N,/backplane/GPIOL15*%
X76350000Y-161210000D03*
%TO.P,J6,a32,a32*%
%TO.N,GND*%
X73810000Y-161210000D03*
%TO.P,J6,b1,b1*%
X152550000Y-158670000D03*
%TO.P,J6,b2,b2*%
X150010000Y-158670000D03*
%TO.P,J6,b3,b3*%
%TO.N,+5V_STDBY*%
X147470000Y-158670000D03*
%TO.P,J6,b4,b4*%
%TO.N,GND*%
X144930000Y-158670000D03*
%TO.P,J6,b5,b5*%
%TO.N,/backplane/CAN1.+*%
X142390000Y-158670000D03*
%TO.P,J6,b6,b6*%
%TO.N,/backplane/CAN1.-*%
X139850000Y-158670000D03*
%TO.P,J6,b7,b7*%
%TO.N,GND*%
X137310000Y-158670000D03*
%TO.P,J6,b8,b8*%
%TO.N,/backplane/CAN2.+*%
X134770000Y-158670000D03*
%TO.P,J6,b9,b9*%
%TO.N,/backplane/CAN2.-*%
X132230000Y-158670000D03*
%TO.P,J6,b10,b10*%
%TO.N,GND*%
X129690000Y-158670000D03*
%TO.P,J6,b11,b11*%
%TO.N,+12V*%
X127150000Y-158670000D03*
%TO.P,J6,b12,b12*%
X124610000Y-158670000D03*
%TO.P,J6,b13,b13*%
%TO.N,GND*%
X122070000Y-158670000D03*
%TO.P,J6,b14,b14*%
%TO.N,+24V*%
X119530000Y-158670000D03*
%TO.P,J6,b15,b15*%
%TO.N,GND*%
X116990000Y-158670000D03*
%TO.P,J6,b16,b16*%
%TO.N,/backplane/GPIOC0*%
X114450000Y-158670000D03*
%TO.P,J6,b17,b17*%
%TO.N,/backplane/GPIOC1*%
X111910000Y-158670000D03*
%TO.P,J6,b18,b18*%
%TO.N,/backplane/GPIOC2*%
X109370000Y-158670000D03*
%TO.P,J6,b19,b19*%
%TO.N,/backplane/GPIOC3*%
X106830000Y-158670000D03*
%TO.P,J6,b20,b20*%
%TO.N,/backplane/GPIOC4*%
X104290000Y-158670000D03*
%TO.P,J6,b21,b21*%
%TO.N,/backplane/GPIOC5*%
X101750000Y-158670000D03*
%TO.P,J6,b22,b22*%
%TO.N,/backplane/GPIOC6*%
X99210000Y-158670000D03*
%TO.P,J6,b23,b23*%
%TO.N,/backplane/GPIOC7*%
X96670000Y-158670000D03*
%TO.P,J6,b24,b24*%
%TO.N,/backplane/GPIOC8*%
X94130000Y-158670000D03*
%TO.P,J6,b25,b25*%
%TO.N,/backplane/GPIOC9*%
X91590000Y-158670000D03*
%TO.P,J6,b26,b26*%
%TO.N,/backplane/GPIOC10*%
X89050000Y-158670000D03*
%TO.P,J6,b27,b27*%
%TO.N,/backplane/GPIOC11*%
X86510000Y-158670000D03*
%TO.P,J6,b28,b28*%
%TO.N,/backplane/GPIOC12*%
X83970000Y-158670000D03*
%TO.P,J6,b29,b29*%
%TO.N,/backplane/GPIOC13*%
X81430000Y-158670000D03*
%TO.P,J6,b30,b30*%
%TO.N,/backplane/GPIOC14*%
X78890000Y-158670000D03*
%TO.P,J6,b31,b31*%
%TO.N,/backplane/GPIOC15*%
X76350000Y-158670000D03*
%TO.P,J6,b32,b32*%
%TO.N,GND*%
X73810000Y-158670000D03*
%TO.P,J6,c1,c1*%
X152550000Y-156130000D03*
%TO.P,J6,c2,c2*%
%TO.N,/backplane/BACKPLANE.D-*%
X150010000Y-156130000D03*
%TO.P,J6,c3,c3*%
%TO.N,+5V_STDBY*%
X147470000Y-156130000D03*
%TO.P,J6,c4,c4*%
%TO.N,GND*%
X144930000Y-156130000D03*
%TO.P,J6,c5,c5*%
%TO.N,/backplane/CAN1.+*%
X142390000Y-156130000D03*
%TO.P,J6,c6,c6*%
%TO.N,/backplane/CAN1.-*%
X139850000Y-156130000D03*
%TO.P,J6,c7,c7*%
%TO.N,GND*%
X137310000Y-156130000D03*
%TO.P,J6,c8,c8*%
%TO.N,/backplane/CAN2.+*%
X134770000Y-156130000D03*
%TO.P,J6,c9,c9*%
%TO.N,/backplane/CAN2.-*%
X132230000Y-156130000D03*
%TO.P,J6,c10,c10*%
%TO.N,GND*%
X129690000Y-156130000D03*
%TO.P,J6,c11,c11*%
%TO.N,+12V*%
X127150000Y-156130000D03*
%TO.P,J6,c12,c12*%
X124610000Y-156130000D03*
%TO.P,J6,c13,c13*%
%TO.N,GND*%
X122070000Y-156130000D03*
%TO.P,J6,c14,c14*%
%TO.N,+24V*%
X119530000Y-156130000D03*
%TO.P,J6,c15,c15*%
%TO.N,GND*%
X116990000Y-156130000D03*
%TO.P,J6,c16,c16*%
%TO.N,/backplane/GPIOR0*%
X114450000Y-156130000D03*
%TO.P,J6,c17,c17*%
%TO.N,/backplane/GPIOR1*%
X111910000Y-156130000D03*
%TO.P,J6,c18,c18*%
%TO.N,/backplane/GPIOR2*%
X109370000Y-156130000D03*
%TO.P,J6,c19,c19*%
%TO.N,/backplane/GPIOR3*%
X106830000Y-156130000D03*
%TO.P,J6,c20,c20*%
%TO.N,/backplane/GPIOR4*%
X104290000Y-156130000D03*
%TO.P,J6,c21,c21*%
%TO.N,/backplane/GPIOR5*%
X101750000Y-156130000D03*
%TO.P,J6,c22,c22*%
%TO.N,/backplane/GPIOR6*%
X99210000Y-156130000D03*
%TO.P,J6,c23,c23*%
%TO.N,/backplane/GPIOR7*%
X96670000Y-156130000D03*
%TO.P,J6,c24,c24*%
%TO.N,/backplane/GPIOR8*%
X94130000Y-156130000D03*
%TO.P,J6,c25,c25*%
%TO.N,/backplane/GPIOR9*%
X91590000Y-156130000D03*
%TO.P,J6,c26,c26*%
%TO.N,/backplane/GPIOR10*%
X89050000Y-156130000D03*
%TO.P,J6,c27,c27*%
%TO.N,/backplane/GPIOR11*%
X86510000Y-156130000D03*
%TO.P,J6,c28,c28*%
%TO.N,/backplane/GPIOR12*%
X83970000Y-156130000D03*
%TO.P,J6,c29,c29*%
%TO.N,/backplane/GPIOR13*%
X81430000Y-156130000D03*
%TO.P,J6,c30,c30*%
%TO.N,/backplane/GPIOR14*%
X78890000Y-156130000D03*
%TO.P,J6,c31,c31*%
%TO.N,/backplane/GPIOR15*%
X76350000Y-156130000D03*
%TO.P,J6,c32,c32*%
%TO.N,GND*%
X73810000Y-156130000D03*
%TD*%
D10*
%TO.P,C27,1*%
%TO.N,Net-(C26-Pad2)*%
X88795000Y-144655000D03*
%TO.P,C27,2*%
%TO.N,GND*%
X86895000Y-144655000D03*
%TD*%
%TO.P,C26,1*%
%TO.N,VIN_BRIDGE*%
X92195000Y-144655000D03*
%TO.P,C26,2*%
%TO.N,Net-(C26-Pad2)*%
X90295000Y-144655000D03*
%TD*%
D11*
%TO.P,R12,1*%
%TO.N,unconnected-(R12-Pad1)*%
X74595000Y-151555000D03*
%TO.P,R12,2*%
%TO.N,Net-(Q4-G)*%
X74595000Y-152555000D03*
%TD*%
D10*
%TO.P,C9,1*%
%TO.N,Net-(C8-Pad2)*%
X70045000Y-148595000D03*
%TO.P,C9,2*%
%TO.N,GND*%
X68145000Y-148595000D03*
%TD*%
D17*
%TO.P,J2,1,Pin_1*%
%TO.N,/Conn2/HalfBridge/OUT*%
X138750000Y-79635000D03*
D18*
%TO.P,J2,2,Pin_2*%
%TO.N,/Conn2/HalfBridge1/OUT*%
X141750000Y-79635000D03*
%TO.P,J2,3,Pin_3*%
%TO.N,Net-(J2-Pin_3)*%
X138750000Y-82635000D03*
%TO.P,J2,4,Pin_4*%
%TO.N,+5V*%
X141750000Y-82635000D03*
%TD*%
D10*
%TO.P,C4,1*%
%TO.N,VIN_BRIDGE*%
X70095000Y-134495000D03*
%TO.P,C4,2*%
%TO.N,Net-(C4-Pad2)*%
X68195000Y-134495000D03*
%TD*%
%TO.P,C18,1*%
%TO.N,VIN_BRIDGE*%
X69995000Y-150645000D03*
%TO.P,C18,2*%
%TO.N,Net-(C18-Pad2)*%
X68095000Y-150645000D03*
%TD*%
%TO.P,C40,1*%
%TO.N,VIN_BRIDGE*%
X92145000Y-130555000D03*
%TO.P,C40,2*%
%TO.N,Net-(C40-Pad2)*%
X90245000Y-130555000D03*
%TD*%
D14*
%TO.P,D6,1,K*%
%TO.N,/Conn1/HalfBridge1/OUT*%
X80195000Y-131255000D03*
%TO.P,D6,2,A*%
%TO.N,GND*%
X84195000Y-131255000D03*
%TD*%
D10*
%TO.P,C37,1*%
%TO.N,Net-(C36-Pad2)*%
X88745000Y-134555000D03*
%TO.P,C37,2*%
%TO.N,GND*%
X86845000Y-134555000D03*
%TD*%
D11*
%TO.P,R10,1*%
%TO.N,GND*%
X78295000Y-151555000D03*
%TO.P,R10,2*%
%TO.N,Net-(U2-DT)*%
X78295000Y-152555000D03*
%TD*%
D10*
%TO.P,C8,1*%
%TO.N,VIN_BRIDGE*%
X66645000Y-134545000D03*
%TO.P,C8,2*%
%TO.N,Net-(C8-Pad2)*%
X64745000Y-134545000D03*
%TD*%
%TO.P,C29,1*%
%TO.N,Net-(C28-Pad2)*%
X92195000Y-146605000D03*
%TO.P,C29,2*%
%TO.N,GND*%
X90295000Y-146605000D03*
%TD*%
D11*
%TO.P,R8,1*%
%TO.N,VIN_BL*%
X81995000Y-151555000D03*
%TO.P,R8,2*%
%TO.N,Net-(U2-EN)*%
X81995000Y-152555000D03*
%TD*%
D17*
%TO.P,J4,1,Pin_1*%
%TO.N,/Conn4/HalfBridge/OUT*%
X127350000Y-79535000D03*
D18*
%TO.P,J4,2,Pin_2*%
%TO.N,/Conn4/HalfBridge1/OUT*%
X130350000Y-79535000D03*
%TO.P,J4,3,Pin_3*%
%TO.N,Net-(J4-Pin_3)*%
X127350000Y-82535000D03*
%TO.P,J4,4,Pin_4*%
%TO.N,+5V*%
X130350000Y-82535000D03*
%TD*%
D12*
%TO.P,Q1,1,S*%
%TO.N,/Conn1/HalfBridge/OUT*%
X71795000Y-134290000D03*
%TO.P,Q1,2,S*%
X71795000Y-135560000D03*
%TO.P,Q1,3,S*%
X71795000Y-136830000D03*
%TO.P,Q1,4,G*%
%TO.N,Net-(Q1-G)*%
X71795000Y-138100000D03*
D13*
%TO.P,Q1,5,D*%
%TO.N,VIN_BRIDGE*%
X75745000Y-136195000D03*
%TD*%
D10*
%TO.P,C21,1*%
%TO.N,Net-(C20-Pad2)*%
X66545000Y-146595000D03*
%TO.P,C21,2*%
%TO.N,GND*%
X64645000Y-146595000D03*
%TD*%
D17*
%TO.P,J3,1,Pin_1*%
%TO.N,/Conn3/HalfBridge/OUT*%
X104050000Y-79435000D03*
D18*
%TO.P,J3,2,Pin_2*%
%TO.N,/Conn3/HalfBridge1/OUT*%
X107050000Y-79435000D03*
%TO.P,J3,3,Pin_3*%
%TO.N,Net-(J3-Pin_3)*%
X104050000Y-82435000D03*
%TO.P,J3,4,Pin_4*%
%TO.N,+5V*%
X107050000Y-82435000D03*
%TD*%
D10*
%TO.P,C39,1*%
%TO.N,Net-(C38-Pad2)*%
X88745000Y-130555000D03*
%TO.P,C39,2*%
%TO.N,GND*%
X86845000Y-130555000D03*
%TD*%
M02*
