%TF.GenerationSoftware,KiCad,Pcbnew,9.0.3*%
%TF.CreationDate,2025-09-23T23:00:58+02:00*%
%TF.ProjectId,ModuCard-GPIO-AUX,4d6f6475-4361-4726-942d-4750494f2d41,rev?*%
%TF.SameCoordinates,Original*%
%TF.FileFunction,Legend,Top*%
%TF.FilePolarity,Positive*%
%FSLAX46Y46*%
G04 Gerber Fmt 4.6, Leading zero omitted, Abs format (unit mm)*
G04 Created by KiCad (PCBNEW 9.0.3) date 2025-09-23 23:00:58*
%MOMM*%
%LPD*%
G01*
G04 APERTURE LIST*
G04 Aperture macros list*
%AMRoundRect*
0 Rectangle with rounded corners*
0 $1 Rounding radius*
0 $2 $3 $4 $5 $6 $7 $8 $9 X,Y pos of 4 corners*
0 Add a 4 corners polygon primitive as box body*
4,1,4,$2,$3,$4,$5,$6,$7,$8,$9,$2,$3,0*
0 Add four circle primitives for the rounded corners*
1,1,$1+$1,$2,$3*
1,1,$1+$1,$4,$5*
1,1,$1+$1,$6,$7*
1,1,$1+$1,$8,$9*
0 Add four rect primitives between the rounded corners*
20,1,$1+$1,$2,$3,$4,$5,0*
20,1,$1+$1,$4,$5,$6,$7,0*
20,1,$1+$1,$6,$7,$8,$9,0*
20,1,$1+$1,$8,$9,$2,$3,0*%
%AMFreePoly0*
4,1,17,2.675000,1.605000,1.875000,1.605000,1.875000,0.935000,2.675000,0.935000,2.675000,0.335000,1.875000,0.335000,1.875000,-0.335000,2.675000,-0.335000,2.675000,-0.935000,1.875000,-0.935000,1.875000,-1.605000,2.675000,-1.605000,2.675000,-2.205000,-1.875000,-2.205000,-1.875000,2.205000,2.675000,2.205000,2.675000,1.605000,2.675000,1.605000,$1*%
G04 Aperture macros list end*
%ADD10C,0.150000*%
%ADD11C,0.120000*%
%ADD12RoundRect,0.269000X0.269000X0.494000X-0.269000X0.494000X-0.269000X-0.494000X0.269000X-0.494000X0*%
%ADD13RoundRect,0.159000X-0.189000X0.159000X-0.189000X-0.159000X0.189000X-0.159000X0.189000X0.159000X0*%
%ADD14FreePoly0,0.000000*%
%ADD15RoundRect,0.125000X-0.300000X-0.125000X0.300000X-0.125000X0.300000X0.125000X-0.300000X0.125000X0*%
%ADD16RoundRect,0.250000X-1.000000X-0.650000X1.000000X-0.650000X1.000000X0.650000X-1.000000X0.650000X0*%
%ADD17RoundRect,0.250000X1.000000X0.650000X-1.000000X0.650000X-1.000000X-0.650000X1.000000X-0.650000X0*%
%ADD18FreePoly0,180.000000*%
%ADD19RoundRect,0.125000X0.300000X0.125000X-0.300000X0.125000X-0.300000X-0.125000X0.300000X-0.125000X0*%
%ADD20C,3.000000*%
%ADD21RoundRect,0.250001X-0.499999X-0.499999X0.499999X-0.499999X0.499999X0.499999X-0.499999X0.499999X0*%
%ADD22C,1.500000*%
%ADD23R,0.900000X2.000000*%
%ADD24RoundRect,1.025000X-1.025000X-1.025000X1.025000X-1.025000X1.025000X1.025000X-1.025000X1.025000X0*%
%ADD25C,4.100000*%
%ADD26C,2.850000*%
%ADD27RoundRect,0.249999X0.525001X0.525001X-0.525001X0.525001X-0.525001X-0.525001X0.525001X-0.525001X0*%
%ADD28C,1.550000*%
G04 APERTURE END LIST*
D10*
X138904761Y-127560057D02*
X138809523Y-127512438D01*
X138809523Y-127512438D02*
X138714285Y-127417200D01*
X138714285Y-127417200D02*
X138571428Y-127274342D01*
X138571428Y-127274342D02*
X138476190Y-127226723D01*
X138476190Y-127226723D02*
X138380952Y-127226723D01*
X138428571Y-127464819D02*
X138333333Y-127417200D01*
X138333333Y-127417200D02*
X138238095Y-127321961D01*
X138238095Y-127321961D02*
X138190476Y-127131485D01*
X138190476Y-127131485D02*
X138190476Y-126798152D01*
X138190476Y-126798152D02*
X138238095Y-126607676D01*
X138238095Y-126607676D02*
X138333333Y-126512438D01*
X138333333Y-126512438D02*
X138428571Y-126464819D01*
X138428571Y-126464819D02*
X138619047Y-126464819D01*
X138619047Y-126464819D02*
X138714285Y-126512438D01*
X138714285Y-126512438D02*
X138809523Y-126607676D01*
X138809523Y-126607676D02*
X138857142Y-126798152D01*
X138857142Y-126798152D02*
X138857142Y-127131485D01*
X138857142Y-127131485D02*
X138809523Y-127321961D01*
X138809523Y-127321961D02*
X138714285Y-127417200D01*
X138714285Y-127417200D02*
X138619047Y-127464819D01*
X138619047Y-127464819D02*
X138428571Y-127464819D01*
X139809523Y-127464819D02*
X139238095Y-127464819D01*
X139523809Y-127464819D02*
X139523809Y-126464819D01*
X139523809Y-126464819D02*
X139428571Y-126607676D01*
X139428571Y-126607676D02*
X139333333Y-126702914D01*
X139333333Y-126702914D02*
X139238095Y-126750533D01*
X145061905Y-129024819D02*
X145061905Y-128024819D01*
X145061905Y-128024819D02*
X145300000Y-128024819D01*
X145300000Y-128024819D02*
X145442857Y-128072438D01*
X145442857Y-128072438D02*
X145538095Y-128167676D01*
X145538095Y-128167676D02*
X145585714Y-128262914D01*
X145585714Y-128262914D02*
X145633333Y-128453390D01*
X145633333Y-128453390D02*
X145633333Y-128596247D01*
X145633333Y-128596247D02*
X145585714Y-128786723D01*
X145585714Y-128786723D02*
X145538095Y-128881961D01*
X145538095Y-128881961D02*
X145442857Y-128977200D01*
X145442857Y-128977200D02*
X145300000Y-129024819D01*
X145300000Y-129024819D02*
X145061905Y-129024819D01*
X146490476Y-128024819D02*
X146300000Y-128024819D01*
X146300000Y-128024819D02*
X146204762Y-128072438D01*
X146204762Y-128072438D02*
X146157143Y-128120057D01*
X146157143Y-128120057D02*
X146061905Y-128262914D01*
X146061905Y-128262914D02*
X146014286Y-128453390D01*
X146014286Y-128453390D02*
X146014286Y-128834342D01*
X146014286Y-128834342D02*
X146061905Y-128929580D01*
X146061905Y-128929580D02*
X146109524Y-128977200D01*
X146109524Y-128977200D02*
X146204762Y-129024819D01*
X146204762Y-129024819D02*
X146395238Y-129024819D01*
X146395238Y-129024819D02*
X146490476Y-128977200D01*
X146490476Y-128977200D02*
X146538095Y-128929580D01*
X146538095Y-128929580D02*
X146585714Y-128834342D01*
X146585714Y-128834342D02*
X146585714Y-128596247D01*
X146585714Y-128596247D02*
X146538095Y-128501009D01*
X146538095Y-128501009D02*
X146490476Y-128453390D01*
X146490476Y-128453390D02*
X146395238Y-128405771D01*
X146395238Y-128405771D02*
X146204762Y-128405771D01*
X146204762Y-128405771D02*
X146109524Y-128453390D01*
X146109524Y-128453390D02*
X146061905Y-128501009D01*
X146061905Y-128501009D02*
X146014286Y-128596247D01*
X138204761Y-139770057D02*
X138109523Y-139722438D01*
X138109523Y-139722438D02*
X138014285Y-139627200D01*
X138014285Y-139627200D02*
X137871428Y-139484342D01*
X137871428Y-139484342D02*
X137776190Y-139436723D01*
X137776190Y-139436723D02*
X137680952Y-139436723D01*
X137728571Y-139674819D02*
X137633333Y-139627200D01*
X137633333Y-139627200D02*
X137538095Y-139531961D01*
X137538095Y-139531961D02*
X137490476Y-139341485D01*
X137490476Y-139341485D02*
X137490476Y-139008152D01*
X137490476Y-139008152D02*
X137538095Y-138817676D01*
X137538095Y-138817676D02*
X137633333Y-138722438D01*
X137633333Y-138722438D02*
X137728571Y-138674819D01*
X137728571Y-138674819D02*
X137919047Y-138674819D01*
X137919047Y-138674819D02*
X138014285Y-138722438D01*
X138014285Y-138722438D02*
X138109523Y-138817676D01*
X138109523Y-138817676D02*
X138157142Y-139008152D01*
X138157142Y-139008152D02*
X138157142Y-139341485D01*
X138157142Y-139341485D02*
X138109523Y-139531961D01*
X138109523Y-139531961D02*
X138014285Y-139627200D01*
X138014285Y-139627200D02*
X137919047Y-139674819D01*
X137919047Y-139674819D02*
X137728571Y-139674819D01*
X138538095Y-138770057D02*
X138585714Y-138722438D01*
X138585714Y-138722438D02*
X138680952Y-138674819D01*
X138680952Y-138674819D02*
X138919047Y-138674819D01*
X138919047Y-138674819D02*
X139014285Y-138722438D01*
X139014285Y-138722438D02*
X139061904Y-138770057D01*
X139061904Y-138770057D02*
X139109523Y-138865295D01*
X139109523Y-138865295D02*
X139109523Y-138960533D01*
X139109523Y-138960533D02*
X139061904Y-139103390D01*
X139061904Y-139103390D02*
X138490476Y-139674819D01*
X138490476Y-139674819D02*
X139109523Y-139674819D01*
X137461905Y-150364819D02*
X137461905Y-149364819D01*
X137461905Y-149364819D02*
X137700000Y-149364819D01*
X137700000Y-149364819D02*
X137842857Y-149412438D01*
X137842857Y-149412438D02*
X137938095Y-149507676D01*
X137938095Y-149507676D02*
X137985714Y-149602914D01*
X137985714Y-149602914D02*
X138033333Y-149793390D01*
X138033333Y-149793390D02*
X138033333Y-149936247D01*
X138033333Y-149936247D02*
X137985714Y-150126723D01*
X137985714Y-150126723D02*
X137938095Y-150221961D01*
X137938095Y-150221961D02*
X137842857Y-150317200D01*
X137842857Y-150317200D02*
X137700000Y-150364819D01*
X137700000Y-150364819D02*
X137461905Y-150364819D01*
X138366667Y-149364819D02*
X138985714Y-149364819D01*
X138985714Y-149364819D02*
X138652381Y-149745771D01*
X138652381Y-149745771D02*
X138795238Y-149745771D01*
X138795238Y-149745771D02*
X138890476Y-149793390D01*
X138890476Y-149793390D02*
X138938095Y-149841009D01*
X138938095Y-149841009D02*
X138985714Y-149936247D01*
X138985714Y-149936247D02*
X138985714Y-150174342D01*
X138985714Y-150174342D02*
X138938095Y-150269580D01*
X138938095Y-150269580D02*
X138890476Y-150317200D01*
X138890476Y-150317200D02*
X138795238Y-150364819D01*
X138795238Y-150364819D02*
X138509524Y-150364819D01*
X138509524Y-150364819D02*
X138414286Y-150317200D01*
X138414286Y-150317200D02*
X138366667Y-150269580D01*
X144961905Y-145124819D02*
X144961905Y-144124819D01*
X144961905Y-144124819D02*
X145200000Y-144124819D01*
X145200000Y-144124819D02*
X145342857Y-144172438D01*
X145342857Y-144172438D02*
X145438095Y-144267676D01*
X145438095Y-144267676D02*
X145485714Y-144362914D01*
X145485714Y-144362914D02*
X145533333Y-144553390D01*
X145533333Y-144553390D02*
X145533333Y-144696247D01*
X145533333Y-144696247D02*
X145485714Y-144886723D01*
X145485714Y-144886723D02*
X145438095Y-144981961D01*
X145438095Y-144981961D02*
X145342857Y-145077200D01*
X145342857Y-145077200D02*
X145200000Y-145124819D01*
X145200000Y-145124819D02*
X144961905Y-145124819D01*
X146438095Y-144124819D02*
X145961905Y-144124819D01*
X145961905Y-144124819D02*
X145914286Y-144601009D01*
X145914286Y-144601009D02*
X145961905Y-144553390D01*
X145961905Y-144553390D02*
X146057143Y-144505771D01*
X146057143Y-144505771D02*
X146295238Y-144505771D01*
X146295238Y-144505771D02*
X146390476Y-144553390D01*
X146390476Y-144553390D02*
X146438095Y-144601009D01*
X146438095Y-144601009D02*
X146485714Y-144696247D01*
X146485714Y-144696247D02*
X146485714Y-144934342D01*
X146485714Y-144934342D02*
X146438095Y-145029580D01*
X146438095Y-145029580D02*
X146390476Y-145077200D01*
X146390476Y-145077200D02*
X146295238Y-145124819D01*
X146295238Y-145124819D02*
X146057143Y-145124819D01*
X146057143Y-145124819D02*
X145961905Y-145077200D01*
X145961905Y-145077200D02*
X145914286Y-145029580D01*
X145604761Y-146485057D02*
X145509523Y-146437438D01*
X145509523Y-146437438D02*
X145414285Y-146342200D01*
X145414285Y-146342200D02*
X145271428Y-146199342D01*
X145271428Y-146199342D02*
X145176190Y-146151723D01*
X145176190Y-146151723D02*
X145080952Y-146151723D01*
X145128571Y-146389819D02*
X145033333Y-146342200D01*
X145033333Y-146342200D02*
X144938095Y-146246961D01*
X144938095Y-146246961D02*
X144890476Y-146056485D01*
X144890476Y-146056485D02*
X144890476Y-145723152D01*
X144890476Y-145723152D02*
X144938095Y-145532676D01*
X144938095Y-145532676D02*
X145033333Y-145437438D01*
X145033333Y-145437438D02*
X145128571Y-145389819D01*
X145128571Y-145389819D02*
X145319047Y-145389819D01*
X145319047Y-145389819D02*
X145414285Y-145437438D01*
X145414285Y-145437438D02*
X145509523Y-145532676D01*
X145509523Y-145532676D02*
X145557142Y-145723152D01*
X145557142Y-145723152D02*
X145557142Y-146056485D01*
X145557142Y-146056485D02*
X145509523Y-146246961D01*
X145509523Y-146246961D02*
X145414285Y-146342200D01*
X145414285Y-146342200D02*
X145319047Y-146389819D01*
X145319047Y-146389819D02*
X145128571Y-146389819D01*
X145890476Y-145389819D02*
X146509523Y-145389819D01*
X146509523Y-145389819D02*
X146176190Y-145770771D01*
X146176190Y-145770771D02*
X146319047Y-145770771D01*
X146319047Y-145770771D02*
X146414285Y-145818390D01*
X146414285Y-145818390D02*
X146461904Y-145866009D01*
X146461904Y-145866009D02*
X146509523Y-145961247D01*
X146509523Y-145961247D02*
X146509523Y-146199342D01*
X146509523Y-146199342D02*
X146461904Y-146294580D01*
X146461904Y-146294580D02*
X146414285Y-146342200D01*
X146414285Y-146342200D02*
X146319047Y-146389819D01*
X146319047Y-146389819D02*
X146033333Y-146389819D01*
X146033333Y-146389819D02*
X145938095Y-146342200D01*
X145938095Y-146342200D02*
X145890476Y-146294580D01*
X145604761Y-140115057D02*
X145509523Y-140067438D01*
X145509523Y-140067438D02*
X145414285Y-139972200D01*
X145414285Y-139972200D02*
X145271428Y-139829342D01*
X145271428Y-139829342D02*
X145176190Y-139781723D01*
X145176190Y-139781723D02*
X145080952Y-139781723D01*
X145128571Y-140019819D02*
X145033333Y-139972200D01*
X145033333Y-139972200D02*
X144938095Y-139876961D01*
X144938095Y-139876961D02*
X144890476Y-139686485D01*
X144890476Y-139686485D02*
X144890476Y-139353152D01*
X144890476Y-139353152D02*
X144938095Y-139162676D01*
X144938095Y-139162676D02*
X145033333Y-139067438D01*
X145033333Y-139067438D02*
X145128571Y-139019819D01*
X145128571Y-139019819D02*
X145319047Y-139019819D01*
X145319047Y-139019819D02*
X145414285Y-139067438D01*
X145414285Y-139067438D02*
X145509523Y-139162676D01*
X145509523Y-139162676D02*
X145557142Y-139353152D01*
X145557142Y-139353152D02*
X145557142Y-139686485D01*
X145557142Y-139686485D02*
X145509523Y-139876961D01*
X145509523Y-139876961D02*
X145414285Y-139972200D01*
X145414285Y-139972200D02*
X145319047Y-140019819D01*
X145319047Y-140019819D02*
X145128571Y-140019819D01*
X146414285Y-139353152D02*
X146414285Y-140019819D01*
X146176190Y-138972200D02*
X145938095Y-139686485D01*
X145938095Y-139686485D02*
X146557142Y-139686485D01*
X137461905Y-134264819D02*
X137461905Y-133264819D01*
X137461905Y-133264819D02*
X137700000Y-133264819D01*
X137700000Y-133264819D02*
X137842857Y-133312438D01*
X137842857Y-133312438D02*
X137938095Y-133407676D01*
X137938095Y-133407676D02*
X137985714Y-133502914D01*
X137985714Y-133502914D02*
X138033333Y-133693390D01*
X138033333Y-133693390D02*
X138033333Y-133836247D01*
X138033333Y-133836247D02*
X137985714Y-134026723D01*
X137985714Y-134026723D02*
X137938095Y-134121961D01*
X137938095Y-134121961D02*
X137842857Y-134217200D01*
X137842857Y-134217200D02*
X137700000Y-134264819D01*
X137700000Y-134264819D02*
X137461905Y-134264819D01*
X138414286Y-133360057D02*
X138461905Y-133312438D01*
X138461905Y-133312438D02*
X138557143Y-133264819D01*
X138557143Y-133264819D02*
X138795238Y-133264819D01*
X138795238Y-133264819D02*
X138890476Y-133312438D01*
X138890476Y-133312438D02*
X138938095Y-133360057D01*
X138938095Y-133360057D02*
X138985714Y-133455295D01*
X138985714Y-133455295D02*
X138985714Y-133550533D01*
X138985714Y-133550533D02*
X138938095Y-133693390D01*
X138938095Y-133693390D02*
X138366667Y-134264819D01*
X138366667Y-134264819D02*
X138985714Y-134264819D01*
X145361905Y-129724819D02*
X145361905Y-128724819D01*
X145361905Y-128724819D02*
X145600000Y-128724819D01*
X145600000Y-128724819D02*
X145742857Y-128772438D01*
X145742857Y-128772438D02*
X145838095Y-128867676D01*
X145838095Y-128867676D02*
X145885714Y-128962914D01*
X145885714Y-128962914D02*
X145933333Y-129153390D01*
X145933333Y-129153390D02*
X145933333Y-129296247D01*
X145933333Y-129296247D02*
X145885714Y-129486723D01*
X145885714Y-129486723D02*
X145838095Y-129581961D01*
X145838095Y-129581961D02*
X145742857Y-129677200D01*
X145742857Y-129677200D02*
X145600000Y-129724819D01*
X145600000Y-129724819D02*
X145361905Y-129724819D01*
X146790476Y-129058152D02*
X146790476Y-129724819D01*
X146552381Y-128677200D02*
X146314286Y-129391485D01*
X146314286Y-129391485D02*
X146933333Y-129391485D01*
X138104761Y-97960057D02*
X138009523Y-97912438D01*
X138009523Y-97912438D02*
X137914285Y-97817200D01*
X137914285Y-97817200D02*
X137771428Y-97674342D01*
X137771428Y-97674342D02*
X137676190Y-97626723D01*
X137676190Y-97626723D02*
X137580952Y-97626723D01*
X137628571Y-97864819D02*
X137533333Y-97817200D01*
X137533333Y-97817200D02*
X137438095Y-97721961D01*
X137438095Y-97721961D02*
X137390476Y-97531485D01*
X137390476Y-97531485D02*
X137390476Y-97198152D01*
X137390476Y-97198152D02*
X137438095Y-97007676D01*
X137438095Y-97007676D02*
X137533333Y-96912438D01*
X137533333Y-96912438D02*
X137628571Y-96864819D01*
X137628571Y-96864819D02*
X137819047Y-96864819D01*
X137819047Y-96864819D02*
X137914285Y-96912438D01*
X137914285Y-96912438D02*
X138009523Y-97007676D01*
X138009523Y-97007676D02*
X138057142Y-97198152D01*
X138057142Y-97198152D02*
X138057142Y-97531485D01*
X138057142Y-97531485D02*
X138009523Y-97721961D01*
X138009523Y-97721961D02*
X137914285Y-97817200D01*
X137914285Y-97817200D02*
X137819047Y-97864819D01*
X137819047Y-97864819D02*
X137628571Y-97864819D01*
X139009523Y-97864819D02*
X138438095Y-97864819D01*
X138723809Y-97864819D02*
X138723809Y-96864819D01*
X138723809Y-96864819D02*
X138628571Y-97007676D01*
X138628571Y-97007676D02*
X138533333Y-97102914D01*
X138533333Y-97102914D02*
X138438095Y-97150533D01*
X144261905Y-99424819D02*
X144261905Y-98424819D01*
X144261905Y-98424819D02*
X144500000Y-98424819D01*
X144500000Y-98424819D02*
X144642857Y-98472438D01*
X144642857Y-98472438D02*
X144738095Y-98567676D01*
X144738095Y-98567676D02*
X144785714Y-98662914D01*
X144785714Y-98662914D02*
X144833333Y-98853390D01*
X144833333Y-98853390D02*
X144833333Y-98996247D01*
X144833333Y-98996247D02*
X144785714Y-99186723D01*
X144785714Y-99186723D02*
X144738095Y-99281961D01*
X144738095Y-99281961D02*
X144642857Y-99377200D01*
X144642857Y-99377200D02*
X144500000Y-99424819D01*
X144500000Y-99424819D02*
X144261905Y-99424819D01*
X145690476Y-98424819D02*
X145500000Y-98424819D01*
X145500000Y-98424819D02*
X145404762Y-98472438D01*
X145404762Y-98472438D02*
X145357143Y-98520057D01*
X145357143Y-98520057D02*
X145261905Y-98662914D01*
X145261905Y-98662914D02*
X145214286Y-98853390D01*
X145214286Y-98853390D02*
X145214286Y-99234342D01*
X145214286Y-99234342D02*
X145261905Y-99329580D01*
X145261905Y-99329580D02*
X145309524Y-99377200D01*
X145309524Y-99377200D02*
X145404762Y-99424819D01*
X145404762Y-99424819D02*
X145595238Y-99424819D01*
X145595238Y-99424819D02*
X145690476Y-99377200D01*
X145690476Y-99377200D02*
X145738095Y-99329580D01*
X145738095Y-99329580D02*
X145785714Y-99234342D01*
X145785714Y-99234342D02*
X145785714Y-98996247D01*
X145785714Y-98996247D02*
X145738095Y-98901009D01*
X145738095Y-98901009D02*
X145690476Y-98853390D01*
X145690476Y-98853390D02*
X145595238Y-98805771D01*
X145595238Y-98805771D02*
X145404762Y-98805771D01*
X145404762Y-98805771D02*
X145309524Y-98853390D01*
X145309524Y-98853390D02*
X145261905Y-98901009D01*
X145261905Y-98901009D02*
X145214286Y-98996247D01*
X137404761Y-110170057D02*
X137309523Y-110122438D01*
X137309523Y-110122438D02*
X137214285Y-110027200D01*
X137214285Y-110027200D02*
X137071428Y-109884342D01*
X137071428Y-109884342D02*
X136976190Y-109836723D01*
X136976190Y-109836723D02*
X136880952Y-109836723D01*
X136928571Y-110074819D02*
X136833333Y-110027200D01*
X136833333Y-110027200D02*
X136738095Y-109931961D01*
X136738095Y-109931961D02*
X136690476Y-109741485D01*
X136690476Y-109741485D02*
X136690476Y-109408152D01*
X136690476Y-109408152D02*
X136738095Y-109217676D01*
X136738095Y-109217676D02*
X136833333Y-109122438D01*
X136833333Y-109122438D02*
X136928571Y-109074819D01*
X136928571Y-109074819D02*
X137119047Y-109074819D01*
X137119047Y-109074819D02*
X137214285Y-109122438D01*
X137214285Y-109122438D02*
X137309523Y-109217676D01*
X137309523Y-109217676D02*
X137357142Y-109408152D01*
X137357142Y-109408152D02*
X137357142Y-109741485D01*
X137357142Y-109741485D02*
X137309523Y-109931961D01*
X137309523Y-109931961D02*
X137214285Y-110027200D01*
X137214285Y-110027200D02*
X137119047Y-110074819D01*
X137119047Y-110074819D02*
X136928571Y-110074819D01*
X137738095Y-109170057D02*
X137785714Y-109122438D01*
X137785714Y-109122438D02*
X137880952Y-109074819D01*
X137880952Y-109074819D02*
X138119047Y-109074819D01*
X138119047Y-109074819D02*
X138214285Y-109122438D01*
X138214285Y-109122438D02*
X138261904Y-109170057D01*
X138261904Y-109170057D02*
X138309523Y-109265295D01*
X138309523Y-109265295D02*
X138309523Y-109360533D01*
X138309523Y-109360533D02*
X138261904Y-109503390D01*
X138261904Y-109503390D02*
X137690476Y-110074819D01*
X137690476Y-110074819D02*
X138309523Y-110074819D01*
X136661905Y-120764819D02*
X136661905Y-119764819D01*
X136661905Y-119764819D02*
X136900000Y-119764819D01*
X136900000Y-119764819D02*
X137042857Y-119812438D01*
X137042857Y-119812438D02*
X137138095Y-119907676D01*
X137138095Y-119907676D02*
X137185714Y-120002914D01*
X137185714Y-120002914D02*
X137233333Y-120193390D01*
X137233333Y-120193390D02*
X137233333Y-120336247D01*
X137233333Y-120336247D02*
X137185714Y-120526723D01*
X137185714Y-120526723D02*
X137138095Y-120621961D01*
X137138095Y-120621961D02*
X137042857Y-120717200D01*
X137042857Y-120717200D02*
X136900000Y-120764819D01*
X136900000Y-120764819D02*
X136661905Y-120764819D01*
X137566667Y-119764819D02*
X138185714Y-119764819D01*
X138185714Y-119764819D02*
X137852381Y-120145771D01*
X137852381Y-120145771D02*
X137995238Y-120145771D01*
X137995238Y-120145771D02*
X138090476Y-120193390D01*
X138090476Y-120193390D02*
X138138095Y-120241009D01*
X138138095Y-120241009D02*
X138185714Y-120336247D01*
X138185714Y-120336247D02*
X138185714Y-120574342D01*
X138185714Y-120574342D02*
X138138095Y-120669580D01*
X138138095Y-120669580D02*
X138090476Y-120717200D01*
X138090476Y-120717200D02*
X137995238Y-120764819D01*
X137995238Y-120764819D02*
X137709524Y-120764819D01*
X137709524Y-120764819D02*
X137614286Y-120717200D01*
X137614286Y-120717200D02*
X137566667Y-120669580D01*
X144161905Y-115524819D02*
X144161905Y-114524819D01*
X144161905Y-114524819D02*
X144400000Y-114524819D01*
X144400000Y-114524819D02*
X144542857Y-114572438D01*
X144542857Y-114572438D02*
X144638095Y-114667676D01*
X144638095Y-114667676D02*
X144685714Y-114762914D01*
X144685714Y-114762914D02*
X144733333Y-114953390D01*
X144733333Y-114953390D02*
X144733333Y-115096247D01*
X144733333Y-115096247D02*
X144685714Y-115286723D01*
X144685714Y-115286723D02*
X144638095Y-115381961D01*
X144638095Y-115381961D02*
X144542857Y-115477200D01*
X144542857Y-115477200D02*
X144400000Y-115524819D01*
X144400000Y-115524819D02*
X144161905Y-115524819D01*
X145638095Y-114524819D02*
X145161905Y-114524819D01*
X145161905Y-114524819D02*
X145114286Y-115001009D01*
X145114286Y-115001009D02*
X145161905Y-114953390D01*
X145161905Y-114953390D02*
X145257143Y-114905771D01*
X145257143Y-114905771D02*
X145495238Y-114905771D01*
X145495238Y-114905771D02*
X145590476Y-114953390D01*
X145590476Y-114953390D02*
X145638095Y-115001009D01*
X145638095Y-115001009D02*
X145685714Y-115096247D01*
X145685714Y-115096247D02*
X145685714Y-115334342D01*
X145685714Y-115334342D02*
X145638095Y-115429580D01*
X145638095Y-115429580D02*
X145590476Y-115477200D01*
X145590476Y-115477200D02*
X145495238Y-115524819D01*
X145495238Y-115524819D02*
X145257143Y-115524819D01*
X145257143Y-115524819D02*
X145161905Y-115477200D01*
X145161905Y-115477200D02*
X145114286Y-115429580D01*
X144804761Y-116885057D02*
X144709523Y-116837438D01*
X144709523Y-116837438D02*
X144614285Y-116742200D01*
X144614285Y-116742200D02*
X144471428Y-116599342D01*
X144471428Y-116599342D02*
X144376190Y-116551723D01*
X144376190Y-116551723D02*
X144280952Y-116551723D01*
X144328571Y-116789819D02*
X144233333Y-116742200D01*
X144233333Y-116742200D02*
X144138095Y-116646961D01*
X144138095Y-116646961D02*
X144090476Y-116456485D01*
X144090476Y-116456485D02*
X144090476Y-116123152D01*
X144090476Y-116123152D02*
X144138095Y-115932676D01*
X144138095Y-115932676D02*
X144233333Y-115837438D01*
X144233333Y-115837438D02*
X144328571Y-115789819D01*
X144328571Y-115789819D02*
X144519047Y-115789819D01*
X144519047Y-115789819D02*
X144614285Y-115837438D01*
X144614285Y-115837438D02*
X144709523Y-115932676D01*
X144709523Y-115932676D02*
X144757142Y-116123152D01*
X144757142Y-116123152D02*
X144757142Y-116456485D01*
X144757142Y-116456485D02*
X144709523Y-116646961D01*
X144709523Y-116646961D02*
X144614285Y-116742200D01*
X144614285Y-116742200D02*
X144519047Y-116789819D01*
X144519047Y-116789819D02*
X144328571Y-116789819D01*
X145090476Y-115789819D02*
X145709523Y-115789819D01*
X145709523Y-115789819D02*
X145376190Y-116170771D01*
X145376190Y-116170771D02*
X145519047Y-116170771D01*
X145519047Y-116170771D02*
X145614285Y-116218390D01*
X145614285Y-116218390D02*
X145661904Y-116266009D01*
X145661904Y-116266009D02*
X145709523Y-116361247D01*
X145709523Y-116361247D02*
X145709523Y-116599342D01*
X145709523Y-116599342D02*
X145661904Y-116694580D01*
X145661904Y-116694580D02*
X145614285Y-116742200D01*
X145614285Y-116742200D02*
X145519047Y-116789819D01*
X145519047Y-116789819D02*
X145233333Y-116789819D01*
X145233333Y-116789819D02*
X145138095Y-116742200D01*
X145138095Y-116742200D02*
X145090476Y-116694580D01*
X144804761Y-110515057D02*
X144709523Y-110467438D01*
X144709523Y-110467438D02*
X144614285Y-110372200D01*
X144614285Y-110372200D02*
X144471428Y-110229342D01*
X144471428Y-110229342D02*
X144376190Y-110181723D01*
X144376190Y-110181723D02*
X144280952Y-110181723D01*
X144328571Y-110419819D02*
X144233333Y-110372200D01*
X144233333Y-110372200D02*
X144138095Y-110276961D01*
X144138095Y-110276961D02*
X144090476Y-110086485D01*
X144090476Y-110086485D02*
X144090476Y-109753152D01*
X144090476Y-109753152D02*
X144138095Y-109562676D01*
X144138095Y-109562676D02*
X144233333Y-109467438D01*
X144233333Y-109467438D02*
X144328571Y-109419819D01*
X144328571Y-109419819D02*
X144519047Y-109419819D01*
X144519047Y-109419819D02*
X144614285Y-109467438D01*
X144614285Y-109467438D02*
X144709523Y-109562676D01*
X144709523Y-109562676D02*
X144757142Y-109753152D01*
X144757142Y-109753152D02*
X144757142Y-110086485D01*
X144757142Y-110086485D02*
X144709523Y-110276961D01*
X144709523Y-110276961D02*
X144614285Y-110372200D01*
X144614285Y-110372200D02*
X144519047Y-110419819D01*
X144519047Y-110419819D02*
X144328571Y-110419819D01*
X145614285Y-109753152D02*
X145614285Y-110419819D01*
X145376190Y-109372200D02*
X145138095Y-110086485D01*
X145138095Y-110086485D02*
X145757142Y-110086485D01*
X136661905Y-104664819D02*
X136661905Y-103664819D01*
X136661905Y-103664819D02*
X136900000Y-103664819D01*
X136900000Y-103664819D02*
X137042857Y-103712438D01*
X137042857Y-103712438D02*
X137138095Y-103807676D01*
X137138095Y-103807676D02*
X137185714Y-103902914D01*
X137185714Y-103902914D02*
X137233333Y-104093390D01*
X137233333Y-104093390D02*
X137233333Y-104236247D01*
X137233333Y-104236247D02*
X137185714Y-104426723D01*
X137185714Y-104426723D02*
X137138095Y-104521961D01*
X137138095Y-104521961D02*
X137042857Y-104617200D01*
X137042857Y-104617200D02*
X136900000Y-104664819D01*
X136900000Y-104664819D02*
X136661905Y-104664819D01*
X137614286Y-103760057D02*
X137661905Y-103712438D01*
X137661905Y-103712438D02*
X137757143Y-103664819D01*
X137757143Y-103664819D02*
X137995238Y-103664819D01*
X137995238Y-103664819D02*
X138090476Y-103712438D01*
X138090476Y-103712438D02*
X138138095Y-103760057D01*
X138138095Y-103760057D02*
X138185714Y-103855295D01*
X138185714Y-103855295D02*
X138185714Y-103950533D01*
X138185714Y-103950533D02*
X138138095Y-104093390D01*
X138138095Y-104093390D02*
X137566667Y-104664819D01*
X137566667Y-104664819D02*
X138185714Y-104664819D01*
X144561905Y-100124819D02*
X144561905Y-99124819D01*
X144561905Y-99124819D02*
X144800000Y-99124819D01*
X144800000Y-99124819D02*
X144942857Y-99172438D01*
X144942857Y-99172438D02*
X145038095Y-99267676D01*
X145038095Y-99267676D02*
X145085714Y-99362914D01*
X145085714Y-99362914D02*
X145133333Y-99553390D01*
X145133333Y-99553390D02*
X145133333Y-99696247D01*
X145133333Y-99696247D02*
X145085714Y-99886723D01*
X145085714Y-99886723D02*
X145038095Y-99981961D01*
X145038095Y-99981961D02*
X144942857Y-100077200D01*
X144942857Y-100077200D02*
X144800000Y-100124819D01*
X144800000Y-100124819D02*
X144561905Y-100124819D01*
X145990476Y-99458152D02*
X145990476Y-100124819D01*
X145752381Y-99077200D02*
X145514286Y-99791485D01*
X145514286Y-99791485D02*
X146133333Y-99791485D01*
X105804761Y-127560057D02*
X105709523Y-127512438D01*
X105709523Y-127512438D02*
X105614285Y-127417200D01*
X105614285Y-127417200D02*
X105471428Y-127274342D01*
X105471428Y-127274342D02*
X105376190Y-127226723D01*
X105376190Y-127226723D02*
X105280952Y-127226723D01*
X105328571Y-127464819D02*
X105233333Y-127417200D01*
X105233333Y-127417200D02*
X105138095Y-127321961D01*
X105138095Y-127321961D02*
X105090476Y-127131485D01*
X105090476Y-127131485D02*
X105090476Y-126798152D01*
X105090476Y-126798152D02*
X105138095Y-126607676D01*
X105138095Y-126607676D02*
X105233333Y-126512438D01*
X105233333Y-126512438D02*
X105328571Y-126464819D01*
X105328571Y-126464819D02*
X105519047Y-126464819D01*
X105519047Y-126464819D02*
X105614285Y-126512438D01*
X105614285Y-126512438D02*
X105709523Y-126607676D01*
X105709523Y-126607676D02*
X105757142Y-126798152D01*
X105757142Y-126798152D02*
X105757142Y-127131485D01*
X105757142Y-127131485D02*
X105709523Y-127321961D01*
X105709523Y-127321961D02*
X105614285Y-127417200D01*
X105614285Y-127417200D02*
X105519047Y-127464819D01*
X105519047Y-127464819D02*
X105328571Y-127464819D01*
X106709523Y-127464819D02*
X106138095Y-127464819D01*
X106423809Y-127464819D02*
X106423809Y-126464819D01*
X106423809Y-126464819D02*
X106328571Y-126607676D01*
X106328571Y-126607676D02*
X106233333Y-126702914D01*
X106233333Y-126702914D02*
X106138095Y-126750533D01*
X111961905Y-129024819D02*
X111961905Y-128024819D01*
X111961905Y-128024819D02*
X112200000Y-128024819D01*
X112200000Y-128024819D02*
X112342857Y-128072438D01*
X112342857Y-128072438D02*
X112438095Y-128167676D01*
X112438095Y-128167676D02*
X112485714Y-128262914D01*
X112485714Y-128262914D02*
X112533333Y-128453390D01*
X112533333Y-128453390D02*
X112533333Y-128596247D01*
X112533333Y-128596247D02*
X112485714Y-128786723D01*
X112485714Y-128786723D02*
X112438095Y-128881961D01*
X112438095Y-128881961D02*
X112342857Y-128977200D01*
X112342857Y-128977200D02*
X112200000Y-129024819D01*
X112200000Y-129024819D02*
X111961905Y-129024819D01*
X113390476Y-128024819D02*
X113200000Y-128024819D01*
X113200000Y-128024819D02*
X113104762Y-128072438D01*
X113104762Y-128072438D02*
X113057143Y-128120057D01*
X113057143Y-128120057D02*
X112961905Y-128262914D01*
X112961905Y-128262914D02*
X112914286Y-128453390D01*
X112914286Y-128453390D02*
X112914286Y-128834342D01*
X112914286Y-128834342D02*
X112961905Y-128929580D01*
X112961905Y-128929580D02*
X113009524Y-128977200D01*
X113009524Y-128977200D02*
X113104762Y-129024819D01*
X113104762Y-129024819D02*
X113295238Y-129024819D01*
X113295238Y-129024819D02*
X113390476Y-128977200D01*
X113390476Y-128977200D02*
X113438095Y-128929580D01*
X113438095Y-128929580D02*
X113485714Y-128834342D01*
X113485714Y-128834342D02*
X113485714Y-128596247D01*
X113485714Y-128596247D02*
X113438095Y-128501009D01*
X113438095Y-128501009D02*
X113390476Y-128453390D01*
X113390476Y-128453390D02*
X113295238Y-128405771D01*
X113295238Y-128405771D02*
X113104762Y-128405771D01*
X113104762Y-128405771D02*
X113009524Y-128453390D01*
X113009524Y-128453390D02*
X112961905Y-128501009D01*
X112961905Y-128501009D02*
X112914286Y-128596247D01*
X105104761Y-139770057D02*
X105009523Y-139722438D01*
X105009523Y-139722438D02*
X104914285Y-139627200D01*
X104914285Y-139627200D02*
X104771428Y-139484342D01*
X104771428Y-139484342D02*
X104676190Y-139436723D01*
X104676190Y-139436723D02*
X104580952Y-139436723D01*
X104628571Y-139674819D02*
X104533333Y-139627200D01*
X104533333Y-139627200D02*
X104438095Y-139531961D01*
X104438095Y-139531961D02*
X104390476Y-139341485D01*
X104390476Y-139341485D02*
X104390476Y-139008152D01*
X104390476Y-139008152D02*
X104438095Y-138817676D01*
X104438095Y-138817676D02*
X104533333Y-138722438D01*
X104533333Y-138722438D02*
X104628571Y-138674819D01*
X104628571Y-138674819D02*
X104819047Y-138674819D01*
X104819047Y-138674819D02*
X104914285Y-138722438D01*
X104914285Y-138722438D02*
X105009523Y-138817676D01*
X105009523Y-138817676D02*
X105057142Y-139008152D01*
X105057142Y-139008152D02*
X105057142Y-139341485D01*
X105057142Y-139341485D02*
X105009523Y-139531961D01*
X105009523Y-139531961D02*
X104914285Y-139627200D01*
X104914285Y-139627200D02*
X104819047Y-139674819D01*
X104819047Y-139674819D02*
X104628571Y-139674819D01*
X105438095Y-138770057D02*
X105485714Y-138722438D01*
X105485714Y-138722438D02*
X105580952Y-138674819D01*
X105580952Y-138674819D02*
X105819047Y-138674819D01*
X105819047Y-138674819D02*
X105914285Y-138722438D01*
X105914285Y-138722438D02*
X105961904Y-138770057D01*
X105961904Y-138770057D02*
X106009523Y-138865295D01*
X106009523Y-138865295D02*
X106009523Y-138960533D01*
X106009523Y-138960533D02*
X105961904Y-139103390D01*
X105961904Y-139103390D02*
X105390476Y-139674819D01*
X105390476Y-139674819D02*
X106009523Y-139674819D01*
X104361905Y-150364819D02*
X104361905Y-149364819D01*
X104361905Y-149364819D02*
X104600000Y-149364819D01*
X104600000Y-149364819D02*
X104742857Y-149412438D01*
X104742857Y-149412438D02*
X104838095Y-149507676D01*
X104838095Y-149507676D02*
X104885714Y-149602914D01*
X104885714Y-149602914D02*
X104933333Y-149793390D01*
X104933333Y-149793390D02*
X104933333Y-149936247D01*
X104933333Y-149936247D02*
X104885714Y-150126723D01*
X104885714Y-150126723D02*
X104838095Y-150221961D01*
X104838095Y-150221961D02*
X104742857Y-150317200D01*
X104742857Y-150317200D02*
X104600000Y-150364819D01*
X104600000Y-150364819D02*
X104361905Y-150364819D01*
X105266667Y-149364819D02*
X105885714Y-149364819D01*
X105885714Y-149364819D02*
X105552381Y-149745771D01*
X105552381Y-149745771D02*
X105695238Y-149745771D01*
X105695238Y-149745771D02*
X105790476Y-149793390D01*
X105790476Y-149793390D02*
X105838095Y-149841009D01*
X105838095Y-149841009D02*
X105885714Y-149936247D01*
X105885714Y-149936247D02*
X105885714Y-150174342D01*
X105885714Y-150174342D02*
X105838095Y-150269580D01*
X105838095Y-150269580D02*
X105790476Y-150317200D01*
X105790476Y-150317200D02*
X105695238Y-150364819D01*
X105695238Y-150364819D02*
X105409524Y-150364819D01*
X105409524Y-150364819D02*
X105314286Y-150317200D01*
X105314286Y-150317200D02*
X105266667Y-150269580D01*
X111861905Y-145124819D02*
X111861905Y-144124819D01*
X111861905Y-144124819D02*
X112100000Y-144124819D01*
X112100000Y-144124819D02*
X112242857Y-144172438D01*
X112242857Y-144172438D02*
X112338095Y-144267676D01*
X112338095Y-144267676D02*
X112385714Y-144362914D01*
X112385714Y-144362914D02*
X112433333Y-144553390D01*
X112433333Y-144553390D02*
X112433333Y-144696247D01*
X112433333Y-144696247D02*
X112385714Y-144886723D01*
X112385714Y-144886723D02*
X112338095Y-144981961D01*
X112338095Y-144981961D02*
X112242857Y-145077200D01*
X112242857Y-145077200D02*
X112100000Y-145124819D01*
X112100000Y-145124819D02*
X111861905Y-145124819D01*
X113338095Y-144124819D02*
X112861905Y-144124819D01*
X112861905Y-144124819D02*
X112814286Y-144601009D01*
X112814286Y-144601009D02*
X112861905Y-144553390D01*
X112861905Y-144553390D02*
X112957143Y-144505771D01*
X112957143Y-144505771D02*
X113195238Y-144505771D01*
X113195238Y-144505771D02*
X113290476Y-144553390D01*
X113290476Y-144553390D02*
X113338095Y-144601009D01*
X113338095Y-144601009D02*
X113385714Y-144696247D01*
X113385714Y-144696247D02*
X113385714Y-144934342D01*
X113385714Y-144934342D02*
X113338095Y-145029580D01*
X113338095Y-145029580D02*
X113290476Y-145077200D01*
X113290476Y-145077200D02*
X113195238Y-145124819D01*
X113195238Y-145124819D02*
X112957143Y-145124819D01*
X112957143Y-145124819D02*
X112861905Y-145077200D01*
X112861905Y-145077200D02*
X112814286Y-145029580D01*
X112504761Y-146485057D02*
X112409523Y-146437438D01*
X112409523Y-146437438D02*
X112314285Y-146342200D01*
X112314285Y-146342200D02*
X112171428Y-146199342D01*
X112171428Y-146199342D02*
X112076190Y-146151723D01*
X112076190Y-146151723D02*
X111980952Y-146151723D01*
X112028571Y-146389819D02*
X111933333Y-146342200D01*
X111933333Y-146342200D02*
X111838095Y-146246961D01*
X111838095Y-146246961D02*
X111790476Y-146056485D01*
X111790476Y-146056485D02*
X111790476Y-145723152D01*
X111790476Y-145723152D02*
X111838095Y-145532676D01*
X111838095Y-145532676D02*
X111933333Y-145437438D01*
X111933333Y-145437438D02*
X112028571Y-145389819D01*
X112028571Y-145389819D02*
X112219047Y-145389819D01*
X112219047Y-145389819D02*
X112314285Y-145437438D01*
X112314285Y-145437438D02*
X112409523Y-145532676D01*
X112409523Y-145532676D02*
X112457142Y-145723152D01*
X112457142Y-145723152D02*
X112457142Y-146056485D01*
X112457142Y-146056485D02*
X112409523Y-146246961D01*
X112409523Y-146246961D02*
X112314285Y-146342200D01*
X112314285Y-146342200D02*
X112219047Y-146389819D01*
X112219047Y-146389819D02*
X112028571Y-146389819D01*
X112790476Y-145389819D02*
X113409523Y-145389819D01*
X113409523Y-145389819D02*
X113076190Y-145770771D01*
X113076190Y-145770771D02*
X113219047Y-145770771D01*
X113219047Y-145770771D02*
X113314285Y-145818390D01*
X113314285Y-145818390D02*
X113361904Y-145866009D01*
X113361904Y-145866009D02*
X113409523Y-145961247D01*
X113409523Y-145961247D02*
X113409523Y-146199342D01*
X113409523Y-146199342D02*
X113361904Y-146294580D01*
X113361904Y-146294580D02*
X113314285Y-146342200D01*
X113314285Y-146342200D02*
X113219047Y-146389819D01*
X113219047Y-146389819D02*
X112933333Y-146389819D01*
X112933333Y-146389819D02*
X112838095Y-146342200D01*
X112838095Y-146342200D02*
X112790476Y-146294580D01*
X112504761Y-140115057D02*
X112409523Y-140067438D01*
X112409523Y-140067438D02*
X112314285Y-139972200D01*
X112314285Y-139972200D02*
X112171428Y-139829342D01*
X112171428Y-139829342D02*
X112076190Y-139781723D01*
X112076190Y-139781723D02*
X111980952Y-139781723D01*
X112028571Y-140019819D02*
X111933333Y-139972200D01*
X111933333Y-139972200D02*
X111838095Y-139876961D01*
X111838095Y-139876961D02*
X111790476Y-139686485D01*
X111790476Y-139686485D02*
X111790476Y-139353152D01*
X111790476Y-139353152D02*
X111838095Y-139162676D01*
X111838095Y-139162676D02*
X111933333Y-139067438D01*
X111933333Y-139067438D02*
X112028571Y-139019819D01*
X112028571Y-139019819D02*
X112219047Y-139019819D01*
X112219047Y-139019819D02*
X112314285Y-139067438D01*
X112314285Y-139067438D02*
X112409523Y-139162676D01*
X112409523Y-139162676D02*
X112457142Y-139353152D01*
X112457142Y-139353152D02*
X112457142Y-139686485D01*
X112457142Y-139686485D02*
X112409523Y-139876961D01*
X112409523Y-139876961D02*
X112314285Y-139972200D01*
X112314285Y-139972200D02*
X112219047Y-140019819D01*
X112219047Y-140019819D02*
X112028571Y-140019819D01*
X113314285Y-139353152D02*
X113314285Y-140019819D01*
X113076190Y-138972200D02*
X112838095Y-139686485D01*
X112838095Y-139686485D02*
X113457142Y-139686485D01*
X104361905Y-134264819D02*
X104361905Y-133264819D01*
X104361905Y-133264819D02*
X104600000Y-133264819D01*
X104600000Y-133264819D02*
X104742857Y-133312438D01*
X104742857Y-133312438D02*
X104838095Y-133407676D01*
X104838095Y-133407676D02*
X104885714Y-133502914D01*
X104885714Y-133502914D02*
X104933333Y-133693390D01*
X104933333Y-133693390D02*
X104933333Y-133836247D01*
X104933333Y-133836247D02*
X104885714Y-134026723D01*
X104885714Y-134026723D02*
X104838095Y-134121961D01*
X104838095Y-134121961D02*
X104742857Y-134217200D01*
X104742857Y-134217200D02*
X104600000Y-134264819D01*
X104600000Y-134264819D02*
X104361905Y-134264819D01*
X105314286Y-133360057D02*
X105361905Y-133312438D01*
X105361905Y-133312438D02*
X105457143Y-133264819D01*
X105457143Y-133264819D02*
X105695238Y-133264819D01*
X105695238Y-133264819D02*
X105790476Y-133312438D01*
X105790476Y-133312438D02*
X105838095Y-133360057D01*
X105838095Y-133360057D02*
X105885714Y-133455295D01*
X105885714Y-133455295D02*
X105885714Y-133550533D01*
X105885714Y-133550533D02*
X105838095Y-133693390D01*
X105838095Y-133693390D02*
X105266667Y-134264819D01*
X105266667Y-134264819D02*
X105885714Y-134264819D01*
X112261905Y-129724819D02*
X112261905Y-128724819D01*
X112261905Y-128724819D02*
X112500000Y-128724819D01*
X112500000Y-128724819D02*
X112642857Y-128772438D01*
X112642857Y-128772438D02*
X112738095Y-128867676D01*
X112738095Y-128867676D02*
X112785714Y-128962914D01*
X112785714Y-128962914D02*
X112833333Y-129153390D01*
X112833333Y-129153390D02*
X112833333Y-129296247D01*
X112833333Y-129296247D02*
X112785714Y-129486723D01*
X112785714Y-129486723D02*
X112738095Y-129581961D01*
X112738095Y-129581961D02*
X112642857Y-129677200D01*
X112642857Y-129677200D02*
X112500000Y-129724819D01*
X112500000Y-129724819D02*
X112261905Y-129724819D01*
X113690476Y-129058152D02*
X113690476Y-129724819D01*
X113452381Y-128677200D02*
X113214286Y-129391485D01*
X113214286Y-129391485D02*
X113833333Y-129391485D01*
X105904761Y-98060057D02*
X105809523Y-98012438D01*
X105809523Y-98012438D02*
X105714285Y-97917200D01*
X105714285Y-97917200D02*
X105571428Y-97774342D01*
X105571428Y-97774342D02*
X105476190Y-97726723D01*
X105476190Y-97726723D02*
X105380952Y-97726723D01*
X105428571Y-97964819D02*
X105333333Y-97917200D01*
X105333333Y-97917200D02*
X105238095Y-97821961D01*
X105238095Y-97821961D02*
X105190476Y-97631485D01*
X105190476Y-97631485D02*
X105190476Y-97298152D01*
X105190476Y-97298152D02*
X105238095Y-97107676D01*
X105238095Y-97107676D02*
X105333333Y-97012438D01*
X105333333Y-97012438D02*
X105428571Y-96964819D01*
X105428571Y-96964819D02*
X105619047Y-96964819D01*
X105619047Y-96964819D02*
X105714285Y-97012438D01*
X105714285Y-97012438D02*
X105809523Y-97107676D01*
X105809523Y-97107676D02*
X105857142Y-97298152D01*
X105857142Y-97298152D02*
X105857142Y-97631485D01*
X105857142Y-97631485D02*
X105809523Y-97821961D01*
X105809523Y-97821961D02*
X105714285Y-97917200D01*
X105714285Y-97917200D02*
X105619047Y-97964819D01*
X105619047Y-97964819D02*
X105428571Y-97964819D01*
X106809523Y-97964819D02*
X106238095Y-97964819D01*
X106523809Y-97964819D02*
X106523809Y-96964819D01*
X106523809Y-96964819D02*
X106428571Y-97107676D01*
X106428571Y-97107676D02*
X106333333Y-97202914D01*
X106333333Y-97202914D02*
X106238095Y-97250533D01*
X112061905Y-99524819D02*
X112061905Y-98524819D01*
X112061905Y-98524819D02*
X112300000Y-98524819D01*
X112300000Y-98524819D02*
X112442857Y-98572438D01*
X112442857Y-98572438D02*
X112538095Y-98667676D01*
X112538095Y-98667676D02*
X112585714Y-98762914D01*
X112585714Y-98762914D02*
X112633333Y-98953390D01*
X112633333Y-98953390D02*
X112633333Y-99096247D01*
X112633333Y-99096247D02*
X112585714Y-99286723D01*
X112585714Y-99286723D02*
X112538095Y-99381961D01*
X112538095Y-99381961D02*
X112442857Y-99477200D01*
X112442857Y-99477200D02*
X112300000Y-99524819D01*
X112300000Y-99524819D02*
X112061905Y-99524819D01*
X113490476Y-98524819D02*
X113300000Y-98524819D01*
X113300000Y-98524819D02*
X113204762Y-98572438D01*
X113204762Y-98572438D02*
X113157143Y-98620057D01*
X113157143Y-98620057D02*
X113061905Y-98762914D01*
X113061905Y-98762914D02*
X113014286Y-98953390D01*
X113014286Y-98953390D02*
X113014286Y-99334342D01*
X113014286Y-99334342D02*
X113061905Y-99429580D01*
X113061905Y-99429580D02*
X113109524Y-99477200D01*
X113109524Y-99477200D02*
X113204762Y-99524819D01*
X113204762Y-99524819D02*
X113395238Y-99524819D01*
X113395238Y-99524819D02*
X113490476Y-99477200D01*
X113490476Y-99477200D02*
X113538095Y-99429580D01*
X113538095Y-99429580D02*
X113585714Y-99334342D01*
X113585714Y-99334342D02*
X113585714Y-99096247D01*
X113585714Y-99096247D02*
X113538095Y-99001009D01*
X113538095Y-99001009D02*
X113490476Y-98953390D01*
X113490476Y-98953390D02*
X113395238Y-98905771D01*
X113395238Y-98905771D02*
X113204762Y-98905771D01*
X113204762Y-98905771D02*
X113109524Y-98953390D01*
X113109524Y-98953390D02*
X113061905Y-99001009D01*
X113061905Y-99001009D02*
X113014286Y-99096247D01*
X105204761Y-110270057D02*
X105109523Y-110222438D01*
X105109523Y-110222438D02*
X105014285Y-110127200D01*
X105014285Y-110127200D02*
X104871428Y-109984342D01*
X104871428Y-109984342D02*
X104776190Y-109936723D01*
X104776190Y-109936723D02*
X104680952Y-109936723D01*
X104728571Y-110174819D02*
X104633333Y-110127200D01*
X104633333Y-110127200D02*
X104538095Y-110031961D01*
X104538095Y-110031961D02*
X104490476Y-109841485D01*
X104490476Y-109841485D02*
X104490476Y-109508152D01*
X104490476Y-109508152D02*
X104538095Y-109317676D01*
X104538095Y-109317676D02*
X104633333Y-109222438D01*
X104633333Y-109222438D02*
X104728571Y-109174819D01*
X104728571Y-109174819D02*
X104919047Y-109174819D01*
X104919047Y-109174819D02*
X105014285Y-109222438D01*
X105014285Y-109222438D02*
X105109523Y-109317676D01*
X105109523Y-109317676D02*
X105157142Y-109508152D01*
X105157142Y-109508152D02*
X105157142Y-109841485D01*
X105157142Y-109841485D02*
X105109523Y-110031961D01*
X105109523Y-110031961D02*
X105014285Y-110127200D01*
X105014285Y-110127200D02*
X104919047Y-110174819D01*
X104919047Y-110174819D02*
X104728571Y-110174819D01*
X105538095Y-109270057D02*
X105585714Y-109222438D01*
X105585714Y-109222438D02*
X105680952Y-109174819D01*
X105680952Y-109174819D02*
X105919047Y-109174819D01*
X105919047Y-109174819D02*
X106014285Y-109222438D01*
X106014285Y-109222438D02*
X106061904Y-109270057D01*
X106061904Y-109270057D02*
X106109523Y-109365295D01*
X106109523Y-109365295D02*
X106109523Y-109460533D01*
X106109523Y-109460533D02*
X106061904Y-109603390D01*
X106061904Y-109603390D02*
X105490476Y-110174819D01*
X105490476Y-110174819D02*
X106109523Y-110174819D01*
X104461905Y-120864819D02*
X104461905Y-119864819D01*
X104461905Y-119864819D02*
X104700000Y-119864819D01*
X104700000Y-119864819D02*
X104842857Y-119912438D01*
X104842857Y-119912438D02*
X104938095Y-120007676D01*
X104938095Y-120007676D02*
X104985714Y-120102914D01*
X104985714Y-120102914D02*
X105033333Y-120293390D01*
X105033333Y-120293390D02*
X105033333Y-120436247D01*
X105033333Y-120436247D02*
X104985714Y-120626723D01*
X104985714Y-120626723D02*
X104938095Y-120721961D01*
X104938095Y-120721961D02*
X104842857Y-120817200D01*
X104842857Y-120817200D02*
X104700000Y-120864819D01*
X104700000Y-120864819D02*
X104461905Y-120864819D01*
X105366667Y-119864819D02*
X105985714Y-119864819D01*
X105985714Y-119864819D02*
X105652381Y-120245771D01*
X105652381Y-120245771D02*
X105795238Y-120245771D01*
X105795238Y-120245771D02*
X105890476Y-120293390D01*
X105890476Y-120293390D02*
X105938095Y-120341009D01*
X105938095Y-120341009D02*
X105985714Y-120436247D01*
X105985714Y-120436247D02*
X105985714Y-120674342D01*
X105985714Y-120674342D02*
X105938095Y-120769580D01*
X105938095Y-120769580D02*
X105890476Y-120817200D01*
X105890476Y-120817200D02*
X105795238Y-120864819D01*
X105795238Y-120864819D02*
X105509524Y-120864819D01*
X105509524Y-120864819D02*
X105414286Y-120817200D01*
X105414286Y-120817200D02*
X105366667Y-120769580D01*
X111961905Y-115624819D02*
X111961905Y-114624819D01*
X111961905Y-114624819D02*
X112200000Y-114624819D01*
X112200000Y-114624819D02*
X112342857Y-114672438D01*
X112342857Y-114672438D02*
X112438095Y-114767676D01*
X112438095Y-114767676D02*
X112485714Y-114862914D01*
X112485714Y-114862914D02*
X112533333Y-115053390D01*
X112533333Y-115053390D02*
X112533333Y-115196247D01*
X112533333Y-115196247D02*
X112485714Y-115386723D01*
X112485714Y-115386723D02*
X112438095Y-115481961D01*
X112438095Y-115481961D02*
X112342857Y-115577200D01*
X112342857Y-115577200D02*
X112200000Y-115624819D01*
X112200000Y-115624819D02*
X111961905Y-115624819D01*
X113438095Y-114624819D02*
X112961905Y-114624819D01*
X112961905Y-114624819D02*
X112914286Y-115101009D01*
X112914286Y-115101009D02*
X112961905Y-115053390D01*
X112961905Y-115053390D02*
X113057143Y-115005771D01*
X113057143Y-115005771D02*
X113295238Y-115005771D01*
X113295238Y-115005771D02*
X113390476Y-115053390D01*
X113390476Y-115053390D02*
X113438095Y-115101009D01*
X113438095Y-115101009D02*
X113485714Y-115196247D01*
X113485714Y-115196247D02*
X113485714Y-115434342D01*
X113485714Y-115434342D02*
X113438095Y-115529580D01*
X113438095Y-115529580D02*
X113390476Y-115577200D01*
X113390476Y-115577200D02*
X113295238Y-115624819D01*
X113295238Y-115624819D02*
X113057143Y-115624819D01*
X113057143Y-115624819D02*
X112961905Y-115577200D01*
X112961905Y-115577200D02*
X112914286Y-115529580D01*
X112604761Y-116985057D02*
X112509523Y-116937438D01*
X112509523Y-116937438D02*
X112414285Y-116842200D01*
X112414285Y-116842200D02*
X112271428Y-116699342D01*
X112271428Y-116699342D02*
X112176190Y-116651723D01*
X112176190Y-116651723D02*
X112080952Y-116651723D01*
X112128571Y-116889819D02*
X112033333Y-116842200D01*
X112033333Y-116842200D02*
X111938095Y-116746961D01*
X111938095Y-116746961D02*
X111890476Y-116556485D01*
X111890476Y-116556485D02*
X111890476Y-116223152D01*
X111890476Y-116223152D02*
X111938095Y-116032676D01*
X111938095Y-116032676D02*
X112033333Y-115937438D01*
X112033333Y-115937438D02*
X112128571Y-115889819D01*
X112128571Y-115889819D02*
X112319047Y-115889819D01*
X112319047Y-115889819D02*
X112414285Y-115937438D01*
X112414285Y-115937438D02*
X112509523Y-116032676D01*
X112509523Y-116032676D02*
X112557142Y-116223152D01*
X112557142Y-116223152D02*
X112557142Y-116556485D01*
X112557142Y-116556485D02*
X112509523Y-116746961D01*
X112509523Y-116746961D02*
X112414285Y-116842200D01*
X112414285Y-116842200D02*
X112319047Y-116889819D01*
X112319047Y-116889819D02*
X112128571Y-116889819D01*
X112890476Y-115889819D02*
X113509523Y-115889819D01*
X113509523Y-115889819D02*
X113176190Y-116270771D01*
X113176190Y-116270771D02*
X113319047Y-116270771D01*
X113319047Y-116270771D02*
X113414285Y-116318390D01*
X113414285Y-116318390D02*
X113461904Y-116366009D01*
X113461904Y-116366009D02*
X113509523Y-116461247D01*
X113509523Y-116461247D02*
X113509523Y-116699342D01*
X113509523Y-116699342D02*
X113461904Y-116794580D01*
X113461904Y-116794580D02*
X113414285Y-116842200D01*
X113414285Y-116842200D02*
X113319047Y-116889819D01*
X113319047Y-116889819D02*
X113033333Y-116889819D01*
X113033333Y-116889819D02*
X112938095Y-116842200D01*
X112938095Y-116842200D02*
X112890476Y-116794580D01*
X112604761Y-110615057D02*
X112509523Y-110567438D01*
X112509523Y-110567438D02*
X112414285Y-110472200D01*
X112414285Y-110472200D02*
X112271428Y-110329342D01*
X112271428Y-110329342D02*
X112176190Y-110281723D01*
X112176190Y-110281723D02*
X112080952Y-110281723D01*
X112128571Y-110519819D02*
X112033333Y-110472200D01*
X112033333Y-110472200D02*
X111938095Y-110376961D01*
X111938095Y-110376961D02*
X111890476Y-110186485D01*
X111890476Y-110186485D02*
X111890476Y-109853152D01*
X111890476Y-109853152D02*
X111938095Y-109662676D01*
X111938095Y-109662676D02*
X112033333Y-109567438D01*
X112033333Y-109567438D02*
X112128571Y-109519819D01*
X112128571Y-109519819D02*
X112319047Y-109519819D01*
X112319047Y-109519819D02*
X112414285Y-109567438D01*
X112414285Y-109567438D02*
X112509523Y-109662676D01*
X112509523Y-109662676D02*
X112557142Y-109853152D01*
X112557142Y-109853152D02*
X112557142Y-110186485D01*
X112557142Y-110186485D02*
X112509523Y-110376961D01*
X112509523Y-110376961D02*
X112414285Y-110472200D01*
X112414285Y-110472200D02*
X112319047Y-110519819D01*
X112319047Y-110519819D02*
X112128571Y-110519819D01*
X113414285Y-109853152D02*
X113414285Y-110519819D01*
X113176190Y-109472200D02*
X112938095Y-110186485D01*
X112938095Y-110186485D02*
X113557142Y-110186485D01*
X104461905Y-104764819D02*
X104461905Y-103764819D01*
X104461905Y-103764819D02*
X104700000Y-103764819D01*
X104700000Y-103764819D02*
X104842857Y-103812438D01*
X104842857Y-103812438D02*
X104938095Y-103907676D01*
X104938095Y-103907676D02*
X104985714Y-104002914D01*
X104985714Y-104002914D02*
X105033333Y-104193390D01*
X105033333Y-104193390D02*
X105033333Y-104336247D01*
X105033333Y-104336247D02*
X104985714Y-104526723D01*
X104985714Y-104526723D02*
X104938095Y-104621961D01*
X104938095Y-104621961D02*
X104842857Y-104717200D01*
X104842857Y-104717200D02*
X104700000Y-104764819D01*
X104700000Y-104764819D02*
X104461905Y-104764819D01*
X105414286Y-103860057D02*
X105461905Y-103812438D01*
X105461905Y-103812438D02*
X105557143Y-103764819D01*
X105557143Y-103764819D02*
X105795238Y-103764819D01*
X105795238Y-103764819D02*
X105890476Y-103812438D01*
X105890476Y-103812438D02*
X105938095Y-103860057D01*
X105938095Y-103860057D02*
X105985714Y-103955295D01*
X105985714Y-103955295D02*
X105985714Y-104050533D01*
X105985714Y-104050533D02*
X105938095Y-104193390D01*
X105938095Y-104193390D02*
X105366667Y-104764819D01*
X105366667Y-104764819D02*
X105985714Y-104764819D01*
X112361905Y-100224819D02*
X112361905Y-99224819D01*
X112361905Y-99224819D02*
X112600000Y-99224819D01*
X112600000Y-99224819D02*
X112742857Y-99272438D01*
X112742857Y-99272438D02*
X112838095Y-99367676D01*
X112838095Y-99367676D02*
X112885714Y-99462914D01*
X112885714Y-99462914D02*
X112933333Y-99653390D01*
X112933333Y-99653390D02*
X112933333Y-99796247D01*
X112933333Y-99796247D02*
X112885714Y-99986723D01*
X112885714Y-99986723D02*
X112838095Y-100081961D01*
X112838095Y-100081961D02*
X112742857Y-100177200D01*
X112742857Y-100177200D02*
X112600000Y-100224819D01*
X112600000Y-100224819D02*
X112361905Y-100224819D01*
X113790476Y-99558152D02*
X113790476Y-100224819D01*
X113552381Y-99177200D02*
X113314286Y-99891485D01*
X113314286Y-99891485D02*
X113933333Y-99891485D01*
X74604761Y-98260057D02*
X74509523Y-98212438D01*
X74509523Y-98212438D02*
X74414285Y-98117200D01*
X74414285Y-98117200D02*
X74271428Y-97974342D01*
X74271428Y-97974342D02*
X74176190Y-97926723D01*
X74176190Y-97926723D02*
X74080952Y-97926723D01*
X74128571Y-98164819D02*
X74033333Y-98117200D01*
X74033333Y-98117200D02*
X73938095Y-98021961D01*
X73938095Y-98021961D02*
X73890476Y-97831485D01*
X73890476Y-97831485D02*
X73890476Y-97498152D01*
X73890476Y-97498152D02*
X73938095Y-97307676D01*
X73938095Y-97307676D02*
X74033333Y-97212438D01*
X74033333Y-97212438D02*
X74128571Y-97164819D01*
X74128571Y-97164819D02*
X74319047Y-97164819D01*
X74319047Y-97164819D02*
X74414285Y-97212438D01*
X74414285Y-97212438D02*
X74509523Y-97307676D01*
X74509523Y-97307676D02*
X74557142Y-97498152D01*
X74557142Y-97498152D02*
X74557142Y-97831485D01*
X74557142Y-97831485D02*
X74509523Y-98021961D01*
X74509523Y-98021961D02*
X74414285Y-98117200D01*
X74414285Y-98117200D02*
X74319047Y-98164819D01*
X74319047Y-98164819D02*
X74128571Y-98164819D01*
X75509523Y-98164819D02*
X74938095Y-98164819D01*
X75223809Y-98164819D02*
X75223809Y-97164819D01*
X75223809Y-97164819D02*
X75128571Y-97307676D01*
X75128571Y-97307676D02*
X75033333Y-97402914D01*
X75033333Y-97402914D02*
X74938095Y-97450533D01*
X80761905Y-99724819D02*
X80761905Y-98724819D01*
X80761905Y-98724819D02*
X81000000Y-98724819D01*
X81000000Y-98724819D02*
X81142857Y-98772438D01*
X81142857Y-98772438D02*
X81238095Y-98867676D01*
X81238095Y-98867676D02*
X81285714Y-98962914D01*
X81285714Y-98962914D02*
X81333333Y-99153390D01*
X81333333Y-99153390D02*
X81333333Y-99296247D01*
X81333333Y-99296247D02*
X81285714Y-99486723D01*
X81285714Y-99486723D02*
X81238095Y-99581961D01*
X81238095Y-99581961D02*
X81142857Y-99677200D01*
X81142857Y-99677200D02*
X81000000Y-99724819D01*
X81000000Y-99724819D02*
X80761905Y-99724819D01*
X82190476Y-98724819D02*
X82000000Y-98724819D01*
X82000000Y-98724819D02*
X81904762Y-98772438D01*
X81904762Y-98772438D02*
X81857143Y-98820057D01*
X81857143Y-98820057D02*
X81761905Y-98962914D01*
X81761905Y-98962914D02*
X81714286Y-99153390D01*
X81714286Y-99153390D02*
X81714286Y-99534342D01*
X81714286Y-99534342D02*
X81761905Y-99629580D01*
X81761905Y-99629580D02*
X81809524Y-99677200D01*
X81809524Y-99677200D02*
X81904762Y-99724819D01*
X81904762Y-99724819D02*
X82095238Y-99724819D01*
X82095238Y-99724819D02*
X82190476Y-99677200D01*
X82190476Y-99677200D02*
X82238095Y-99629580D01*
X82238095Y-99629580D02*
X82285714Y-99534342D01*
X82285714Y-99534342D02*
X82285714Y-99296247D01*
X82285714Y-99296247D02*
X82238095Y-99201009D01*
X82238095Y-99201009D02*
X82190476Y-99153390D01*
X82190476Y-99153390D02*
X82095238Y-99105771D01*
X82095238Y-99105771D02*
X81904762Y-99105771D01*
X81904762Y-99105771D02*
X81809524Y-99153390D01*
X81809524Y-99153390D02*
X81761905Y-99201009D01*
X81761905Y-99201009D02*
X81714286Y-99296247D01*
X73904761Y-110470057D02*
X73809523Y-110422438D01*
X73809523Y-110422438D02*
X73714285Y-110327200D01*
X73714285Y-110327200D02*
X73571428Y-110184342D01*
X73571428Y-110184342D02*
X73476190Y-110136723D01*
X73476190Y-110136723D02*
X73380952Y-110136723D01*
X73428571Y-110374819D02*
X73333333Y-110327200D01*
X73333333Y-110327200D02*
X73238095Y-110231961D01*
X73238095Y-110231961D02*
X73190476Y-110041485D01*
X73190476Y-110041485D02*
X73190476Y-109708152D01*
X73190476Y-109708152D02*
X73238095Y-109517676D01*
X73238095Y-109517676D02*
X73333333Y-109422438D01*
X73333333Y-109422438D02*
X73428571Y-109374819D01*
X73428571Y-109374819D02*
X73619047Y-109374819D01*
X73619047Y-109374819D02*
X73714285Y-109422438D01*
X73714285Y-109422438D02*
X73809523Y-109517676D01*
X73809523Y-109517676D02*
X73857142Y-109708152D01*
X73857142Y-109708152D02*
X73857142Y-110041485D01*
X73857142Y-110041485D02*
X73809523Y-110231961D01*
X73809523Y-110231961D02*
X73714285Y-110327200D01*
X73714285Y-110327200D02*
X73619047Y-110374819D01*
X73619047Y-110374819D02*
X73428571Y-110374819D01*
X74238095Y-109470057D02*
X74285714Y-109422438D01*
X74285714Y-109422438D02*
X74380952Y-109374819D01*
X74380952Y-109374819D02*
X74619047Y-109374819D01*
X74619047Y-109374819D02*
X74714285Y-109422438D01*
X74714285Y-109422438D02*
X74761904Y-109470057D01*
X74761904Y-109470057D02*
X74809523Y-109565295D01*
X74809523Y-109565295D02*
X74809523Y-109660533D01*
X74809523Y-109660533D02*
X74761904Y-109803390D01*
X74761904Y-109803390D02*
X74190476Y-110374819D01*
X74190476Y-110374819D02*
X74809523Y-110374819D01*
X73161905Y-121064819D02*
X73161905Y-120064819D01*
X73161905Y-120064819D02*
X73400000Y-120064819D01*
X73400000Y-120064819D02*
X73542857Y-120112438D01*
X73542857Y-120112438D02*
X73638095Y-120207676D01*
X73638095Y-120207676D02*
X73685714Y-120302914D01*
X73685714Y-120302914D02*
X73733333Y-120493390D01*
X73733333Y-120493390D02*
X73733333Y-120636247D01*
X73733333Y-120636247D02*
X73685714Y-120826723D01*
X73685714Y-120826723D02*
X73638095Y-120921961D01*
X73638095Y-120921961D02*
X73542857Y-121017200D01*
X73542857Y-121017200D02*
X73400000Y-121064819D01*
X73400000Y-121064819D02*
X73161905Y-121064819D01*
X74066667Y-120064819D02*
X74685714Y-120064819D01*
X74685714Y-120064819D02*
X74352381Y-120445771D01*
X74352381Y-120445771D02*
X74495238Y-120445771D01*
X74495238Y-120445771D02*
X74590476Y-120493390D01*
X74590476Y-120493390D02*
X74638095Y-120541009D01*
X74638095Y-120541009D02*
X74685714Y-120636247D01*
X74685714Y-120636247D02*
X74685714Y-120874342D01*
X74685714Y-120874342D02*
X74638095Y-120969580D01*
X74638095Y-120969580D02*
X74590476Y-121017200D01*
X74590476Y-121017200D02*
X74495238Y-121064819D01*
X74495238Y-121064819D02*
X74209524Y-121064819D01*
X74209524Y-121064819D02*
X74114286Y-121017200D01*
X74114286Y-121017200D02*
X74066667Y-120969580D01*
X80661905Y-115824819D02*
X80661905Y-114824819D01*
X80661905Y-114824819D02*
X80900000Y-114824819D01*
X80900000Y-114824819D02*
X81042857Y-114872438D01*
X81042857Y-114872438D02*
X81138095Y-114967676D01*
X81138095Y-114967676D02*
X81185714Y-115062914D01*
X81185714Y-115062914D02*
X81233333Y-115253390D01*
X81233333Y-115253390D02*
X81233333Y-115396247D01*
X81233333Y-115396247D02*
X81185714Y-115586723D01*
X81185714Y-115586723D02*
X81138095Y-115681961D01*
X81138095Y-115681961D02*
X81042857Y-115777200D01*
X81042857Y-115777200D02*
X80900000Y-115824819D01*
X80900000Y-115824819D02*
X80661905Y-115824819D01*
X82138095Y-114824819D02*
X81661905Y-114824819D01*
X81661905Y-114824819D02*
X81614286Y-115301009D01*
X81614286Y-115301009D02*
X81661905Y-115253390D01*
X81661905Y-115253390D02*
X81757143Y-115205771D01*
X81757143Y-115205771D02*
X81995238Y-115205771D01*
X81995238Y-115205771D02*
X82090476Y-115253390D01*
X82090476Y-115253390D02*
X82138095Y-115301009D01*
X82138095Y-115301009D02*
X82185714Y-115396247D01*
X82185714Y-115396247D02*
X82185714Y-115634342D01*
X82185714Y-115634342D02*
X82138095Y-115729580D01*
X82138095Y-115729580D02*
X82090476Y-115777200D01*
X82090476Y-115777200D02*
X81995238Y-115824819D01*
X81995238Y-115824819D02*
X81757143Y-115824819D01*
X81757143Y-115824819D02*
X81661905Y-115777200D01*
X81661905Y-115777200D02*
X81614286Y-115729580D01*
X81304761Y-117185057D02*
X81209523Y-117137438D01*
X81209523Y-117137438D02*
X81114285Y-117042200D01*
X81114285Y-117042200D02*
X80971428Y-116899342D01*
X80971428Y-116899342D02*
X80876190Y-116851723D01*
X80876190Y-116851723D02*
X80780952Y-116851723D01*
X80828571Y-117089819D02*
X80733333Y-117042200D01*
X80733333Y-117042200D02*
X80638095Y-116946961D01*
X80638095Y-116946961D02*
X80590476Y-116756485D01*
X80590476Y-116756485D02*
X80590476Y-116423152D01*
X80590476Y-116423152D02*
X80638095Y-116232676D01*
X80638095Y-116232676D02*
X80733333Y-116137438D01*
X80733333Y-116137438D02*
X80828571Y-116089819D01*
X80828571Y-116089819D02*
X81019047Y-116089819D01*
X81019047Y-116089819D02*
X81114285Y-116137438D01*
X81114285Y-116137438D02*
X81209523Y-116232676D01*
X81209523Y-116232676D02*
X81257142Y-116423152D01*
X81257142Y-116423152D02*
X81257142Y-116756485D01*
X81257142Y-116756485D02*
X81209523Y-116946961D01*
X81209523Y-116946961D02*
X81114285Y-117042200D01*
X81114285Y-117042200D02*
X81019047Y-117089819D01*
X81019047Y-117089819D02*
X80828571Y-117089819D01*
X81590476Y-116089819D02*
X82209523Y-116089819D01*
X82209523Y-116089819D02*
X81876190Y-116470771D01*
X81876190Y-116470771D02*
X82019047Y-116470771D01*
X82019047Y-116470771D02*
X82114285Y-116518390D01*
X82114285Y-116518390D02*
X82161904Y-116566009D01*
X82161904Y-116566009D02*
X82209523Y-116661247D01*
X82209523Y-116661247D02*
X82209523Y-116899342D01*
X82209523Y-116899342D02*
X82161904Y-116994580D01*
X82161904Y-116994580D02*
X82114285Y-117042200D01*
X82114285Y-117042200D02*
X82019047Y-117089819D01*
X82019047Y-117089819D02*
X81733333Y-117089819D01*
X81733333Y-117089819D02*
X81638095Y-117042200D01*
X81638095Y-117042200D02*
X81590476Y-116994580D01*
X81304761Y-110815057D02*
X81209523Y-110767438D01*
X81209523Y-110767438D02*
X81114285Y-110672200D01*
X81114285Y-110672200D02*
X80971428Y-110529342D01*
X80971428Y-110529342D02*
X80876190Y-110481723D01*
X80876190Y-110481723D02*
X80780952Y-110481723D01*
X80828571Y-110719819D02*
X80733333Y-110672200D01*
X80733333Y-110672200D02*
X80638095Y-110576961D01*
X80638095Y-110576961D02*
X80590476Y-110386485D01*
X80590476Y-110386485D02*
X80590476Y-110053152D01*
X80590476Y-110053152D02*
X80638095Y-109862676D01*
X80638095Y-109862676D02*
X80733333Y-109767438D01*
X80733333Y-109767438D02*
X80828571Y-109719819D01*
X80828571Y-109719819D02*
X81019047Y-109719819D01*
X81019047Y-109719819D02*
X81114285Y-109767438D01*
X81114285Y-109767438D02*
X81209523Y-109862676D01*
X81209523Y-109862676D02*
X81257142Y-110053152D01*
X81257142Y-110053152D02*
X81257142Y-110386485D01*
X81257142Y-110386485D02*
X81209523Y-110576961D01*
X81209523Y-110576961D02*
X81114285Y-110672200D01*
X81114285Y-110672200D02*
X81019047Y-110719819D01*
X81019047Y-110719819D02*
X80828571Y-110719819D01*
X82114285Y-110053152D02*
X82114285Y-110719819D01*
X81876190Y-109672200D02*
X81638095Y-110386485D01*
X81638095Y-110386485D02*
X82257142Y-110386485D01*
X73161905Y-104964819D02*
X73161905Y-103964819D01*
X73161905Y-103964819D02*
X73400000Y-103964819D01*
X73400000Y-103964819D02*
X73542857Y-104012438D01*
X73542857Y-104012438D02*
X73638095Y-104107676D01*
X73638095Y-104107676D02*
X73685714Y-104202914D01*
X73685714Y-104202914D02*
X73733333Y-104393390D01*
X73733333Y-104393390D02*
X73733333Y-104536247D01*
X73733333Y-104536247D02*
X73685714Y-104726723D01*
X73685714Y-104726723D02*
X73638095Y-104821961D01*
X73638095Y-104821961D02*
X73542857Y-104917200D01*
X73542857Y-104917200D02*
X73400000Y-104964819D01*
X73400000Y-104964819D02*
X73161905Y-104964819D01*
X74114286Y-104060057D02*
X74161905Y-104012438D01*
X74161905Y-104012438D02*
X74257143Y-103964819D01*
X74257143Y-103964819D02*
X74495238Y-103964819D01*
X74495238Y-103964819D02*
X74590476Y-104012438D01*
X74590476Y-104012438D02*
X74638095Y-104060057D01*
X74638095Y-104060057D02*
X74685714Y-104155295D01*
X74685714Y-104155295D02*
X74685714Y-104250533D01*
X74685714Y-104250533D02*
X74638095Y-104393390D01*
X74638095Y-104393390D02*
X74066667Y-104964819D01*
X74066667Y-104964819D02*
X74685714Y-104964819D01*
X81061905Y-100424819D02*
X81061905Y-99424819D01*
X81061905Y-99424819D02*
X81300000Y-99424819D01*
X81300000Y-99424819D02*
X81442857Y-99472438D01*
X81442857Y-99472438D02*
X81538095Y-99567676D01*
X81538095Y-99567676D02*
X81585714Y-99662914D01*
X81585714Y-99662914D02*
X81633333Y-99853390D01*
X81633333Y-99853390D02*
X81633333Y-99996247D01*
X81633333Y-99996247D02*
X81585714Y-100186723D01*
X81585714Y-100186723D02*
X81538095Y-100281961D01*
X81538095Y-100281961D02*
X81442857Y-100377200D01*
X81442857Y-100377200D02*
X81300000Y-100424819D01*
X81300000Y-100424819D02*
X81061905Y-100424819D01*
X82490476Y-99758152D02*
X82490476Y-100424819D01*
X82252381Y-99377200D02*
X82014286Y-100091485D01*
X82014286Y-100091485D02*
X82633333Y-100091485D01*
X81356905Y-145309819D02*
X81356905Y-144309819D01*
X81356905Y-144309819D02*
X81595000Y-144309819D01*
X81595000Y-144309819D02*
X81737857Y-144357438D01*
X81737857Y-144357438D02*
X81833095Y-144452676D01*
X81833095Y-144452676D02*
X81880714Y-144547914D01*
X81880714Y-144547914D02*
X81928333Y-144738390D01*
X81928333Y-144738390D02*
X81928333Y-144881247D01*
X81928333Y-144881247D02*
X81880714Y-145071723D01*
X81880714Y-145071723D02*
X81833095Y-145166961D01*
X81833095Y-145166961D02*
X81737857Y-145262200D01*
X81737857Y-145262200D02*
X81595000Y-145309819D01*
X81595000Y-145309819D02*
X81356905Y-145309819D01*
X82833095Y-144309819D02*
X82356905Y-144309819D01*
X82356905Y-144309819D02*
X82309286Y-144786009D01*
X82309286Y-144786009D02*
X82356905Y-144738390D01*
X82356905Y-144738390D02*
X82452143Y-144690771D01*
X82452143Y-144690771D02*
X82690238Y-144690771D01*
X82690238Y-144690771D02*
X82785476Y-144738390D01*
X82785476Y-144738390D02*
X82833095Y-144786009D01*
X82833095Y-144786009D02*
X82880714Y-144881247D01*
X82880714Y-144881247D02*
X82880714Y-145119342D01*
X82880714Y-145119342D02*
X82833095Y-145214580D01*
X82833095Y-145214580D02*
X82785476Y-145262200D01*
X82785476Y-145262200D02*
X82690238Y-145309819D01*
X82690238Y-145309819D02*
X82452143Y-145309819D01*
X82452143Y-145309819D02*
X82356905Y-145262200D01*
X82356905Y-145262200D02*
X82309286Y-145214580D01*
X74599761Y-139955057D02*
X74504523Y-139907438D01*
X74504523Y-139907438D02*
X74409285Y-139812200D01*
X74409285Y-139812200D02*
X74266428Y-139669342D01*
X74266428Y-139669342D02*
X74171190Y-139621723D01*
X74171190Y-139621723D02*
X74075952Y-139621723D01*
X74123571Y-139859819D02*
X74028333Y-139812200D01*
X74028333Y-139812200D02*
X73933095Y-139716961D01*
X73933095Y-139716961D02*
X73885476Y-139526485D01*
X73885476Y-139526485D02*
X73885476Y-139193152D01*
X73885476Y-139193152D02*
X73933095Y-139002676D01*
X73933095Y-139002676D02*
X74028333Y-138907438D01*
X74028333Y-138907438D02*
X74123571Y-138859819D01*
X74123571Y-138859819D02*
X74314047Y-138859819D01*
X74314047Y-138859819D02*
X74409285Y-138907438D01*
X74409285Y-138907438D02*
X74504523Y-139002676D01*
X74504523Y-139002676D02*
X74552142Y-139193152D01*
X74552142Y-139193152D02*
X74552142Y-139526485D01*
X74552142Y-139526485D02*
X74504523Y-139716961D01*
X74504523Y-139716961D02*
X74409285Y-139812200D01*
X74409285Y-139812200D02*
X74314047Y-139859819D01*
X74314047Y-139859819D02*
X74123571Y-139859819D01*
X74933095Y-138955057D02*
X74980714Y-138907438D01*
X74980714Y-138907438D02*
X75075952Y-138859819D01*
X75075952Y-138859819D02*
X75314047Y-138859819D01*
X75314047Y-138859819D02*
X75409285Y-138907438D01*
X75409285Y-138907438D02*
X75456904Y-138955057D01*
X75456904Y-138955057D02*
X75504523Y-139050295D01*
X75504523Y-139050295D02*
X75504523Y-139145533D01*
X75504523Y-139145533D02*
X75456904Y-139288390D01*
X75456904Y-139288390D02*
X74885476Y-139859819D01*
X74885476Y-139859819D02*
X75504523Y-139859819D01*
X73856905Y-150549819D02*
X73856905Y-149549819D01*
X73856905Y-149549819D02*
X74095000Y-149549819D01*
X74095000Y-149549819D02*
X74237857Y-149597438D01*
X74237857Y-149597438D02*
X74333095Y-149692676D01*
X74333095Y-149692676D02*
X74380714Y-149787914D01*
X74380714Y-149787914D02*
X74428333Y-149978390D01*
X74428333Y-149978390D02*
X74428333Y-150121247D01*
X74428333Y-150121247D02*
X74380714Y-150311723D01*
X74380714Y-150311723D02*
X74333095Y-150406961D01*
X74333095Y-150406961D02*
X74237857Y-150502200D01*
X74237857Y-150502200D02*
X74095000Y-150549819D01*
X74095000Y-150549819D02*
X73856905Y-150549819D01*
X74761667Y-149549819D02*
X75380714Y-149549819D01*
X75380714Y-149549819D02*
X75047381Y-149930771D01*
X75047381Y-149930771D02*
X75190238Y-149930771D01*
X75190238Y-149930771D02*
X75285476Y-149978390D01*
X75285476Y-149978390D02*
X75333095Y-150026009D01*
X75333095Y-150026009D02*
X75380714Y-150121247D01*
X75380714Y-150121247D02*
X75380714Y-150359342D01*
X75380714Y-150359342D02*
X75333095Y-150454580D01*
X75333095Y-150454580D02*
X75285476Y-150502200D01*
X75285476Y-150502200D02*
X75190238Y-150549819D01*
X75190238Y-150549819D02*
X74904524Y-150549819D01*
X74904524Y-150549819D02*
X74809286Y-150502200D01*
X74809286Y-150502200D02*
X74761667Y-150454580D01*
X81756905Y-129909819D02*
X81756905Y-128909819D01*
X81756905Y-128909819D02*
X81995000Y-128909819D01*
X81995000Y-128909819D02*
X82137857Y-128957438D01*
X82137857Y-128957438D02*
X82233095Y-129052676D01*
X82233095Y-129052676D02*
X82280714Y-129147914D01*
X82280714Y-129147914D02*
X82328333Y-129338390D01*
X82328333Y-129338390D02*
X82328333Y-129481247D01*
X82328333Y-129481247D02*
X82280714Y-129671723D01*
X82280714Y-129671723D02*
X82233095Y-129766961D01*
X82233095Y-129766961D02*
X82137857Y-129862200D01*
X82137857Y-129862200D02*
X81995000Y-129909819D01*
X81995000Y-129909819D02*
X81756905Y-129909819D01*
X83185476Y-129243152D02*
X83185476Y-129909819D01*
X82947381Y-128862200D02*
X82709286Y-129576485D01*
X82709286Y-129576485D02*
X83328333Y-129576485D01*
X93716666Y-68784819D02*
X93716666Y-69499104D01*
X93716666Y-69499104D02*
X93669047Y-69641961D01*
X93669047Y-69641961D02*
X93573809Y-69737200D01*
X93573809Y-69737200D02*
X93430952Y-69784819D01*
X93430952Y-69784819D02*
X93335714Y-69784819D01*
X94716666Y-69784819D02*
X94145238Y-69784819D01*
X94430952Y-69784819D02*
X94430952Y-68784819D01*
X94430952Y-68784819D02*
X94335714Y-68927676D01*
X94335714Y-68927676D02*
X94240476Y-69022914D01*
X94240476Y-69022914D02*
X94145238Y-69070533D01*
X81999761Y-140300057D02*
X81904523Y-140252438D01*
X81904523Y-140252438D02*
X81809285Y-140157200D01*
X81809285Y-140157200D02*
X81666428Y-140014342D01*
X81666428Y-140014342D02*
X81571190Y-139966723D01*
X81571190Y-139966723D02*
X81475952Y-139966723D01*
X81523571Y-140204819D02*
X81428333Y-140157200D01*
X81428333Y-140157200D02*
X81333095Y-140061961D01*
X81333095Y-140061961D02*
X81285476Y-139871485D01*
X81285476Y-139871485D02*
X81285476Y-139538152D01*
X81285476Y-139538152D02*
X81333095Y-139347676D01*
X81333095Y-139347676D02*
X81428333Y-139252438D01*
X81428333Y-139252438D02*
X81523571Y-139204819D01*
X81523571Y-139204819D02*
X81714047Y-139204819D01*
X81714047Y-139204819D02*
X81809285Y-139252438D01*
X81809285Y-139252438D02*
X81904523Y-139347676D01*
X81904523Y-139347676D02*
X81952142Y-139538152D01*
X81952142Y-139538152D02*
X81952142Y-139871485D01*
X81952142Y-139871485D02*
X81904523Y-140061961D01*
X81904523Y-140061961D02*
X81809285Y-140157200D01*
X81809285Y-140157200D02*
X81714047Y-140204819D01*
X81714047Y-140204819D02*
X81523571Y-140204819D01*
X82809285Y-139538152D02*
X82809285Y-140204819D01*
X82571190Y-139157200D02*
X82333095Y-139871485D01*
X82333095Y-139871485D02*
X82952142Y-139871485D01*
X81999761Y-146670057D02*
X81904523Y-146622438D01*
X81904523Y-146622438D02*
X81809285Y-146527200D01*
X81809285Y-146527200D02*
X81666428Y-146384342D01*
X81666428Y-146384342D02*
X81571190Y-146336723D01*
X81571190Y-146336723D02*
X81475952Y-146336723D01*
X81523571Y-146574819D02*
X81428333Y-146527200D01*
X81428333Y-146527200D02*
X81333095Y-146431961D01*
X81333095Y-146431961D02*
X81285476Y-146241485D01*
X81285476Y-146241485D02*
X81285476Y-145908152D01*
X81285476Y-145908152D02*
X81333095Y-145717676D01*
X81333095Y-145717676D02*
X81428333Y-145622438D01*
X81428333Y-145622438D02*
X81523571Y-145574819D01*
X81523571Y-145574819D02*
X81714047Y-145574819D01*
X81714047Y-145574819D02*
X81809285Y-145622438D01*
X81809285Y-145622438D02*
X81904523Y-145717676D01*
X81904523Y-145717676D02*
X81952142Y-145908152D01*
X81952142Y-145908152D02*
X81952142Y-146241485D01*
X81952142Y-146241485D02*
X81904523Y-146431961D01*
X81904523Y-146431961D02*
X81809285Y-146527200D01*
X81809285Y-146527200D02*
X81714047Y-146574819D01*
X81714047Y-146574819D02*
X81523571Y-146574819D01*
X82285476Y-145574819D02*
X82904523Y-145574819D01*
X82904523Y-145574819D02*
X82571190Y-145955771D01*
X82571190Y-145955771D02*
X82714047Y-145955771D01*
X82714047Y-145955771D02*
X82809285Y-146003390D01*
X82809285Y-146003390D02*
X82856904Y-146051009D01*
X82856904Y-146051009D02*
X82904523Y-146146247D01*
X82904523Y-146146247D02*
X82904523Y-146384342D01*
X82904523Y-146384342D02*
X82856904Y-146479580D01*
X82856904Y-146479580D02*
X82809285Y-146527200D01*
X82809285Y-146527200D02*
X82714047Y-146574819D01*
X82714047Y-146574819D02*
X82428333Y-146574819D01*
X82428333Y-146574819D02*
X82333095Y-146527200D01*
X82333095Y-146527200D02*
X82285476Y-146479580D01*
X73856905Y-134449819D02*
X73856905Y-133449819D01*
X73856905Y-133449819D02*
X74095000Y-133449819D01*
X74095000Y-133449819D02*
X74237857Y-133497438D01*
X74237857Y-133497438D02*
X74333095Y-133592676D01*
X74333095Y-133592676D02*
X74380714Y-133687914D01*
X74380714Y-133687914D02*
X74428333Y-133878390D01*
X74428333Y-133878390D02*
X74428333Y-134021247D01*
X74428333Y-134021247D02*
X74380714Y-134211723D01*
X74380714Y-134211723D02*
X74333095Y-134306961D01*
X74333095Y-134306961D02*
X74237857Y-134402200D01*
X74237857Y-134402200D02*
X74095000Y-134449819D01*
X74095000Y-134449819D02*
X73856905Y-134449819D01*
X74809286Y-133545057D02*
X74856905Y-133497438D01*
X74856905Y-133497438D02*
X74952143Y-133449819D01*
X74952143Y-133449819D02*
X75190238Y-133449819D01*
X75190238Y-133449819D02*
X75285476Y-133497438D01*
X75285476Y-133497438D02*
X75333095Y-133545057D01*
X75333095Y-133545057D02*
X75380714Y-133640295D01*
X75380714Y-133640295D02*
X75380714Y-133735533D01*
X75380714Y-133735533D02*
X75333095Y-133878390D01*
X75333095Y-133878390D02*
X74761667Y-134449819D01*
X74761667Y-134449819D02*
X75380714Y-134449819D01*
X79466666Y-68804819D02*
X79466666Y-69519104D01*
X79466666Y-69519104D02*
X79419047Y-69661961D01*
X79419047Y-69661961D02*
X79323809Y-69757200D01*
X79323809Y-69757200D02*
X79180952Y-69804819D01*
X79180952Y-69804819D02*
X79085714Y-69804819D01*
X79847619Y-68804819D02*
X80514285Y-68804819D01*
X80514285Y-68804819D02*
X80085714Y-69804819D01*
X72828571Y-89464700D02*
X73971429Y-89464700D01*
X85128571Y-89464700D02*
X86271429Y-89464700D01*
X85700000Y-90036128D02*
X85700000Y-88893271D01*
X117016666Y-68669819D02*
X117016666Y-69384104D01*
X117016666Y-69384104D02*
X116969047Y-69526961D01*
X116969047Y-69526961D02*
X116873809Y-69622200D01*
X116873809Y-69622200D02*
X116730952Y-69669819D01*
X116730952Y-69669819D02*
X116635714Y-69669819D01*
X117969047Y-68669819D02*
X117492857Y-68669819D01*
X117492857Y-68669819D02*
X117445238Y-69146009D01*
X117445238Y-69146009D02*
X117492857Y-69098390D01*
X117492857Y-69098390D02*
X117588095Y-69050771D01*
X117588095Y-69050771D02*
X117826190Y-69050771D01*
X117826190Y-69050771D02*
X117921428Y-69098390D01*
X117921428Y-69098390D02*
X117969047Y-69146009D01*
X117969047Y-69146009D02*
X118016666Y-69241247D01*
X118016666Y-69241247D02*
X118016666Y-69479342D01*
X118016666Y-69479342D02*
X117969047Y-69574580D01*
X117969047Y-69574580D02*
X117921428Y-69622200D01*
X117921428Y-69622200D02*
X117826190Y-69669819D01*
X117826190Y-69669819D02*
X117588095Y-69669819D01*
X117588095Y-69669819D02*
X117492857Y-69622200D01*
X117492857Y-69622200D02*
X117445238Y-69574580D01*
X157296666Y-159664819D02*
X157296666Y-160379104D01*
X157296666Y-160379104D02*
X157249047Y-160521961D01*
X157249047Y-160521961D02*
X157153809Y-160617200D01*
X157153809Y-160617200D02*
X157010952Y-160664819D01*
X157010952Y-160664819D02*
X156915714Y-160664819D01*
X158201428Y-159664819D02*
X158010952Y-159664819D01*
X158010952Y-159664819D02*
X157915714Y-159712438D01*
X157915714Y-159712438D02*
X157868095Y-159760057D01*
X157868095Y-159760057D02*
X157772857Y-159902914D01*
X157772857Y-159902914D02*
X157725238Y-160093390D01*
X157725238Y-160093390D02*
X157725238Y-160474342D01*
X157725238Y-160474342D02*
X157772857Y-160569580D01*
X157772857Y-160569580D02*
X157820476Y-160617200D01*
X157820476Y-160617200D02*
X157915714Y-160664819D01*
X157915714Y-160664819D02*
X158106190Y-160664819D01*
X158106190Y-160664819D02*
X158201428Y-160617200D01*
X158201428Y-160617200D02*
X158249047Y-160569580D01*
X158249047Y-160569580D02*
X158296666Y-160474342D01*
X158296666Y-160474342D02*
X158296666Y-160236247D01*
X158296666Y-160236247D02*
X158249047Y-160141009D01*
X158249047Y-160141009D02*
X158201428Y-160093390D01*
X158201428Y-160093390D02*
X158106190Y-160045771D01*
X158106190Y-160045771D02*
X157915714Y-160045771D01*
X157915714Y-160045771D02*
X157820476Y-160093390D01*
X157820476Y-160093390D02*
X157772857Y-160141009D01*
X157772857Y-160141009D02*
X157725238Y-160236247D01*
X139916666Y-68969819D02*
X139916666Y-69684104D01*
X139916666Y-69684104D02*
X139869047Y-69826961D01*
X139869047Y-69826961D02*
X139773809Y-69922200D01*
X139773809Y-69922200D02*
X139630952Y-69969819D01*
X139630952Y-69969819D02*
X139535714Y-69969819D01*
X140345238Y-69065057D02*
X140392857Y-69017438D01*
X140392857Y-69017438D02*
X140488095Y-68969819D01*
X140488095Y-68969819D02*
X140726190Y-68969819D01*
X140726190Y-68969819D02*
X140821428Y-69017438D01*
X140821428Y-69017438D02*
X140869047Y-69065057D01*
X140869047Y-69065057D02*
X140916666Y-69160295D01*
X140916666Y-69160295D02*
X140916666Y-69255533D01*
X140916666Y-69255533D02*
X140869047Y-69398390D01*
X140869047Y-69398390D02*
X140297619Y-69969819D01*
X140297619Y-69969819D02*
X140916666Y-69969819D01*
X81456905Y-129209819D02*
X81456905Y-128209819D01*
X81456905Y-128209819D02*
X81695000Y-128209819D01*
X81695000Y-128209819D02*
X81837857Y-128257438D01*
X81837857Y-128257438D02*
X81933095Y-128352676D01*
X81933095Y-128352676D02*
X81980714Y-128447914D01*
X81980714Y-128447914D02*
X82028333Y-128638390D01*
X82028333Y-128638390D02*
X82028333Y-128781247D01*
X82028333Y-128781247D02*
X81980714Y-128971723D01*
X81980714Y-128971723D02*
X81933095Y-129066961D01*
X81933095Y-129066961D02*
X81837857Y-129162200D01*
X81837857Y-129162200D02*
X81695000Y-129209819D01*
X81695000Y-129209819D02*
X81456905Y-129209819D01*
X82885476Y-128209819D02*
X82695000Y-128209819D01*
X82695000Y-128209819D02*
X82599762Y-128257438D01*
X82599762Y-128257438D02*
X82552143Y-128305057D01*
X82552143Y-128305057D02*
X82456905Y-128447914D01*
X82456905Y-128447914D02*
X82409286Y-128638390D01*
X82409286Y-128638390D02*
X82409286Y-129019342D01*
X82409286Y-129019342D02*
X82456905Y-129114580D01*
X82456905Y-129114580D02*
X82504524Y-129162200D01*
X82504524Y-129162200D02*
X82599762Y-129209819D01*
X82599762Y-129209819D02*
X82790238Y-129209819D01*
X82790238Y-129209819D02*
X82885476Y-129162200D01*
X82885476Y-129162200D02*
X82933095Y-129114580D01*
X82933095Y-129114580D02*
X82980714Y-129019342D01*
X82980714Y-129019342D02*
X82980714Y-128781247D01*
X82980714Y-128781247D02*
X82933095Y-128686009D01*
X82933095Y-128686009D02*
X82885476Y-128638390D01*
X82885476Y-128638390D02*
X82790238Y-128590771D01*
X82790238Y-128590771D02*
X82599762Y-128590771D01*
X82599762Y-128590771D02*
X82504524Y-128638390D01*
X82504524Y-128638390D02*
X82456905Y-128686009D01*
X82456905Y-128686009D02*
X82409286Y-128781247D01*
X128516666Y-68869819D02*
X128516666Y-69584104D01*
X128516666Y-69584104D02*
X128469047Y-69726961D01*
X128469047Y-69726961D02*
X128373809Y-69822200D01*
X128373809Y-69822200D02*
X128230952Y-69869819D01*
X128230952Y-69869819D02*
X128135714Y-69869819D01*
X129421428Y-69203152D02*
X129421428Y-69869819D01*
X129183333Y-68822200D02*
X128945238Y-69536485D01*
X128945238Y-69536485D02*
X129564285Y-69536485D01*
X75299761Y-127745057D02*
X75204523Y-127697438D01*
X75204523Y-127697438D02*
X75109285Y-127602200D01*
X75109285Y-127602200D02*
X74966428Y-127459342D01*
X74966428Y-127459342D02*
X74871190Y-127411723D01*
X74871190Y-127411723D02*
X74775952Y-127411723D01*
X74823571Y-127649819D02*
X74728333Y-127602200D01*
X74728333Y-127602200D02*
X74633095Y-127506961D01*
X74633095Y-127506961D02*
X74585476Y-127316485D01*
X74585476Y-127316485D02*
X74585476Y-126983152D01*
X74585476Y-126983152D02*
X74633095Y-126792676D01*
X74633095Y-126792676D02*
X74728333Y-126697438D01*
X74728333Y-126697438D02*
X74823571Y-126649819D01*
X74823571Y-126649819D02*
X75014047Y-126649819D01*
X75014047Y-126649819D02*
X75109285Y-126697438D01*
X75109285Y-126697438D02*
X75204523Y-126792676D01*
X75204523Y-126792676D02*
X75252142Y-126983152D01*
X75252142Y-126983152D02*
X75252142Y-127316485D01*
X75252142Y-127316485D02*
X75204523Y-127506961D01*
X75204523Y-127506961D02*
X75109285Y-127602200D01*
X75109285Y-127602200D02*
X75014047Y-127649819D01*
X75014047Y-127649819D02*
X74823571Y-127649819D01*
X76204523Y-127649819D02*
X75633095Y-127649819D01*
X75918809Y-127649819D02*
X75918809Y-126649819D01*
X75918809Y-126649819D02*
X75823571Y-126792676D01*
X75823571Y-126792676D02*
X75728333Y-126887914D01*
X75728333Y-126887914D02*
X75633095Y-126935533D01*
X105216666Y-68769819D02*
X105216666Y-69484104D01*
X105216666Y-69484104D02*
X105169047Y-69626961D01*
X105169047Y-69626961D02*
X105073809Y-69722200D01*
X105073809Y-69722200D02*
X104930952Y-69769819D01*
X104930952Y-69769819D02*
X104835714Y-69769819D01*
X105597619Y-68769819D02*
X106216666Y-68769819D01*
X106216666Y-68769819D02*
X105883333Y-69150771D01*
X105883333Y-69150771D02*
X106026190Y-69150771D01*
X106026190Y-69150771D02*
X106121428Y-69198390D01*
X106121428Y-69198390D02*
X106169047Y-69246009D01*
X106169047Y-69246009D02*
X106216666Y-69341247D01*
X106216666Y-69341247D02*
X106216666Y-69579342D01*
X106216666Y-69579342D02*
X106169047Y-69674580D01*
X106169047Y-69674580D02*
X106121428Y-69722200D01*
X106121428Y-69722200D02*
X106026190Y-69769819D01*
X106026190Y-69769819D02*
X105740476Y-69769819D01*
X105740476Y-69769819D02*
X105645238Y-69722200D01*
X105645238Y-69722200D02*
X105597619Y-69674580D01*
D11*
%TO.C,Q1*%
X141360000Y-133325000D02*
X135680000Y-133325000D01*
X141360000Y-138695000D02*
X135240000Y-138695000D01*
X135168378Y-133589730D02*
X134928378Y-133259730D01*
X135408378Y-133259730D01*
X135168378Y-133589730D01*
G36*
X135168378Y-133589730D02*
G01*
X134928378Y-133259730D01*
X135408378Y-133259730D01*
X135168378Y-133589730D01*
G37*
%TO.C,D6*%
X142290000Y-129420000D02*
X142290000Y-132720000D01*
X142290000Y-129420000D02*
X147800000Y-129420000D01*
X142290000Y-132720000D02*
X147800000Y-132720000D01*
%TO.C,Q2*%
X141360000Y-140035000D02*
X135680000Y-140035000D01*
X141360000Y-145405000D02*
X135240000Y-145405000D01*
X135168378Y-140299730D02*
X134928378Y-139969730D01*
X135408378Y-139969730D01*
X135168378Y-140299730D01*
G36*
X135168378Y-140299730D02*
G01*
X134928378Y-139969730D01*
X135408378Y-139969730D01*
X135168378Y-140299730D01*
G37*
%TO.C,D3*%
X141710000Y-145760000D02*
X136200000Y-145760000D01*
X141710000Y-149060000D02*
X136200000Y-149060000D01*
X141710000Y-149060000D02*
X141710000Y-145760000D01*
%TO.C,D5*%
X142190000Y-145520000D02*
X142190000Y-148820000D01*
X142190000Y-145520000D02*
X147700000Y-145520000D01*
X142190000Y-148820000D02*
X147700000Y-148820000D01*
%TO.C,Q3*%
X142640000Y-139750000D02*
X148760000Y-139750000D01*
X142640000Y-145120000D02*
X148320000Y-145120000D01*
X149071622Y-145185270D02*
X148591622Y-145185270D01*
X148831622Y-144855270D01*
X149071622Y-145185270D01*
G36*
X149071622Y-145185270D02*
G01*
X148591622Y-145185270D01*
X148831622Y-144855270D01*
X149071622Y-145185270D01*
G37*
%TO.C,Q4*%
X142640000Y-133380000D02*
X148760000Y-133380000D01*
X142640000Y-138750000D02*
X148320000Y-138750000D01*
X149071622Y-138815270D02*
X148591622Y-138815270D01*
X148831622Y-138485270D01*
X149071622Y-138815270D01*
G36*
X149071622Y-138815270D02*
G01*
X148591622Y-138815270D01*
X148831622Y-138485270D01*
X149071622Y-138815270D01*
G37*
%TO.C,D2*%
X141710000Y-129660000D02*
X136200000Y-129660000D01*
X141710000Y-132960000D02*
X136200000Y-132960000D01*
X141710000Y-132960000D02*
X141710000Y-129660000D01*
%TO.C,D4*%
X149610000Y-125120000D02*
X144100000Y-125120000D01*
X149610000Y-128420000D02*
X144100000Y-128420000D01*
X149610000Y-128420000D02*
X149610000Y-125120000D01*
%TO.C,Q1*%
X140560000Y-103725000D02*
X134880000Y-103725000D01*
X140560000Y-109095000D02*
X134440000Y-109095000D01*
X134368378Y-103989730D02*
X134128378Y-103659730D01*
X134608378Y-103659730D01*
X134368378Y-103989730D01*
G36*
X134368378Y-103989730D02*
G01*
X134128378Y-103659730D01*
X134608378Y-103659730D01*
X134368378Y-103989730D01*
G37*
%TO.C,D6*%
X141490000Y-99820000D02*
X141490000Y-103120000D01*
X141490000Y-99820000D02*
X147000000Y-99820000D01*
X141490000Y-103120000D02*
X147000000Y-103120000D01*
%TO.C,Q2*%
X140560000Y-110435000D02*
X134880000Y-110435000D01*
X140560000Y-115805000D02*
X134440000Y-115805000D01*
X134368378Y-110699730D02*
X134128378Y-110369730D01*
X134608378Y-110369730D01*
X134368378Y-110699730D01*
G36*
X134368378Y-110699730D02*
G01*
X134128378Y-110369730D01*
X134608378Y-110369730D01*
X134368378Y-110699730D01*
G37*
%TO.C,D3*%
X140910000Y-116160000D02*
X135400000Y-116160000D01*
X140910000Y-119460000D02*
X135400000Y-119460000D01*
X140910000Y-119460000D02*
X140910000Y-116160000D01*
%TO.C,D5*%
X141390000Y-115920000D02*
X141390000Y-119220000D01*
X141390000Y-115920000D02*
X146900000Y-115920000D01*
X141390000Y-119220000D02*
X146900000Y-119220000D01*
%TO.C,Q3*%
X141840000Y-110150000D02*
X147960000Y-110150000D01*
X141840000Y-115520000D02*
X147520000Y-115520000D01*
X148271622Y-115585270D02*
X147791622Y-115585270D01*
X148031622Y-115255270D01*
X148271622Y-115585270D01*
G36*
X148271622Y-115585270D02*
G01*
X147791622Y-115585270D01*
X148031622Y-115255270D01*
X148271622Y-115585270D01*
G37*
%TO.C,Q4*%
X141840000Y-103780000D02*
X147960000Y-103780000D01*
X141840000Y-109150000D02*
X147520000Y-109150000D01*
X148271622Y-109215270D02*
X147791622Y-109215270D01*
X148031622Y-108885270D01*
X148271622Y-109215270D01*
G36*
X148271622Y-109215270D02*
G01*
X147791622Y-109215270D01*
X148031622Y-108885270D01*
X148271622Y-109215270D01*
G37*
%TO.C,D2*%
X140910000Y-100060000D02*
X135400000Y-100060000D01*
X140910000Y-103360000D02*
X135400000Y-103360000D01*
X140910000Y-103360000D02*
X140910000Y-100060000D01*
%TO.C,D4*%
X148810000Y-95520000D02*
X143300000Y-95520000D01*
X148810000Y-98820000D02*
X143300000Y-98820000D01*
X148810000Y-98820000D02*
X148810000Y-95520000D01*
%TO.C,Q1*%
X108260000Y-133325000D02*
X102580000Y-133325000D01*
X108260000Y-138695000D02*
X102140000Y-138695000D01*
X102068378Y-133589730D02*
X101828378Y-133259730D01*
X102308378Y-133259730D01*
X102068378Y-133589730D01*
G36*
X102068378Y-133589730D02*
G01*
X101828378Y-133259730D01*
X102308378Y-133259730D01*
X102068378Y-133589730D01*
G37*
%TO.C,D6*%
X109190000Y-129420000D02*
X109190000Y-132720000D01*
X109190000Y-129420000D02*
X114700000Y-129420000D01*
X109190000Y-132720000D02*
X114700000Y-132720000D01*
%TO.C,Q2*%
X108260000Y-140035000D02*
X102580000Y-140035000D01*
X108260000Y-145405000D02*
X102140000Y-145405000D01*
X102068378Y-140299730D02*
X101828378Y-139969730D01*
X102308378Y-139969730D01*
X102068378Y-140299730D01*
G36*
X102068378Y-140299730D02*
G01*
X101828378Y-139969730D01*
X102308378Y-139969730D01*
X102068378Y-140299730D01*
G37*
%TO.C,D3*%
X108610000Y-145760000D02*
X103100000Y-145760000D01*
X108610000Y-149060000D02*
X103100000Y-149060000D01*
X108610000Y-149060000D02*
X108610000Y-145760000D01*
%TO.C,D5*%
X109090000Y-145520000D02*
X109090000Y-148820000D01*
X109090000Y-145520000D02*
X114600000Y-145520000D01*
X109090000Y-148820000D02*
X114600000Y-148820000D01*
%TO.C,Q3*%
X109540000Y-139750000D02*
X115660000Y-139750000D01*
X109540000Y-145120000D02*
X115220000Y-145120000D01*
X115971622Y-145185270D02*
X115491622Y-145185270D01*
X115731622Y-144855270D01*
X115971622Y-145185270D01*
G36*
X115971622Y-145185270D02*
G01*
X115491622Y-145185270D01*
X115731622Y-144855270D01*
X115971622Y-145185270D01*
G37*
%TO.C,Q4*%
X109540000Y-133380000D02*
X115660000Y-133380000D01*
X109540000Y-138750000D02*
X115220000Y-138750000D01*
X115971622Y-138815270D02*
X115491622Y-138815270D01*
X115731622Y-138485270D01*
X115971622Y-138815270D01*
G36*
X115971622Y-138815270D02*
G01*
X115491622Y-138815270D01*
X115731622Y-138485270D01*
X115971622Y-138815270D01*
G37*
%TO.C,D2*%
X108610000Y-129660000D02*
X103100000Y-129660000D01*
X108610000Y-132960000D02*
X103100000Y-132960000D01*
X108610000Y-132960000D02*
X108610000Y-129660000D01*
%TO.C,D4*%
X116510000Y-125120000D02*
X111000000Y-125120000D01*
X116510000Y-128420000D02*
X111000000Y-128420000D01*
X116510000Y-128420000D02*
X116510000Y-125120000D01*
%TO.C,Q1*%
X108360000Y-103825000D02*
X102680000Y-103825000D01*
X108360000Y-109195000D02*
X102240000Y-109195000D01*
X102168378Y-104089730D02*
X101928378Y-103759730D01*
X102408378Y-103759730D01*
X102168378Y-104089730D01*
G36*
X102168378Y-104089730D02*
G01*
X101928378Y-103759730D01*
X102408378Y-103759730D01*
X102168378Y-104089730D01*
G37*
%TO.C,D6*%
X109290000Y-99920000D02*
X109290000Y-103220000D01*
X109290000Y-99920000D02*
X114800000Y-99920000D01*
X109290000Y-103220000D02*
X114800000Y-103220000D01*
%TO.C,Q2*%
X108360000Y-110535000D02*
X102680000Y-110535000D01*
X108360000Y-115905000D02*
X102240000Y-115905000D01*
X102168378Y-110799730D02*
X101928378Y-110469730D01*
X102408378Y-110469730D01*
X102168378Y-110799730D01*
G36*
X102168378Y-110799730D02*
G01*
X101928378Y-110469730D01*
X102408378Y-110469730D01*
X102168378Y-110799730D01*
G37*
%TO.C,D3*%
X108710000Y-116260000D02*
X103200000Y-116260000D01*
X108710000Y-119560000D02*
X103200000Y-119560000D01*
X108710000Y-119560000D02*
X108710000Y-116260000D01*
%TO.C,D5*%
X109190000Y-116020000D02*
X109190000Y-119320000D01*
X109190000Y-116020000D02*
X114700000Y-116020000D01*
X109190000Y-119320000D02*
X114700000Y-119320000D01*
%TO.C,Q3*%
X109640000Y-110250000D02*
X115760000Y-110250000D01*
X109640000Y-115620000D02*
X115320000Y-115620000D01*
X116071622Y-115685270D02*
X115591622Y-115685270D01*
X115831622Y-115355270D01*
X116071622Y-115685270D01*
G36*
X116071622Y-115685270D02*
G01*
X115591622Y-115685270D01*
X115831622Y-115355270D01*
X116071622Y-115685270D01*
G37*
%TO.C,Q4*%
X109640000Y-103880000D02*
X115760000Y-103880000D01*
X109640000Y-109250000D02*
X115320000Y-109250000D01*
X116071622Y-109315270D02*
X115591622Y-109315270D01*
X115831622Y-108985270D01*
X116071622Y-109315270D01*
G36*
X116071622Y-109315270D02*
G01*
X115591622Y-109315270D01*
X115831622Y-108985270D01*
X116071622Y-109315270D01*
G37*
%TO.C,D2*%
X108710000Y-100160000D02*
X103200000Y-100160000D01*
X108710000Y-103460000D02*
X103200000Y-103460000D01*
X108710000Y-103460000D02*
X108710000Y-100160000D01*
%TO.C,D4*%
X116610000Y-95620000D02*
X111100000Y-95620000D01*
X116610000Y-98920000D02*
X111100000Y-98920000D01*
X116610000Y-98920000D02*
X116610000Y-95620000D01*
%TO.C,Q1*%
X77060000Y-104025000D02*
X71380000Y-104025000D01*
X77060000Y-109395000D02*
X70940000Y-109395000D01*
X70868378Y-104289730D02*
X70628378Y-103959730D01*
X71108378Y-103959730D01*
X70868378Y-104289730D01*
G36*
X70868378Y-104289730D02*
G01*
X70628378Y-103959730D01*
X71108378Y-103959730D01*
X70868378Y-104289730D01*
G37*
%TO.C,D6*%
X77990000Y-100120000D02*
X77990000Y-103420000D01*
X77990000Y-100120000D02*
X83500000Y-100120000D01*
X77990000Y-103420000D02*
X83500000Y-103420000D01*
%TO.C,Q2*%
X77060000Y-110735000D02*
X71380000Y-110735000D01*
X77060000Y-116105000D02*
X70940000Y-116105000D01*
X70868378Y-110999730D02*
X70628378Y-110669730D01*
X71108378Y-110669730D01*
X70868378Y-110999730D01*
G36*
X70868378Y-110999730D02*
G01*
X70628378Y-110669730D01*
X71108378Y-110669730D01*
X70868378Y-110999730D01*
G37*
%TO.C,D3*%
X77410000Y-116460000D02*
X71900000Y-116460000D01*
X77410000Y-119760000D02*
X71900000Y-119760000D01*
X77410000Y-119760000D02*
X77410000Y-116460000D01*
%TO.C,D5*%
X77890000Y-116220000D02*
X77890000Y-119520000D01*
X77890000Y-116220000D02*
X83400000Y-116220000D01*
X77890000Y-119520000D02*
X83400000Y-119520000D01*
%TO.C,Q3*%
X78340000Y-110450000D02*
X84460000Y-110450000D01*
X78340000Y-115820000D02*
X84020000Y-115820000D01*
X84771622Y-115885270D02*
X84291622Y-115885270D01*
X84531622Y-115555270D01*
X84771622Y-115885270D01*
G36*
X84771622Y-115885270D02*
G01*
X84291622Y-115885270D01*
X84531622Y-115555270D01*
X84771622Y-115885270D01*
G37*
%TO.C,Q4*%
X78340000Y-104080000D02*
X84460000Y-104080000D01*
X78340000Y-109450000D02*
X84020000Y-109450000D01*
X84771622Y-109515270D02*
X84291622Y-109515270D01*
X84531622Y-109185270D01*
X84771622Y-109515270D01*
G36*
X84771622Y-109515270D02*
G01*
X84291622Y-109515270D01*
X84531622Y-109185270D01*
X84771622Y-109515270D01*
G37*
%TO.C,D2*%
X77410000Y-100360000D02*
X71900000Y-100360000D01*
X77410000Y-103660000D02*
X71900000Y-103660000D01*
X77410000Y-103660000D02*
X77410000Y-100360000D01*
%TO.C,D4*%
X85310000Y-95820000D02*
X79800000Y-95820000D01*
X85310000Y-99120000D02*
X79800000Y-99120000D01*
X85310000Y-99120000D02*
X85310000Y-95820000D01*
%TO.C,D5*%
X78585000Y-145705000D02*
X78585000Y-149005000D01*
X78585000Y-145705000D02*
X84095000Y-145705000D01*
X78585000Y-149005000D02*
X84095000Y-149005000D01*
%TO.C,Q2*%
X77755000Y-140220000D02*
X72075000Y-140220000D01*
X77755000Y-145590000D02*
X71635000Y-145590000D01*
X71563378Y-140484730D02*
X71323378Y-140154730D01*
X71803378Y-140154730D01*
X71563378Y-140484730D01*
G36*
X71563378Y-140484730D02*
G01*
X71323378Y-140154730D01*
X71803378Y-140154730D01*
X71563378Y-140484730D01*
G37*
%TO.C,D3*%
X78105000Y-145945000D02*
X72595000Y-145945000D01*
X78105000Y-149245000D02*
X72595000Y-149245000D01*
X78105000Y-149245000D02*
X78105000Y-145945000D01*
%TO.C,D4*%
X86005000Y-125305000D02*
X80495000Y-125305000D01*
X86005000Y-128605000D02*
X80495000Y-128605000D01*
X86005000Y-128605000D02*
X86005000Y-125305000D01*
%TO.C,J1*%
X88865000Y-71420000D02*
X89865000Y-70420000D01*
X88865000Y-80550000D02*
X88865000Y-71420000D01*
X89865000Y-70420000D02*
X98235000Y-70420000D01*
X98235000Y-70420000D02*
X99235000Y-71420000D01*
X99235000Y-71420000D02*
X99235000Y-80550000D01*
X99235000Y-80550000D02*
X88865000Y-80550000D01*
%TO.C,Q4*%
X79035000Y-133565000D02*
X85155000Y-133565000D01*
X79035000Y-138935000D02*
X84715000Y-138935000D01*
X85466622Y-139000270D02*
X84986622Y-139000270D01*
X85226622Y-138670270D01*
X85466622Y-139000270D01*
G36*
X85466622Y-139000270D02*
G01*
X84986622Y-139000270D01*
X85226622Y-138670270D01*
X85466622Y-139000270D01*
G37*
%TO.C,Q3*%
X79035000Y-139935000D02*
X85155000Y-139935000D01*
X79035000Y-145305000D02*
X84715000Y-145305000D01*
X85466622Y-145370270D02*
X84986622Y-145370270D01*
X85226622Y-145040270D01*
X85466622Y-145370270D01*
G36*
X85466622Y-145370270D02*
G01*
X84986622Y-145370270D01*
X85226622Y-145040270D01*
X85466622Y-145370270D01*
G37*
%TO.C,D2*%
X78105000Y-129845000D02*
X72595000Y-129845000D01*
X78105000Y-133145000D02*
X72595000Y-133145000D01*
X78105000Y-133145000D02*
X78105000Y-129845000D01*
%TO.C,J7*%
X71940000Y-70390000D02*
X71940000Y-84700000D01*
X71940000Y-70390000D02*
X87660000Y-70390000D01*
X78510000Y-88810000D02*
X82250000Y-88810000D01*
X87660000Y-70390000D02*
X87660000Y-84700000D01*
X73933194Y-88222958D02*
G75*
G02*
X71940000Y-84700000I2116805J3522957D01*
G01*
X87660000Y-84700000D02*
G75*
G02*
X84751648Y-88630413I-4110000J0D01*
G01*
%TO.C,J5*%
X112165000Y-71305000D02*
X113165000Y-70305000D01*
X112165000Y-80435000D02*
X112165000Y-71305000D01*
X113165000Y-70305000D02*
X121535000Y-70305000D01*
X121535000Y-70305000D02*
X122535000Y-71305000D01*
X122535000Y-71305000D02*
X122535000Y-80435000D01*
X122535000Y-80435000D02*
X112165000Y-80435000D01*
%TO.C,J6*%
X65920000Y-160950000D02*
X71440000Y-160950000D01*
X65920000Y-165950000D02*
X65920000Y-160950000D01*
X71440000Y-160950000D02*
X71440000Y-161950000D01*
X72940000Y-161950000D02*
X71440000Y-161950000D01*
X75480000Y-161950000D02*
X74679000Y-161950000D01*
X78020000Y-161950000D02*
X77219000Y-161950000D01*
X80560000Y-161950000D02*
X79759000Y-161950000D01*
X83100000Y-161950000D02*
X82299000Y-161950000D01*
X85640000Y-161950000D02*
X84839000Y-161950000D01*
X88180000Y-161950000D02*
X87379000Y-161950000D01*
X90720000Y-161950000D02*
X89919000Y-161950000D01*
X93260000Y-161950000D02*
X92459000Y-161950000D01*
X95800000Y-161950000D02*
X94999000Y-161950000D01*
X98340000Y-161950000D02*
X97539000Y-161950000D01*
X100880000Y-161950000D02*
X100079000Y-161950000D01*
X103420000Y-161950000D02*
X102619000Y-161950000D01*
X105960000Y-161950000D02*
X105159000Y-161950000D01*
X108500000Y-161950000D02*
X107699000Y-161950000D01*
X111040000Y-161950000D02*
X110239000Y-161950000D01*
X113580000Y-161950000D02*
X112779000Y-161950000D01*
X116120000Y-161950000D02*
X115319000Y-161950000D01*
X118660000Y-161950000D02*
X117859000Y-161950000D01*
X121200000Y-161950000D02*
X120399000Y-161950000D01*
X123740000Y-161950000D02*
X122939000Y-161950000D01*
X126280000Y-161950000D02*
X125479000Y-161950000D01*
X128820000Y-161950000D02*
X128019000Y-161950000D01*
X131360000Y-161950000D02*
X130559000Y-161950000D01*
X133900000Y-161950000D02*
X133099000Y-161950000D01*
X136440000Y-161950000D02*
X135639000Y-161950000D01*
X138980000Y-161950000D02*
X138179000Y-161950000D01*
X141520000Y-161950000D02*
X140719000Y-161950000D01*
X144060000Y-161950000D02*
X143259000Y-161950000D01*
X146600000Y-161950000D02*
X145799000Y-161950000D01*
X149140000Y-161950000D02*
X148339000Y-161950000D01*
X151455000Y-161950000D02*
X150879000Y-161950000D01*
X153645000Y-161210000D02*
X154245000Y-161510000D01*
X154245000Y-160910000D02*
X153645000Y-161210000D01*
X154245000Y-161510000D02*
X154245000Y-160910000D01*
X154920000Y-160950000D02*
X154920000Y-161950000D01*
X154921000Y-161950000D02*
X153645000Y-161950000D01*
X160440000Y-160950000D02*
X154920000Y-160950000D01*
X160440000Y-165950000D02*
X160440000Y-160950000D01*
%TO.C,J2*%
X135065000Y-71605000D02*
X136065000Y-70605000D01*
X135065000Y-80735000D02*
X135065000Y-71605000D01*
X136065000Y-70605000D02*
X144435000Y-70605000D01*
X144435000Y-70605000D02*
X145435000Y-71605000D01*
X145435000Y-71605000D02*
X145435000Y-80735000D01*
X145435000Y-80735000D02*
X135065000Y-80735000D01*
%TO.C,D6*%
X78685000Y-129605000D02*
X78685000Y-132905000D01*
X78685000Y-129605000D02*
X84195000Y-129605000D01*
X78685000Y-132905000D02*
X84195000Y-132905000D01*
%TO.C,J4*%
X123665000Y-71505000D02*
X124665000Y-70505000D01*
X123665000Y-80635000D02*
X123665000Y-71505000D01*
X124665000Y-70505000D02*
X133035000Y-70505000D01*
X133035000Y-70505000D02*
X134035000Y-71505000D01*
X134035000Y-71505000D02*
X134035000Y-80635000D01*
X134035000Y-80635000D02*
X123665000Y-80635000D01*
%TO.C,Q1*%
X77755000Y-133510000D02*
X72075000Y-133510000D01*
X77755000Y-138880000D02*
X71635000Y-138880000D01*
X71563378Y-133774730D02*
X71323378Y-133444730D01*
X71803378Y-133444730D01*
X71563378Y-133774730D01*
G36*
X71563378Y-133774730D02*
G01*
X71323378Y-133444730D01*
X71803378Y-133444730D01*
X71563378Y-133774730D01*
G37*
%TO.C,J3*%
X100365000Y-71405000D02*
X101365000Y-70405000D01*
X100365000Y-80535000D02*
X100365000Y-71405000D01*
X101365000Y-70405000D02*
X109735000Y-70405000D01*
X109735000Y-70405000D02*
X110735000Y-71405000D01*
X110735000Y-71405000D02*
X110735000Y-80535000D01*
X110735000Y-80535000D02*
X100365000Y-80535000D01*
%TD*%
%LPC*%
D12*
%TO.C,C13*%
X95350000Y-112910000D03*
X97250000Y-112910000D03*
%TD*%
%TO.C,C15*%
X95350000Y-108910000D03*
X97250000Y-108910000D03*
%TD*%
%TO.C,C17*%
X95400000Y-100760000D03*
X97300000Y-100760000D03*
%TD*%
%TO.C,C2*%
X98800000Y-108810000D03*
X100700000Y-108810000D03*
%TD*%
%TO.C,C19*%
X95250000Y-120910000D03*
X97150000Y-120910000D03*
%TD*%
%TO.C,C22*%
X95350000Y-114910000D03*
X97250000Y-114910000D03*
%TD*%
%TO.C,C20*%
X95250000Y-118960000D03*
X97150000Y-118960000D03*
%TD*%
%TO.C,C6*%
X98800000Y-100760000D03*
X100700000Y-100760000D03*
%TD*%
%TO.C,C16*%
X95350000Y-102810000D03*
X97250000Y-102810000D03*
%TD*%
%TO.C,C1*%
X98800000Y-110810000D03*
X100700000Y-110810000D03*
%TD*%
%TO.C,C12*%
X98750000Y-112810000D03*
X100650000Y-112810000D03*
%TD*%
%TO.C,C3*%
X98800000Y-106810000D03*
X100700000Y-106810000D03*
%TD*%
%TO.C,C5*%
X98800000Y-102810000D03*
X100700000Y-102810000D03*
%TD*%
%TO.C,C4*%
X98800000Y-104810000D03*
X100700000Y-104810000D03*
%TD*%
%TO.C,C7*%
X95350000Y-106910000D03*
X97250000Y-106910000D03*
%TD*%
%TO.C,C18*%
X98700000Y-120960000D03*
X100600000Y-120960000D03*
%TD*%
%TO.C,C10*%
X98750000Y-116910000D03*
X100650000Y-116910000D03*
%TD*%
%TO.C,C14*%
X95350000Y-110910000D03*
X97250000Y-110910000D03*
%TD*%
%TO.C,C11*%
X98750000Y-114810000D03*
X100650000Y-114810000D03*
%TD*%
%TO.C,C9*%
X98750000Y-118910000D03*
X100650000Y-118910000D03*
%TD*%
%TO.C,C8*%
X95350000Y-104860000D03*
X97250000Y-104860000D03*
%TD*%
%TO.C,C21*%
X95250000Y-116910000D03*
X97150000Y-116910000D03*
%TD*%
%TO.C,C32*%
X155750000Y-136370000D03*
X153850000Y-136370000D03*
%TD*%
D13*
%TO.C,R11*%
X140050000Y-151370000D03*
X140050000Y-152370000D03*
%TD*%
D12*
%TO.C,C39*%
X152350000Y-130370000D03*
X150450000Y-130370000D03*
%TD*%
D14*
%TO.C,Q1*%
X138950000Y-136010000D03*
D15*
X135400000Y-134105000D03*
X135400000Y-135375000D03*
X135400000Y-136645000D03*
X135400000Y-137915000D03*
%TD*%
D12*
%TO.C,C21*%
X130150000Y-146410000D03*
X128250000Y-146410000D03*
%TD*%
D13*
%TO.C,R8*%
X145600000Y-151370000D03*
X145600000Y-152370000D03*
%TD*%
D12*
%TO.C,C29*%
X155800000Y-146420000D03*
X153900000Y-146420000D03*
%TD*%
%TO.C,C8*%
X130250000Y-134360000D03*
X128350000Y-134360000D03*
%TD*%
D13*
%TO.C,R10*%
X141900000Y-151370000D03*
X141900000Y-152370000D03*
%TD*%
D12*
%TO.C,C37*%
X152350000Y-134370000D03*
X150450000Y-134370000D03*
%TD*%
%TO.C,C18*%
X133600000Y-150460000D03*
X131700000Y-150460000D03*
%TD*%
D16*
%TO.C,D6*%
X143800000Y-131070000D03*
X147800000Y-131070000D03*
%TD*%
D12*
%TO.C,C40*%
X155750000Y-130370000D03*
X153850000Y-130370000D03*
%TD*%
%TO.C,C4*%
X133700000Y-134310000D03*
X131800000Y-134310000D03*
%TD*%
D13*
%TO.C,R12*%
X138200000Y-151370000D03*
X138200000Y-152370000D03*
%TD*%
D12*
%TO.C,C26*%
X155800000Y-144470000D03*
X153900000Y-144470000D03*
%TD*%
%TO.C,C9*%
X133650000Y-148410000D03*
X131750000Y-148410000D03*
%TD*%
%TO.C,C27*%
X152400000Y-144470000D03*
X150500000Y-144470000D03*
%TD*%
%TO.C,C34*%
X155750000Y-132370000D03*
X153850000Y-132370000D03*
%TD*%
%TO.C,C42*%
X152400000Y-146470000D03*
X150500000Y-146470000D03*
%TD*%
%TO.C,C43*%
X152350000Y-140370000D03*
X150450000Y-140370000D03*
%TD*%
%TO.C,C44*%
X152350000Y-138370000D03*
X150450000Y-138370000D03*
%TD*%
%TO.C,C11*%
X133650000Y-144310000D03*
X131750000Y-144310000D03*
%TD*%
%TO.C,C10*%
X133650000Y-146410000D03*
X131750000Y-146410000D03*
%TD*%
%TO.C,C31*%
X155750000Y-138370000D03*
X153850000Y-138370000D03*
%TD*%
%TO.C,C14*%
X130250000Y-140410000D03*
X128350000Y-140410000D03*
%TD*%
%TO.C,C7*%
X130250000Y-136410000D03*
X128350000Y-136410000D03*
%TD*%
%TO.C,C38*%
X152350000Y-132370000D03*
X150450000Y-132370000D03*
%TD*%
%TO.C,C6*%
X133700000Y-130260000D03*
X131800000Y-130260000D03*
%TD*%
%TO.C,C5*%
X133700000Y-132310000D03*
X131800000Y-132310000D03*
%TD*%
%TO.C,C23*%
X155800000Y-148520000D03*
X153900000Y-148520000D03*
%TD*%
%TO.C,C3*%
X133700000Y-136310000D03*
X131800000Y-136310000D03*
%TD*%
%TO.C,C12*%
X133650000Y-142310000D03*
X131750000Y-142310000D03*
%TD*%
%TO.C,C1*%
X133700000Y-140310000D03*
X131800000Y-140310000D03*
%TD*%
%TO.C,C20*%
X130150000Y-148460000D03*
X128250000Y-148460000D03*
%TD*%
D14*
%TO.C,Q2*%
X138950000Y-142720000D03*
D15*
X135400000Y-140815000D03*
X135400000Y-142085000D03*
X135400000Y-143355000D03*
X135400000Y-144625000D03*
%TD*%
D17*
%TO.C,D3*%
X140200000Y-147410000D03*
X136200000Y-147410000D03*
%TD*%
D12*
%TO.C,C16*%
X130250000Y-132310000D03*
X128350000Y-132310000D03*
%TD*%
D16*
%TO.C,D5*%
X143700000Y-147170000D03*
X147700000Y-147170000D03*
%TD*%
D18*
%TO.C,Q3*%
X145050000Y-142435000D03*
D19*
X148600000Y-144340000D03*
X148600000Y-143070000D03*
X148600000Y-141800000D03*
X148600000Y-140530000D03*
%TD*%
D18*
%TO.C,Q4*%
X145050000Y-136065000D03*
D19*
X148600000Y-137970000D03*
X148600000Y-136700000D03*
X148600000Y-135430000D03*
X148600000Y-134160000D03*
%TD*%
D13*
%TO.C,R9*%
X143750000Y-151370000D03*
X143750000Y-152370000D03*
%TD*%
D17*
%TO.C,D2*%
X140200000Y-131310000D03*
X136200000Y-131310000D03*
%TD*%
D12*
%TO.C,C41*%
X152400000Y-148520000D03*
X150500000Y-148520000D03*
%TD*%
%TO.C,C30*%
X155750000Y-140370000D03*
X153850000Y-140370000D03*
%TD*%
%TO.C,C24*%
X155800000Y-150570000D03*
X153900000Y-150570000D03*
%TD*%
%TO.C,C36*%
X152350000Y-136370000D03*
X150450000Y-136370000D03*
%TD*%
%TO.C,C28*%
X155800000Y-142470000D03*
X153900000Y-142470000D03*
%TD*%
%TO.C,C33*%
X155750000Y-134370000D03*
X153850000Y-134370000D03*
%TD*%
%TO.C,C2*%
X133700000Y-138310000D03*
X131800000Y-138310000D03*
%TD*%
%TO.C,C19*%
X130150000Y-150410000D03*
X128250000Y-150410000D03*
%TD*%
%TO.C,C17*%
X130300000Y-130260000D03*
X128400000Y-130260000D03*
%TD*%
%TO.C,C25*%
X152400000Y-142470000D03*
X150500000Y-142470000D03*
%TD*%
%TO.C,C15*%
X130250000Y-138410000D03*
X128350000Y-138410000D03*
%TD*%
%TO.C,C35*%
X152400000Y-150570000D03*
X150500000Y-150570000D03*
%TD*%
%TO.C,C22*%
X130250000Y-144410000D03*
X128350000Y-144410000D03*
%TD*%
%TO.C,C13*%
X130250000Y-142410000D03*
X128350000Y-142410000D03*
%TD*%
D17*
%TO.C,D4*%
X148100000Y-126770000D03*
X144100000Y-126770000D03*
%TD*%
D12*
%TO.C,C32*%
X154950000Y-106770000D03*
X153050000Y-106770000D03*
%TD*%
D13*
%TO.C,R11*%
X139250000Y-121770000D03*
X139250000Y-122770000D03*
%TD*%
D12*
%TO.C,C39*%
X151550000Y-100770000D03*
X149650000Y-100770000D03*
%TD*%
D14*
%TO.C,Q1*%
X138150000Y-106410000D03*
D15*
X134600000Y-104505000D03*
X134600000Y-105775000D03*
X134600000Y-107045000D03*
X134600000Y-108315000D03*
%TD*%
D12*
%TO.C,C21*%
X129350000Y-116810000D03*
X127450000Y-116810000D03*
%TD*%
D13*
%TO.C,R8*%
X144800000Y-121770000D03*
X144800000Y-122770000D03*
%TD*%
D12*
%TO.C,C29*%
X155000000Y-116820000D03*
X153100000Y-116820000D03*
%TD*%
%TO.C,C8*%
X129450000Y-104760000D03*
X127550000Y-104760000D03*
%TD*%
D13*
%TO.C,R10*%
X141100000Y-121770000D03*
X141100000Y-122770000D03*
%TD*%
D12*
%TO.C,C37*%
X151550000Y-104770000D03*
X149650000Y-104770000D03*
%TD*%
%TO.C,C18*%
X132800000Y-120860000D03*
X130900000Y-120860000D03*
%TD*%
D16*
%TO.C,D6*%
X143000000Y-101470000D03*
X147000000Y-101470000D03*
%TD*%
D12*
%TO.C,C40*%
X154950000Y-100770000D03*
X153050000Y-100770000D03*
%TD*%
%TO.C,C4*%
X132900000Y-104710000D03*
X131000000Y-104710000D03*
%TD*%
D13*
%TO.C,R12*%
X137400000Y-121770000D03*
X137400000Y-122770000D03*
%TD*%
D12*
%TO.C,C26*%
X155000000Y-114870000D03*
X153100000Y-114870000D03*
%TD*%
%TO.C,C9*%
X132850000Y-118810000D03*
X130950000Y-118810000D03*
%TD*%
%TO.C,C27*%
X151600000Y-114870000D03*
X149700000Y-114870000D03*
%TD*%
%TO.C,C34*%
X154950000Y-102770000D03*
X153050000Y-102770000D03*
%TD*%
%TO.C,C42*%
X151600000Y-116870000D03*
X149700000Y-116870000D03*
%TD*%
%TO.C,C43*%
X151550000Y-110770000D03*
X149650000Y-110770000D03*
%TD*%
%TO.C,C44*%
X151550000Y-108770000D03*
X149650000Y-108770000D03*
%TD*%
%TO.C,C11*%
X132850000Y-114710000D03*
X130950000Y-114710000D03*
%TD*%
%TO.C,C10*%
X132850000Y-116810000D03*
X130950000Y-116810000D03*
%TD*%
%TO.C,C31*%
X154950000Y-108770000D03*
X153050000Y-108770000D03*
%TD*%
%TO.C,C14*%
X129450000Y-110810000D03*
X127550000Y-110810000D03*
%TD*%
%TO.C,C7*%
X129450000Y-106810000D03*
X127550000Y-106810000D03*
%TD*%
%TO.C,C38*%
X151550000Y-102770000D03*
X149650000Y-102770000D03*
%TD*%
%TO.C,C6*%
X132900000Y-100660000D03*
X131000000Y-100660000D03*
%TD*%
%TO.C,C5*%
X132900000Y-102710000D03*
X131000000Y-102710000D03*
%TD*%
%TO.C,C23*%
X155000000Y-118920000D03*
X153100000Y-118920000D03*
%TD*%
%TO.C,C3*%
X132900000Y-106710000D03*
X131000000Y-106710000D03*
%TD*%
%TO.C,C12*%
X132850000Y-112710000D03*
X130950000Y-112710000D03*
%TD*%
%TO.C,C1*%
X132900000Y-110710000D03*
X131000000Y-110710000D03*
%TD*%
%TO.C,C20*%
X129350000Y-118860000D03*
X127450000Y-118860000D03*
%TD*%
D14*
%TO.C,Q2*%
X138150000Y-113120000D03*
D15*
X134600000Y-111215000D03*
X134600000Y-112485000D03*
X134600000Y-113755000D03*
X134600000Y-115025000D03*
%TD*%
D17*
%TO.C,D3*%
X139400000Y-117810000D03*
X135400000Y-117810000D03*
%TD*%
D12*
%TO.C,C16*%
X129450000Y-102710000D03*
X127550000Y-102710000D03*
%TD*%
D16*
%TO.C,D5*%
X142900000Y-117570000D03*
X146900000Y-117570000D03*
%TD*%
D18*
%TO.C,Q3*%
X144250000Y-112835000D03*
D19*
X147800000Y-114740000D03*
X147800000Y-113470000D03*
X147800000Y-112200000D03*
X147800000Y-110930000D03*
%TD*%
D18*
%TO.C,Q4*%
X144250000Y-106465000D03*
D19*
X147800000Y-108370000D03*
X147800000Y-107100000D03*
X147800000Y-105830000D03*
X147800000Y-104560000D03*
%TD*%
D13*
%TO.C,R9*%
X142950000Y-121770000D03*
X142950000Y-122770000D03*
%TD*%
D17*
%TO.C,D2*%
X139400000Y-101710000D03*
X135400000Y-101710000D03*
%TD*%
D12*
%TO.C,C41*%
X151600000Y-118920000D03*
X149700000Y-118920000D03*
%TD*%
%TO.C,C30*%
X154950000Y-110770000D03*
X153050000Y-110770000D03*
%TD*%
%TO.C,C24*%
X155000000Y-120970000D03*
X153100000Y-120970000D03*
%TD*%
%TO.C,C36*%
X151550000Y-106770000D03*
X149650000Y-106770000D03*
%TD*%
%TO.C,C28*%
X155000000Y-112870000D03*
X153100000Y-112870000D03*
%TD*%
%TO.C,C33*%
X154950000Y-104770000D03*
X153050000Y-104770000D03*
%TD*%
%TO.C,C2*%
X132900000Y-108710000D03*
X131000000Y-108710000D03*
%TD*%
%TO.C,C19*%
X129350000Y-120810000D03*
X127450000Y-120810000D03*
%TD*%
%TO.C,C17*%
X129500000Y-100660000D03*
X127600000Y-100660000D03*
%TD*%
%TO.C,C25*%
X151600000Y-112870000D03*
X149700000Y-112870000D03*
%TD*%
%TO.C,C15*%
X129450000Y-108810000D03*
X127550000Y-108810000D03*
%TD*%
%TO.C,C35*%
X151600000Y-120970000D03*
X149700000Y-120970000D03*
%TD*%
%TO.C,C22*%
X129450000Y-114810000D03*
X127550000Y-114810000D03*
%TD*%
%TO.C,C13*%
X129450000Y-112810000D03*
X127550000Y-112810000D03*
%TD*%
D17*
%TO.C,D4*%
X147300000Y-97170000D03*
X143300000Y-97170000D03*
%TD*%
D12*
%TO.C,C32*%
X122650000Y-136370000D03*
X120750000Y-136370000D03*
%TD*%
D13*
%TO.C,R11*%
X106950000Y-151370000D03*
X106950000Y-152370000D03*
%TD*%
D12*
%TO.C,C39*%
X119250000Y-130370000D03*
X117350000Y-130370000D03*
%TD*%
D14*
%TO.C,Q1*%
X105850000Y-136010000D03*
D15*
X102300000Y-134105000D03*
X102300000Y-135375000D03*
X102300000Y-136645000D03*
X102300000Y-137915000D03*
%TD*%
D12*
%TO.C,C21*%
X97050000Y-146410000D03*
X95150000Y-146410000D03*
%TD*%
D13*
%TO.C,R8*%
X112500000Y-151370000D03*
X112500000Y-152370000D03*
%TD*%
D12*
%TO.C,C29*%
X122700000Y-146420000D03*
X120800000Y-146420000D03*
%TD*%
%TO.C,C8*%
X97150000Y-134360000D03*
X95250000Y-134360000D03*
%TD*%
D13*
%TO.C,R10*%
X108800000Y-151370000D03*
X108800000Y-152370000D03*
%TD*%
D12*
%TO.C,C37*%
X119250000Y-134370000D03*
X117350000Y-134370000D03*
%TD*%
%TO.C,C18*%
X100500000Y-150460000D03*
X98600000Y-150460000D03*
%TD*%
D16*
%TO.C,D6*%
X110700000Y-131070000D03*
X114700000Y-131070000D03*
%TD*%
D12*
%TO.C,C40*%
X122650000Y-130370000D03*
X120750000Y-130370000D03*
%TD*%
%TO.C,C4*%
X100600000Y-134310000D03*
X98700000Y-134310000D03*
%TD*%
D13*
%TO.C,R12*%
X105100000Y-151370000D03*
X105100000Y-152370000D03*
%TD*%
D12*
%TO.C,C26*%
X122700000Y-144470000D03*
X120800000Y-144470000D03*
%TD*%
%TO.C,C9*%
X100550000Y-148410000D03*
X98650000Y-148410000D03*
%TD*%
%TO.C,C27*%
X119300000Y-144470000D03*
X117400000Y-144470000D03*
%TD*%
%TO.C,C34*%
X122650000Y-132370000D03*
X120750000Y-132370000D03*
%TD*%
%TO.C,C42*%
X119300000Y-146470000D03*
X117400000Y-146470000D03*
%TD*%
%TO.C,C43*%
X119250000Y-140370000D03*
X117350000Y-140370000D03*
%TD*%
%TO.C,C44*%
X119250000Y-138370000D03*
X117350000Y-138370000D03*
%TD*%
%TO.C,C11*%
X100550000Y-144310000D03*
X98650000Y-144310000D03*
%TD*%
%TO.C,C10*%
X100550000Y-146410000D03*
X98650000Y-146410000D03*
%TD*%
%TO.C,C31*%
X122650000Y-138370000D03*
X120750000Y-138370000D03*
%TD*%
%TO.C,C14*%
X97150000Y-140410000D03*
X95250000Y-140410000D03*
%TD*%
%TO.C,C7*%
X97150000Y-136410000D03*
X95250000Y-136410000D03*
%TD*%
%TO.C,C38*%
X119250000Y-132370000D03*
X117350000Y-132370000D03*
%TD*%
%TO.C,C6*%
X100600000Y-130260000D03*
X98700000Y-130260000D03*
%TD*%
%TO.C,C5*%
X100600000Y-132310000D03*
X98700000Y-132310000D03*
%TD*%
%TO.C,C23*%
X122700000Y-148520000D03*
X120800000Y-148520000D03*
%TD*%
%TO.C,C3*%
X100600000Y-136310000D03*
X98700000Y-136310000D03*
%TD*%
%TO.C,C12*%
X100550000Y-142310000D03*
X98650000Y-142310000D03*
%TD*%
%TO.C,C1*%
X100600000Y-140310000D03*
X98700000Y-140310000D03*
%TD*%
%TO.C,C20*%
X97050000Y-148460000D03*
X95150000Y-148460000D03*
%TD*%
D14*
%TO.C,Q2*%
X105850000Y-142720000D03*
D15*
X102300000Y-140815000D03*
X102300000Y-142085000D03*
X102300000Y-143355000D03*
X102300000Y-144625000D03*
%TD*%
D17*
%TO.C,D3*%
X107100000Y-147410000D03*
X103100000Y-147410000D03*
%TD*%
D12*
%TO.C,C16*%
X97150000Y-132310000D03*
X95250000Y-132310000D03*
%TD*%
D16*
%TO.C,D5*%
X110600000Y-147170000D03*
X114600000Y-147170000D03*
%TD*%
D18*
%TO.C,Q3*%
X111950000Y-142435000D03*
D19*
X115500000Y-144340000D03*
X115500000Y-143070000D03*
X115500000Y-141800000D03*
X115500000Y-140530000D03*
%TD*%
D18*
%TO.C,Q4*%
X111950000Y-136065000D03*
D19*
X115500000Y-137970000D03*
X115500000Y-136700000D03*
X115500000Y-135430000D03*
X115500000Y-134160000D03*
%TD*%
D13*
%TO.C,R9*%
X110650000Y-151370000D03*
X110650000Y-152370000D03*
%TD*%
D17*
%TO.C,D2*%
X107100000Y-131310000D03*
X103100000Y-131310000D03*
%TD*%
D12*
%TO.C,C41*%
X119300000Y-148520000D03*
X117400000Y-148520000D03*
%TD*%
%TO.C,C30*%
X122650000Y-140370000D03*
X120750000Y-140370000D03*
%TD*%
%TO.C,C24*%
X122700000Y-150570000D03*
X120800000Y-150570000D03*
%TD*%
%TO.C,C36*%
X119250000Y-136370000D03*
X117350000Y-136370000D03*
%TD*%
%TO.C,C28*%
X122700000Y-142470000D03*
X120800000Y-142470000D03*
%TD*%
%TO.C,C33*%
X122650000Y-134370000D03*
X120750000Y-134370000D03*
%TD*%
%TO.C,C2*%
X100600000Y-138310000D03*
X98700000Y-138310000D03*
%TD*%
%TO.C,C19*%
X97050000Y-150410000D03*
X95150000Y-150410000D03*
%TD*%
%TO.C,C17*%
X97200000Y-130260000D03*
X95300000Y-130260000D03*
%TD*%
%TO.C,C25*%
X119300000Y-142470000D03*
X117400000Y-142470000D03*
%TD*%
%TO.C,C15*%
X97150000Y-138410000D03*
X95250000Y-138410000D03*
%TD*%
%TO.C,C35*%
X119300000Y-150570000D03*
X117400000Y-150570000D03*
%TD*%
%TO.C,C22*%
X97150000Y-144410000D03*
X95250000Y-144410000D03*
%TD*%
%TO.C,C13*%
X97150000Y-142410000D03*
X95250000Y-142410000D03*
%TD*%
D17*
%TO.C,D4*%
X115000000Y-126770000D03*
X111000000Y-126770000D03*
%TD*%
D12*
%TO.C,C32*%
X122750000Y-106870000D03*
X120850000Y-106870000D03*
%TD*%
D13*
%TO.C,R11*%
X107050000Y-121870000D03*
X107050000Y-122870000D03*
%TD*%
D12*
%TO.C,C39*%
X119350000Y-100870000D03*
X117450000Y-100870000D03*
%TD*%
D14*
%TO.C,Q1*%
X105950000Y-106510000D03*
D15*
X102400000Y-104605000D03*
X102400000Y-105875000D03*
X102400000Y-107145000D03*
X102400000Y-108415000D03*
%TD*%
D13*
%TO.C,R8*%
X112600000Y-121870000D03*
X112600000Y-122870000D03*
%TD*%
D12*
%TO.C,C29*%
X122800000Y-116920000D03*
X120900000Y-116920000D03*
%TD*%
D13*
%TO.C,R10*%
X108900000Y-121870000D03*
X108900000Y-122870000D03*
%TD*%
D12*
%TO.C,C37*%
X119350000Y-104870000D03*
X117450000Y-104870000D03*
%TD*%
D16*
%TO.C,D6*%
X110800000Y-101570000D03*
X114800000Y-101570000D03*
%TD*%
D12*
%TO.C,C40*%
X122750000Y-100870000D03*
X120850000Y-100870000D03*
%TD*%
D13*
%TO.C,R12*%
X105200000Y-121870000D03*
X105200000Y-122870000D03*
%TD*%
D12*
%TO.C,C26*%
X122800000Y-114970000D03*
X120900000Y-114970000D03*
%TD*%
%TO.C,C27*%
X119400000Y-114970000D03*
X117500000Y-114970000D03*
%TD*%
%TO.C,C34*%
X122750000Y-102870000D03*
X120850000Y-102870000D03*
%TD*%
%TO.C,C42*%
X119400000Y-116970000D03*
X117500000Y-116970000D03*
%TD*%
%TO.C,C43*%
X119350000Y-110870000D03*
X117450000Y-110870000D03*
%TD*%
%TO.C,C44*%
X119350000Y-108870000D03*
X117450000Y-108870000D03*
%TD*%
%TO.C,C31*%
X122750000Y-108870000D03*
X120850000Y-108870000D03*
%TD*%
%TO.C,C38*%
X119350000Y-102870000D03*
X117450000Y-102870000D03*
%TD*%
%TO.C,C23*%
X122800000Y-119020000D03*
X120900000Y-119020000D03*
%TD*%
D14*
%TO.C,Q2*%
X105950000Y-113220000D03*
D15*
X102400000Y-111315000D03*
X102400000Y-112585000D03*
X102400000Y-113855000D03*
X102400000Y-115125000D03*
%TD*%
D17*
%TO.C,D3*%
X107200000Y-117910000D03*
X103200000Y-117910000D03*
%TD*%
D16*
%TO.C,D5*%
X110700000Y-117670000D03*
X114700000Y-117670000D03*
%TD*%
D18*
%TO.C,Q3*%
X112050000Y-112935000D03*
D19*
X115600000Y-114840000D03*
X115600000Y-113570000D03*
X115600000Y-112300000D03*
X115600000Y-111030000D03*
%TD*%
D18*
%TO.C,Q4*%
X112050000Y-106565000D03*
D19*
X115600000Y-108470000D03*
X115600000Y-107200000D03*
X115600000Y-105930000D03*
X115600000Y-104660000D03*
%TD*%
D13*
%TO.C,R9*%
X110750000Y-121870000D03*
X110750000Y-122870000D03*
%TD*%
D17*
%TO.C,D2*%
X107200000Y-101810000D03*
X103200000Y-101810000D03*
%TD*%
D12*
%TO.C,C41*%
X119400000Y-119020000D03*
X117500000Y-119020000D03*
%TD*%
%TO.C,C30*%
X122750000Y-110870000D03*
X120850000Y-110870000D03*
%TD*%
%TO.C,C24*%
X122800000Y-121070000D03*
X120900000Y-121070000D03*
%TD*%
%TO.C,C36*%
X119350000Y-106870000D03*
X117450000Y-106870000D03*
%TD*%
%TO.C,C28*%
X122800000Y-112970000D03*
X120900000Y-112970000D03*
%TD*%
%TO.C,C33*%
X122750000Y-104870000D03*
X120850000Y-104870000D03*
%TD*%
%TO.C,C25*%
X119400000Y-112970000D03*
X117500000Y-112970000D03*
%TD*%
%TO.C,C35*%
X119400000Y-121070000D03*
X117500000Y-121070000D03*
%TD*%
D17*
%TO.C,D4*%
X115100000Y-97270000D03*
X111100000Y-97270000D03*
%TD*%
D12*
%TO.C,C32*%
X91450000Y-107070000D03*
X89550000Y-107070000D03*
%TD*%
D13*
%TO.C,R11*%
X75750000Y-122070000D03*
X75750000Y-123070000D03*
%TD*%
D12*
%TO.C,C39*%
X88050000Y-101070000D03*
X86150000Y-101070000D03*
%TD*%
D14*
%TO.C,Q1*%
X74650000Y-106710000D03*
D15*
X71100000Y-104805000D03*
X71100000Y-106075000D03*
X71100000Y-107345000D03*
X71100000Y-108615000D03*
%TD*%
D12*
%TO.C,C21*%
X65850000Y-117110000D03*
X63950000Y-117110000D03*
%TD*%
D13*
%TO.C,R8*%
X81300000Y-122070000D03*
X81300000Y-123070000D03*
%TD*%
D12*
%TO.C,C29*%
X91500000Y-117120000D03*
X89600000Y-117120000D03*
%TD*%
%TO.C,C8*%
X65950000Y-105060000D03*
X64050000Y-105060000D03*
%TD*%
D13*
%TO.C,R10*%
X77600000Y-122070000D03*
X77600000Y-123070000D03*
%TD*%
D12*
%TO.C,C37*%
X88050000Y-105070000D03*
X86150000Y-105070000D03*
%TD*%
%TO.C,C18*%
X69300000Y-121160000D03*
X67400000Y-121160000D03*
%TD*%
D16*
%TO.C,D6*%
X79500000Y-101770000D03*
X83500000Y-101770000D03*
%TD*%
D12*
%TO.C,C40*%
X91450000Y-101070000D03*
X89550000Y-101070000D03*
%TD*%
%TO.C,C4*%
X69400000Y-105010000D03*
X67500000Y-105010000D03*
%TD*%
D13*
%TO.C,R12*%
X73900000Y-122070000D03*
X73900000Y-123070000D03*
%TD*%
D12*
%TO.C,C26*%
X91500000Y-115170000D03*
X89600000Y-115170000D03*
%TD*%
%TO.C,C9*%
X69350000Y-119110000D03*
X67450000Y-119110000D03*
%TD*%
%TO.C,C27*%
X88100000Y-115170000D03*
X86200000Y-115170000D03*
%TD*%
%TO.C,C34*%
X91450000Y-103070000D03*
X89550000Y-103070000D03*
%TD*%
%TO.C,C42*%
X88100000Y-117170000D03*
X86200000Y-117170000D03*
%TD*%
%TO.C,C43*%
X88050000Y-111070000D03*
X86150000Y-111070000D03*
%TD*%
%TO.C,C44*%
X88050000Y-109070000D03*
X86150000Y-109070000D03*
%TD*%
%TO.C,C11*%
X69350000Y-115010000D03*
X67450000Y-115010000D03*
%TD*%
%TO.C,C10*%
X69350000Y-117110000D03*
X67450000Y-117110000D03*
%TD*%
%TO.C,C31*%
X91450000Y-109070000D03*
X89550000Y-109070000D03*
%TD*%
%TO.C,C14*%
X65950000Y-111110000D03*
X64050000Y-111110000D03*
%TD*%
%TO.C,C7*%
X65950000Y-107110000D03*
X64050000Y-107110000D03*
%TD*%
%TO.C,C38*%
X88050000Y-103070000D03*
X86150000Y-103070000D03*
%TD*%
%TO.C,C6*%
X69400000Y-100960000D03*
X67500000Y-100960000D03*
%TD*%
%TO.C,C5*%
X69400000Y-103010000D03*
X67500000Y-103010000D03*
%TD*%
%TO.C,C23*%
X91500000Y-119220000D03*
X89600000Y-119220000D03*
%TD*%
%TO.C,C3*%
X69400000Y-107010000D03*
X67500000Y-107010000D03*
%TD*%
%TO.C,C12*%
X69350000Y-113010000D03*
X67450000Y-113010000D03*
%TD*%
%TO.C,C1*%
X69400000Y-111010000D03*
X67500000Y-111010000D03*
%TD*%
%TO.C,C20*%
X65850000Y-119160000D03*
X63950000Y-119160000D03*
%TD*%
D14*
%TO.C,Q2*%
X74650000Y-113420000D03*
D15*
X71100000Y-111515000D03*
X71100000Y-112785000D03*
X71100000Y-114055000D03*
X71100000Y-115325000D03*
%TD*%
D17*
%TO.C,D3*%
X75900000Y-118110000D03*
X71900000Y-118110000D03*
%TD*%
D12*
%TO.C,C16*%
X65950000Y-103010000D03*
X64050000Y-103010000D03*
%TD*%
D16*
%TO.C,D5*%
X79400000Y-117870000D03*
X83400000Y-117870000D03*
%TD*%
D18*
%TO.C,Q3*%
X80750000Y-113135000D03*
D19*
X84300000Y-115040000D03*
X84300000Y-113770000D03*
X84300000Y-112500000D03*
X84300000Y-111230000D03*
%TD*%
D18*
%TO.C,Q4*%
X80750000Y-106765000D03*
D19*
X84300000Y-108670000D03*
X84300000Y-107400000D03*
X84300000Y-106130000D03*
X84300000Y-104860000D03*
%TD*%
D13*
%TO.C,R9*%
X79450000Y-122070000D03*
X79450000Y-123070000D03*
%TD*%
D17*
%TO.C,D2*%
X75900000Y-102010000D03*
X71900000Y-102010000D03*
%TD*%
D12*
%TO.C,C41*%
X88100000Y-119220000D03*
X86200000Y-119220000D03*
%TD*%
%TO.C,C30*%
X91450000Y-111070000D03*
X89550000Y-111070000D03*
%TD*%
%TO.C,C24*%
X91500000Y-121270000D03*
X89600000Y-121270000D03*
%TD*%
%TO.C,C36*%
X88050000Y-107070000D03*
X86150000Y-107070000D03*
%TD*%
%TO.C,C28*%
X91500000Y-113170000D03*
X89600000Y-113170000D03*
%TD*%
%TO.C,C33*%
X91450000Y-105070000D03*
X89550000Y-105070000D03*
%TD*%
%TO.C,C2*%
X69400000Y-109010000D03*
X67500000Y-109010000D03*
%TD*%
%TO.C,C19*%
X65850000Y-121110000D03*
X63950000Y-121110000D03*
%TD*%
%TO.C,C17*%
X66000000Y-100960000D03*
X64100000Y-100960000D03*
%TD*%
%TO.C,C25*%
X88100000Y-113170000D03*
X86200000Y-113170000D03*
%TD*%
%TO.C,C15*%
X65950000Y-109110000D03*
X64050000Y-109110000D03*
%TD*%
%TO.C,C35*%
X88100000Y-121270000D03*
X86200000Y-121270000D03*
%TD*%
%TO.C,C22*%
X65950000Y-115110000D03*
X64050000Y-115110000D03*
%TD*%
%TO.C,C13*%
X65950000Y-113110000D03*
X64050000Y-113110000D03*
%TD*%
D17*
%TO.C,D4*%
X83800000Y-97470000D03*
X79800000Y-97470000D03*
%TD*%
D13*
%TO.C,R11*%
X76445000Y-151555000D03*
X76445000Y-152555000D03*
%TD*%
D12*
%TO.C,C32*%
X92145000Y-136555000D03*
X90245000Y-136555000D03*
%TD*%
D16*
%TO.C,D5*%
X80095000Y-147355000D03*
X84095000Y-147355000D03*
%TD*%
D12*
%TO.C,C20*%
X66545000Y-148645000D03*
X64645000Y-148645000D03*
%TD*%
D14*
%TO.C,Q2*%
X75345000Y-142905000D03*
D15*
X71795000Y-141000000D03*
X71795000Y-142270000D03*
X71795000Y-143540000D03*
X71795000Y-144810000D03*
%TD*%
D12*
%TO.C,C1*%
X70095000Y-140495000D03*
X68195000Y-140495000D03*
%TD*%
%TO.C,C16*%
X66645000Y-132495000D03*
X64745000Y-132495000D03*
%TD*%
D17*
%TO.C,D3*%
X76595000Y-147595000D03*
X72595000Y-147595000D03*
%TD*%
D12*
%TO.C,C15*%
X66645000Y-138595000D03*
X64745000Y-138595000D03*
%TD*%
D17*
%TO.C,D4*%
X84495000Y-126955000D03*
X80495000Y-126955000D03*
%TD*%
D12*
%TO.C,C35*%
X88795000Y-150755000D03*
X86895000Y-150755000D03*
%TD*%
%TO.C,C22*%
X66645000Y-144595000D03*
X64745000Y-144595000D03*
%TD*%
%TO.C,C13*%
X66645000Y-142595000D03*
X64745000Y-142595000D03*
%TD*%
%TO.C,C25*%
X88795000Y-142655000D03*
X86895000Y-142655000D03*
%TD*%
%TO.C,C17*%
X66695000Y-130445000D03*
X64795000Y-130445000D03*
%TD*%
%TO.C,C19*%
X66545000Y-150595000D03*
X64645000Y-150595000D03*
%TD*%
%TO.C,C2*%
X70095000Y-138495000D03*
X68195000Y-138495000D03*
%TD*%
%TO.C,C33*%
X92145000Y-134555000D03*
X90245000Y-134555000D03*
%TD*%
%TO.C,C28*%
X92195000Y-142655000D03*
X90295000Y-142655000D03*
%TD*%
D20*
%TO.C,J1*%
X94050000Y-75130000D03*
D21*
X92550000Y-79450000D03*
D22*
X95550000Y-79450000D03*
X92550000Y-82450000D03*
X95550000Y-82450000D03*
%TD*%
D12*
%TO.C,C24*%
X92195000Y-150755000D03*
X90295000Y-150755000D03*
%TD*%
%TO.C,C36*%
X88745000Y-136555000D03*
X86845000Y-136555000D03*
%TD*%
%TO.C,C30*%
X92145000Y-140555000D03*
X90245000Y-140555000D03*
%TD*%
%TO.C,C41*%
X88795000Y-148705000D03*
X86895000Y-148705000D03*
%TD*%
D18*
%TO.C,Q4*%
X81445000Y-136250000D03*
D19*
X84995000Y-138155000D03*
X84995000Y-136885000D03*
X84995000Y-135615000D03*
X84995000Y-134345000D03*
%TD*%
D18*
%TO.C,Q3*%
X81445000Y-142620000D03*
D19*
X84995000Y-144525000D03*
X84995000Y-143255000D03*
X84995000Y-141985000D03*
X84995000Y-140715000D03*
%TD*%
D17*
%TO.C,D2*%
X76595000Y-131495000D03*
X72595000Y-131495000D03*
%TD*%
D13*
%TO.C,R9*%
X80145000Y-151555000D03*
X80145000Y-152555000D03*
%TD*%
D12*
%TO.C,C12*%
X70045000Y-142495000D03*
X68145000Y-142495000D03*
%TD*%
%TO.C,C3*%
X70095000Y-136495000D03*
X68195000Y-136495000D03*
%TD*%
%TO.C,C23*%
X92195000Y-148705000D03*
X90295000Y-148705000D03*
%TD*%
D23*
%TO.C,J7*%
X73050000Y-80850000D03*
X86550000Y-80850000D03*
D24*
X76200000Y-86850000D03*
D25*
X83400000Y-86850000D03*
%TD*%
D12*
%TO.C,C5*%
X70095000Y-132495000D03*
X68195000Y-132495000D03*
%TD*%
%TO.C,C6*%
X70095000Y-130445000D03*
X68195000Y-130445000D03*
%TD*%
%TO.C,C7*%
X66645000Y-136595000D03*
X64745000Y-136595000D03*
%TD*%
%TO.C,C38*%
X88745000Y-132555000D03*
X86845000Y-132555000D03*
%TD*%
%TO.C,C14*%
X66645000Y-140595000D03*
X64745000Y-140595000D03*
%TD*%
%TO.C,C31*%
X92145000Y-138555000D03*
X90245000Y-138555000D03*
%TD*%
D20*
%TO.C,J5*%
X117350000Y-75015000D03*
D21*
X115850000Y-79335000D03*
D22*
X118850000Y-79335000D03*
X115850000Y-82335000D03*
X118850000Y-82335000D03*
%TD*%
D12*
%TO.C,C11*%
X70045000Y-144495000D03*
X68145000Y-144495000D03*
%TD*%
%TO.C,C10*%
X70045000Y-146595000D03*
X68145000Y-146595000D03*
%TD*%
%TO.C,C44*%
X88745000Y-138555000D03*
X86845000Y-138555000D03*
%TD*%
%TO.C,C42*%
X88795000Y-146655000D03*
X86895000Y-146655000D03*
%TD*%
%TO.C,C43*%
X88745000Y-140555000D03*
X86845000Y-140555000D03*
%TD*%
%TO.C,C34*%
X92145000Y-132555000D03*
X90245000Y-132555000D03*
%TD*%
D26*
%TO.C,J6*%
X157630000Y-163750000D03*
X68730000Y-163750000D03*
D27*
X152550000Y-161210000D03*
D28*
X150010000Y-161210000D03*
X147470000Y-161210000D03*
X144930000Y-161210000D03*
X142390000Y-161210000D03*
X139850000Y-161210000D03*
X137310000Y-161210000D03*
X134770000Y-161210000D03*
X132230000Y-161210000D03*
X129690000Y-161210000D03*
X127150000Y-161210000D03*
X124610000Y-161210000D03*
X122070000Y-161210000D03*
X119530000Y-161210000D03*
X116990000Y-161210000D03*
X114450000Y-161210000D03*
X111910000Y-161210000D03*
X109370000Y-161210000D03*
X106830000Y-161210000D03*
X104290000Y-161210000D03*
X101750000Y-161210000D03*
X99210000Y-161210000D03*
X96670000Y-161210000D03*
X94130000Y-161210000D03*
X91590000Y-161210000D03*
X89050000Y-161210000D03*
X86510000Y-161210000D03*
X83970000Y-161210000D03*
X81430000Y-161210000D03*
X78890000Y-161210000D03*
X76350000Y-161210000D03*
X73810000Y-161210000D03*
X152550000Y-158670000D03*
X150010000Y-158670000D03*
X147470000Y-158670000D03*
X144930000Y-158670000D03*
X142390000Y-158670000D03*
X139850000Y-158670000D03*
X137310000Y-158670000D03*
X134770000Y-158670000D03*
X132230000Y-158670000D03*
X129690000Y-158670000D03*
X127150000Y-158670000D03*
X124610000Y-158670000D03*
X122070000Y-158670000D03*
X119530000Y-158670000D03*
X116990000Y-158670000D03*
X114450000Y-158670000D03*
X111910000Y-158670000D03*
X109370000Y-158670000D03*
X106830000Y-158670000D03*
X104290000Y-158670000D03*
X101750000Y-158670000D03*
X99210000Y-158670000D03*
X96670000Y-158670000D03*
X94130000Y-158670000D03*
X91590000Y-158670000D03*
X89050000Y-158670000D03*
X86510000Y-158670000D03*
X83970000Y-158670000D03*
X81430000Y-158670000D03*
X78890000Y-158670000D03*
X76350000Y-158670000D03*
X73810000Y-158670000D03*
X152550000Y-156130000D03*
X150010000Y-156130000D03*
X147470000Y-156130000D03*
X144930000Y-156130000D03*
X142390000Y-156130000D03*
X139850000Y-156130000D03*
X137310000Y-156130000D03*
X134770000Y-156130000D03*
X132230000Y-156130000D03*
X129690000Y-156130000D03*
X127150000Y-156130000D03*
X124610000Y-156130000D03*
X122070000Y-156130000D03*
X119530000Y-156130000D03*
X116990000Y-156130000D03*
X114450000Y-156130000D03*
X111910000Y-156130000D03*
X109370000Y-156130000D03*
X106830000Y-156130000D03*
X104290000Y-156130000D03*
X101750000Y-156130000D03*
X99210000Y-156130000D03*
X96670000Y-156130000D03*
X94130000Y-156130000D03*
X91590000Y-156130000D03*
X89050000Y-156130000D03*
X86510000Y-156130000D03*
X83970000Y-156130000D03*
X81430000Y-156130000D03*
X78890000Y-156130000D03*
X76350000Y-156130000D03*
X73810000Y-156130000D03*
%TD*%
D12*
%TO.C,C27*%
X88795000Y-144655000D03*
X86895000Y-144655000D03*
%TD*%
%TO.C,C26*%
X92195000Y-144655000D03*
X90295000Y-144655000D03*
%TD*%
D13*
%TO.C,R12*%
X74595000Y-151555000D03*
X74595000Y-152555000D03*
%TD*%
D12*
%TO.C,C9*%
X70045000Y-148595000D03*
X68145000Y-148595000D03*
%TD*%
D20*
%TO.C,J2*%
X140250000Y-75315000D03*
D21*
X138750000Y-79635000D03*
D22*
X141750000Y-79635000D03*
X138750000Y-82635000D03*
X141750000Y-82635000D03*
%TD*%
D12*
%TO.C,C4*%
X70095000Y-134495000D03*
X68195000Y-134495000D03*
%TD*%
%TO.C,C18*%
X69995000Y-150645000D03*
X68095000Y-150645000D03*
%TD*%
%TO.C,C40*%
X92145000Y-130555000D03*
X90245000Y-130555000D03*
%TD*%
D16*
%TO.C,D6*%
X80195000Y-131255000D03*
X84195000Y-131255000D03*
%TD*%
D12*
%TO.C,C37*%
X88745000Y-134555000D03*
X86845000Y-134555000D03*
%TD*%
D13*
%TO.C,R10*%
X78295000Y-151555000D03*
X78295000Y-152555000D03*
%TD*%
D12*
%TO.C,C8*%
X66645000Y-134545000D03*
X64745000Y-134545000D03*
%TD*%
%TO.C,C29*%
X92195000Y-146605000D03*
X90295000Y-146605000D03*
%TD*%
D13*
%TO.C,R8*%
X81995000Y-151555000D03*
X81995000Y-152555000D03*
%TD*%
D20*
%TO.C,J4*%
X128850000Y-75215000D03*
D21*
X127350000Y-79535000D03*
D22*
X130350000Y-79535000D03*
X127350000Y-82535000D03*
X130350000Y-82535000D03*
%TD*%
D14*
%TO.C,Q1*%
X75345000Y-136195000D03*
D15*
X71795000Y-134290000D03*
X71795000Y-135560000D03*
X71795000Y-136830000D03*
X71795000Y-138100000D03*
%TD*%
D12*
%TO.C,C21*%
X66545000Y-146595000D03*
X64645000Y-146595000D03*
%TD*%
D20*
%TO.C,J3*%
X105550000Y-75115000D03*
D21*
X104050000Y-79435000D03*
D22*
X107050000Y-79435000D03*
X104050000Y-82435000D03*
X107050000Y-82435000D03*
%TD*%
D12*
%TO.C,C39*%
X88745000Y-130555000D03*
X86845000Y-130555000D03*
%TD*%
%LPD*%
M02*
