%TF.GenerationSoftware,KiCad,Pcbnew,9.0.3*%
%TF.CreationDate,2025-09-23T23:00:59+02:00*%
%TF.ProjectId,ModuCard-GPIO-AUX,4d6f6475-4361-4726-942d-4750494f2d41,rev?*%
%TF.SameCoordinates,Original*%
%TF.FileFunction,Soldermask,Bot*%
%TF.FilePolarity,Negative*%
%FSLAX46Y46*%
G04 Gerber Fmt 4.6, Leading zero omitted, Abs format (unit mm)*
G04 Created by KiCad (PCBNEW 9.0.3) date 2025-09-23 23:00:59*
%MOMM*%
%LPD*%
G01*
G04 APERTURE LIST*
G04 Aperture macros list*
%AMRoundRect*
0 Rectangle with rounded corners*
0 $1 Rounding radius*
0 $2 $3 $4 $5 $6 $7 $8 $9 X,Y pos of 4 corners*
0 Add a 4 corners polygon primitive as box body*
4,1,4,$2,$3,$4,$5,$6,$7,$8,$9,$2,$3,0*
0 Add four circle primitives for the rounded corners*
1,1,$1+$1,$2,$3*
1,1,$1+$1,$4,$5*
1,1,$1+$1,$6,$7*
1,1,$1+$1,$8,$9*
0 Add four rect primitives between the rounded corners*
20,1,$1+$1,$2,$3,$4,$5,0*
20,1,$1+$1,$4,$5,$6,$7,0*
20,1,$1+$1,$6,$7,$8,$9,0*
20,1,$1+$1,$8,$9,$2,$3,0*%
G04 Aperture macros list end*
%ADD10C,3.000000*%
%ADD11RoundRect,0.250001X-0.499999X-0.499999X0.499999X-0.499999X0.499999X0.499999X-0.499999X0.499999X0*%
%ADD12C,1.500000*%
%ADD13R,0.900000X2.000000*%
%ADD14RoundRect,1.025000X-1.025000X-1.025000X1.025000X-1.025000X1.025000X1.025000X-1.025000X1.025000X0*%
%ADD15C,4.100000*%
%ADD16C,2.850000*%
%ADD17RoundRect,0.249999X0.525001X0.525001X-0.525001X0.525001X-0.525001X-0.525001X0.525001X-0.525001X0*%
%ADD18C,1.550000*%
G04 APERTURE END LIST*
D10*
%TO.C,J1*%
X94050000Y-75130000D03*
D11*
X92550000Y-79450000D03*
D12*
X95550000Y-79450000D03*
X92550000Y-82450000D03*
X95550000Y-82450000D03*
%TD*%
D13*
%TO.C,J7*%
X73050000Y-80850000D03*
X86550000Y-80850000D03*
D14*
X76200000Y-86850000D03*
D15*
X83400000Y-86850000D03*
%TD*%
D10*
%TO.C,J5*%
X117350000Y-75015000D03*
D11*
X115850000Y-79335000D03*
D12*
X118850000Y-79335000D03*
X115850000Y-82335000D03*
X118850000Y-82335000D03*
%TD*%
D16*
%TO.C,J6*%
X157630000Y-163750000D03*
X68730000Y-163750000D03*
D17*
X152550000Y-161210000D03*
D18*
X150010000Y-161210000D03*
X147470000Y-161210000D03*
X144930000Y-161210000D03*
X142390000Y-161210000D03*
X139850000Y-161210000D03*
X137310000Y-161210000D03*
X134770000Y-161210000D03*
X132230000Y-161210000D03*
X129690000Y-161210000D03*
X127150000Y-161210000D03*
X124610000Y-161210000D03*
X122070000Y-161210000D03*
X119530000Y-161210000D03*
X116990000Y-161210000D03*
X114450000Y-161210000D03*
X111910000Y-161210000D03*
X109370000Y-161210000D03*
X106830000Y-161210000D03*
X104290000Y-161210000D03*
X101750000Y-161210000D03*
X99210000Y-161210000D03*
X96670000Y-161210000D03*
X94130000Y-161210000D03*
X91590000Y-161210000D03*
X89050000Y-161210000D03*
X86510000Y-161210000D03*
X83970000Y-161210000D03*
X81430000Y-161210000D03*
X78890000Y-161210000D03*
X76350000Y-161210000D03*
X73810000Y-161210000D03*
X152550000Y-158670000D03*
X150010000Y-158670000D03*
X147470000Y-158670000D03*
X144930000Y-158670000D03*
X142390000Y-158670000D03*
X139850000Y-158670000D03*
X137310000Y-158670000D03*
X134770000Y-158670000D03*
X132230000Y-158670000D03*
X129690000Y-158670000D03*
X127150000Y-158670000D03*
X124610000Y-158670000D03*
X122070000Y-158670000D03*
X119530000Y-158670000D03*
X116990000Y-158670000D03*
X114450000Y-158670000D03*
X111910000Y-158670000D03*
X109370000Y-158670000D03*
X106830000Y-158670000D03*
X104290000Y-158670000D03*
X101750000Y-158670000D03*
X99210000Y-158670000D03*
X96670000Y-158670000D03*
X94130000Y-158670000D03*
X91590000Y-158670000D03*
X89050000Y-158670000D03*
X86510000Y-158670000D03*
X83970000Y-158670000D03*
X81430000Y-158670000D03*
X78890000Y-158670000D03*
X76350000Y-158670000D03*
X73810000Y-158670000D03*
X152550000Y-156130000D03*
X150010000Y-156130000D03*
X147470000Y-156130000D03*
X144930000Y-156130000D03*
X142390000Y-156130000D03*
X139850000Y-156130000D03*
X137310000Y-156130000D03*
X134770000Y-156130000D03*
X132230000Y-156130000D03*
X129690000Y-156130000D03*
X127150000Y-156130000D03*
X124610000Y-156130000D03*
X122070000Y-156130000D03*
X119530000Y-156130000D03*
X116990000Y-156130000D03*
X114450000Y-156130000D03*
X111910000Y-156130000D03*
X109370000Y-156130000D03*
X106830000Y-156130000D03*
X104290000Y-156130000D03*
X101750000Y-156130000D03*
X99210000Y-156130000D03*
X96670000Y-156130000D03*
X94130000Y-156130000D03*
X91590000Y-156130000D03*
X89050000Y-156130000D03*
X86510000Y-156130000D03*
X83970000Y-156130000D03*
X81430000Y-156130000D03*
X78890000Y-156130000D03*
X76350000Y-156130000D03*
X73810000Y-156130000D03*
%TD*%
D10*
%TO.C,J2*%
X140250000Y-75315000D03*
D11*
X138750000Y-79635000D03*
D12*
X141750000Y-79635000D03*
X138750000Y-82635000D03*
X141750000Y-82635000D03*
%TD*%
D10*
%TO.C,J4*%
X128850000Y-75215000D03*
D11*
X127350000Y-79535000D03*
D12*
X130350000Y-79535000D03*
X127350000Y-82535000D03*
X130350000Y-82535000D03*
%TD*%
D10*
%TO.C,J3*%
X105550000Y-75115000D03*
D11*
X104050000Y-79435000D03*
D12*
X107050000Y-79435000D03*
X104050000Y-82435000D03*
X107050000Y-82435000D03*
%TD*%
M02*
